<svg width="540" height="1386" viewBox="0 0 540 1386" fill="none" xmlns="http://www.w3.org/2000/svg">
<g opacity="0.4">
<path d="M660.225 1363.22C660.225 1363.22 237.57 1233.5 458.937 981.954C680.304 730.409 282.798 720.182 393.932 405.87C514.403 65.1001 830.592 125.479 830.592 125.479" stroke="url(#paint0_linear_1_408)" stroke-width="0.3702" stroke-miterlimit="10"/>
<path d="M662.089 1359.41C662.089 1359.41 243.396 1231.68 462.715 981.265C482.408 958.956 497.027 938.478 507.736 919.619C616.158 727.616 301.728 691.974 401.103 409.846C519.339 74.1625 830.074 131.762 833.681 130.953" stroke="url(#paint1_linear_1_408)" stroke-width="0.3702" stroke-miterlimit="10"/>
<path d="M664.073 1355.42C664.073 1355.42 249.17 1229.57 466.494 980.576C485.777 958.493 500.449 938.307 511.158 919.448C619.262 729.013 310.592 692.018 408.103 413.701C524.224 82.9325 829.437 138.218 836.426 136.189" stroke="url(#paint2_linear_1_408)" stroke-width="0.3702" stroke-miterlimit="10"/>
<path d="M665.936 1351.61C665.936 1351.61 254.705 1227.81 470.272 979.887C489.436 957.976 503.817 937.843 514.579 919.277C622.365 730.409 319.455 692.062 415.273 417.676C529.159 91.9945 828.8 144.674 839.515 141.663" stroke="url(#paint3_linear_1_408)" stroke-width="0.3702" stroke-miterlimit="10"/>
<path d="M667.92 1347.63C667.92 1347.63 260.479 1225.7 473.878 979.078C492.633 957.393 507.067 937.553 517.829 918.986C625.297 731.685 328.147 691.986 422.22 421.24C533.871 100.645 827.939 150.718 842.26 146.898" stroke="url(#paint4_linear_1_408)" stroke-width="0.3702" stroke-miterlimit="10"/>
<path d="M669.784 1343.81C669.784 1343.81 266.134 1223.76 477.656 978.389C496.292 956.877 510.607 937.209 521.25 918.815C628.401 733.082 337.13 691.858 429.391 425.216C538.807 109.708 827.473 157.294 845.348 152.373" stroke="url(#paint5_linear_1_408)" stroke-width="0.3702" stroke-miterlimit="10"/>
<path d="M671.768 1339.83C671.768 1339.83 271.789 1221.82 481.435 977.7C499.833 956.533 513.858 936.919 524.5 918.525C631.161 734.239 345.994 691.902 436.219 428.952C543.52 118.358 826.612 163.338 847.922 157.489" stroke="url(#paint6_linear_1_408)" stroke-width="0.3702" stroke-miterlimit="10"/>
<path d="M673.632 1336.02C673.632 1336.02 276.928 1219.53 485.213 977.011C503.32 955.897 517.398 936.574 527.921 918.353C634.265 735.635 354.858 691.946 443.218 432.807C548.284 127.3 825.975 169.793 850.839 162.844" stroke="url(#paint7_linear_1_408)" stroke-width="0.3702" stroke-miterlimit="10"/>
<path d="M675.616 1332.03C675.616 1332.03 282.531 1217.3 488.992 976.322C506.861 955.553 520.648 936.284 531.343 918.182C637.369 737.031 363.841 691.817 450.509 436.61C553.34 136.19 825.457 176.076 854.047 168.146" stroke="url(#paint8_linear_1_408)" stroke-width="0.3702" stroke-miterlimit="10"/>
<path d="M677.48 1328.22C677.48 1328.22 288.185 1215.36 492.598 975.513C510.177 954.798 524.016 935.821 534.592 917.892C640.301 738.308 372.532 691.742 457.336 440.346C557.932 145.013 824.648 182.413 856.673 173.554" stroke="url(#paint9_linear_1_408)" stroke-width="0.3702" stroke-miterlimit="10"/>
<path d="M679.463 1324.24C679.463 1324.24 293.84 1213.42 496.377 974.824C513.717 954.454 527.438 935.649 538.014 917.72C643.404 739.704 381.396 691.785 464.507 444.321C562.988 153.903 824.13 188.696 859.59 178.909" stroke="url(#paint10_linear_1_408)" stroke-width="0.3702" stroke-miterlimit="10"/>
<path d="M681.327 1320.43C681.327 1320.43 299.323 1211.37 500.155 974.135C517.205 953.818 530.807 935.186 541.435 917.549C646.389 741.274 390.26 691.83 471.507 448.177C567.753 162.845 823.321 195.033 862.507 184.264" stroke="url(#paint11_linear_1_408)" stroke-width="0.3702" stroke-miterlimit="10"/>
<path d="M683.31 1316.44C683.31 1316.44 305.096 1209.26 503.933 973.446C520.745 953.474 534.228 935.015 544.856 917.378C649.611 742.497 398.78 691.634 478.796 451.98C572.345 171.669 822.975 201.436 865.714 189.566" stroke="url(#paint12_linear_1_408)" stroke-width="0.3702" stroke-miterlimit="10"/>
<path d="M685.175 1312.63C685.175 1312.63 310.632 1207.5 507.711 972.757C524.404 952.958 537.768 934.672 548.278 917.207C652.715 743.894 407.644 691.678 485.796 455.836C577.057 180.319 822.166 207.772 868.512 195.094" stroke="url(#paint13_linear_1_408)" stroke-width="0.3702" stroke-miterlimit="10"/>
<path d="M687.159 1308.64C687.159 1308.64 316.406 1205.39 511.319 971.948C527.602 952.375 540.847 934.261 551.528 916.916C655.529 745.343 416.456 691.43 492.796 459.691C581.822 189.261 821.53 214.228 871.258 200.329" stroke="url(#paint14_linear_1_408)" stroke-width="0.3702" stroke-miterlimit="10"/>
<path d="M689.022 1304.83C689.022 1304.83 321.889 1203.33 514.978 971.432C531.142 952.031 544.268 934.09 554.83 916.918C658.513 746.912 425.2 691.646 499.676 463.72C586.467 198.377 820.72 220.564 874.055 205.856" stroke="url(#paint15_linear_1_408)" stroke-width="0.3702" stroke-miterlimit="10"/>
<path d="M690.887 1301.02C690.887 1301.02 327.543 1201.39 518.756 970.743C534.682 951.687 547.517 933.799 558.252 916.747C661.617 748.308 434.064 691.69 506.966 467.522C591.523 207.266 820.374 226.967 877.263 211.158" stroke="url(#paint16_linear_1_408)" stroke-width="0.3702" stroke-miterlimit="10"/>
<path d="M692.87 1297.04C692.87 1297.04 333.198 1199.45 522.534 970.054C538.17 951.051 551.058 933.455 561.673 916.576C664.72 749.705 442.927 691.734 513.965 471.378C596.287 216.209 819.565 233.304 880.179 216.514" stroke="url(#paint17_linear_1_408)" stroke-width="0.3702" stroke-miterlimit="10"/>
<path d="M694.734 1293.22C694.734 1293.22 338.853 1197.52 526.141 969.245C541.539 950.587 554.308 933.164 564.751 916.165C667.309 750.741 451.567 691.366 520.793 475.114C600.709 224.912 818.585 239.519 882.806 221.921" stroke="url(#paint18_linear_1_408)" stroke-width="0.3702" stroke-miterlimit="10"/>
<path d="M696.717 1289.24C696.717 1289.24 344.454 1195.29 529.919 968.556C544.907 950.124 557.676 932.701 568.172 915.994C670.756 752.377 460.43 691.41 527.792 478.97C605.592 233.682 818.066 245.803 885.551 227.157" stroke="url(#paint19_linear_1_408)" stroke-width="0.3702" stroke-miterlimit="10"/>
<path d="M698.582 1285.43C698.582 1285.43 349.991 1193.53 533.698 967.868C548.567 949.608 561.098 932.53 571.594 915.823C673.86 753.774 469.295 691.455 534.911 482.654C610.476 242.453 817.377 251.967 888.587 232.34" stroke="url(#paint20_linear_1_408)" stroke-width="0.3702" stroke-miterlimit="10"/>
<path d="M700.394 1281.32C700.394 1281.32 355.593 1191.3 537.304 967.059C551.936 949.145 564.467 932.067 574.725 915.705C676.673 755.223 477.868 691.551 541.792 486.682C615.122 251.568 816.621 258.596 891.385 237.867" stroke="url(#paint21_linear_1_408)" stroke-width="0.3702" stroke-miterlimit="10"/>
<path d="M702.258 1277.51C702.258 1277.51 361.247 1189.36 541.082 966.37C555.423 948.509 567.716 931.776 578.146 915.534C679.776 756.62 486.85 691.423 548.791 490.538C619.886 260.511 815.812 264.932 894.183 243.395" stroke="url(#paint22_linear_1_408)" stroke-width="0.3702" stroke-miterlimit="10"/>
<path d="M704.241 1273.53C704.241 1273.53 366.902 1187.42 544.689 965.561C558.792 948.045 571.085 931.312 581.396 915.243C682.708 757.896 495.543 691.347 555.91 494.22C624.77 269.28 815.123 271.095 897.047 248.457" stroke="url(#paint23_linear_1_408)" stroke-width="0.3702" stroke-miterlimit="10"/>
<path d="M706.106 1269.72C706.106 1269.72 372.557 1185.48 548.468 964.871C562.28 947.409 574.507 931.141 584.818 915.072C685.812 759.292 504.406 691.39 562.909 498.076C629.654 278.05 814.605 277.378 899.964 253.812" stroke="url(#paint24_linear_1_408)" stroke-width="0.3702" stroke-miterlimit="10"/>
<path d="M708.089 1265.73C708.089 1265.73 378.331 1183.38 552.246 964.183C565.821 947.065 577.875 930.678 588.239 914.901C688.916 760.688 513.27 691.435 570.08 502.051C634.59 287.112 813.968 283.835 903.053 259.287" stroke="url(#paint25_linear_1_408)" stroke-width="0.3702" stroke-miterlimit="10"/>
<path d="M709.954 1261.92C709.954 1261.92 383.866 1181.61 556.025 963.494C569.48 946.549 581.297 930.507 591.661 914.73C692.02 762.085 522.253 691.306 577.08 505.907C639.183 295.936 813.331 290.291 905.851 264.814" stroke="url(#paint26_linear_1_408)" stroke-width="0.3702" stroke-miterlimit="10"/>
<path d="M711.937 1257.94C711.937 1257.94 389.64 1179.5 559.803 962.804C572.849 946.085 584.666 930.043 595.082 914.558C695.124 763.481 531.117 691.35 584.37 509.71C644.239 304.825 812.813 296.574 908.887 269.996" stroke="url(#paint27_linear_1_408)" stroke-width="0.3702" stroke-miterlimit="10"/>
<path d="M713.801 1254.12C713.801 1254.12 395.294 1177.56 563.409 961.996C576.336 945.45 587.915 929.753 598.331 914.268C698.055 764.758 539.809 691.275 591.197 513.446C648.95 313.476 812.123 302.738 911.632 275.232" stroke="url(#paint28_linear_1_408)" stroke-width="0.3702" stroke-miterlimit="10"/>
<path d="M715.784 1250.14C715.784 1250.14 400.949 1175.63 567.187 961.307C579.876 945.106 591.455 929.409 601.753 914.096C701.159 766.154 548.791 691.146 598.368 517.421C653.886 322.538 811.486 309.193 914.72 280.706" stroke="url(#paint29_linear_1_408)" stroke-width="0.3702" stroke-miterlimit="10"/>
<path d="M717.648 1246.33C717.648 1246.33 406.604 1173.69 570.966 960.618C583.364 944.469 594.705 929.118 605.003 913.806C703.8 767.483 557.483 691.07 605.196 521.157C658.479 331.36 810.505 315.41 917.465 285.942" stroke="url(#paint30_linear_1_408)" stroke-width="0.3702" stroke-miterlimit="10"/>
<path d="M719.632 1242.34C719.632 1242.34 412.377 1171.58 574.744 959.929C586.904 944.126 598.245 928.774 608.424 913.635C706.904 768.88 566.347 691.114 612.315 524.84C663.363 340.131 809.987 321.694 920.211 291.177" stroke="url(#paint31_linear_1_408)" stroke-width="0.3702" stroke-miterlimit="10"/>
<path d="M721.497 1238.53C721.497 1238.53 417.914 1169.82 578.351 959.12C590.393 943.49 601.496 928.484 611.674 913.344C709.15 769.678 575.04 691.039 619.315 528.697C668.128 349.074 809.179 328.03 923.128 296.532" stroke="url(#paint32_linear_1_408)" stroke-width="0.3702" stroke-miterlimit="10"/>
<path d="M723.361 1234.72C723.361 1234.72 423.568 1167.88 582.01 958.603C593.642 943.199 604.745 928.193 614.976 913.345C712.134 771.247 583.903 691.082 626.195 532.725C672.892 358.016 808.542 334.486 925.926 302.06" stroke="url(#paint33_linear_1_408)" stroke-width="0.3702" stroke-miterlimit="10"/>
<path d="M725.344 1230.74C725.344 1230.74 429.223 1165.94 585.908 957.742C597.42 942.51 608.286 927.849 618.517 913.002C716.043 772.949 593.058 691.073 633.485 536.528C677.948 366.906 808.024 340.769 929.134 307.362" stroke="url(#paint34_linear_1_408)" stroke-width="0.3702" stroke-miterlimit="10"/>
<path d="M727.208 1226.92C727.208 1226.92 434.877 1164.01 589.567 957.225C600.67 942.219 611.535 927.558 621.819 913.003C719.028 774.518 601.802 691.29 640.484 540.383C682.712 375.848 807.215 347.105 931.931 312.889" stroke="url(#paint35_linear_1_408)" stroke-width="0.3702" stroke-miterlimit="10"/>
<path d="M729.192 1222.94C729.192 1222.94 440.651 1161.9 593.346 956.537C604.33 941.703 614.957 927.388 625.241 912.833C722.132 775.915 610.667 691.334 647.656 544.359C687.649 384.911 806.75 353.681 934.848 318.245" stroke="url(#paint36_linear_1_408)" stroke-width="0.3702" stroke-miterlimit="10"/>
<path d="M731.056 1219.13C731.056 1219.13 446.358 1160.25 596.952 955.728C607.698 941.239 618.325 926.924 628.49 912.541C725.063 777.191 619.477 691.085 654.483 548.094C692.36 393.561 805.769 359.897 937.593 323.479" stroke="url(#paint37_linear_1_408)" stroke-width="0.3702" stroke-miterlimit="10"/>
<path d="M733.039 1215.14C733.039 1215.14 452.132 1158.14 600.73 955.039C611.186 940.603 621.575 926.633 631.912 912.37C727.995 778.468 628.341 691.129 661.654 552.07C697.297 402.623 805.423 366.301 940.682 328.954" stroke="url(#paint38_linear_1_408)" stroke-width="0.3702" stroke-miterlimit="10"/>
<path d="M734.903 1211.33C734.903 1211.33 457.786 1156.21 604.508 954.35C614.726 940.26 625.115 926.29 635.333 912.2C731.099 779.865 637.376 691.293 668.772 555.754C702.18 411.394 804.733 372.465 943.718 334.137" stroke="url(#paint39_linear_1_408)" stroke-width="0.3702" stroke-miterlimit="10"/>
<path d="M736.886 1207.35C736.886 1207.35 463.613 1154.39 608.286 953.661C618.385 939.743 628.365 925.998 638.754 912.028C734.031 781.141 646.359 691.164 675.943 559.728C707.288 420.575 804.267 379.04 946.515 339.664" stroke="url(#paint40_linear_1_408)" stroke-width="0.3702" stroke-miterlimit="10"/>
<path d="M738.58 1203.42C738.58 1203.42 469.096 1152.33 611.893 952.852C621.583 939.161 631.734 925.536 642.004 911.738C736.791 782.298 655.051 691.089 682.771 563.465C712 429.226 803.287 385.257 949.261 344.9" stroke="url(#paint41_linear_1_408)" stroke-width="0.3702" stroke-miterlimit="10"/>
<path d="M740.563 1199.43C740.563 1199.43 475.041 1150.34 615.5 952.043C624.951 938.697 634.812 925.125 645.082 911.327C739.552 783.455 663.572 690.893 689.599 567.201C716.593 438.048 802.426 391.301 952.006 350.135" stroke="url(#paint42_linear_1_408)" stroke-width="0.3702" stroke-miterlimit="10"/>
<path d="M742.427 1195.62C742.427 1195.62 480.577 1148.58 619.279 951.355C628.611 938.181 638.234 924.954 648.504 911.156C742.656 784.852 672.726 690.885 696.718 570.884C721.477 446.819 801.908 397.584 955.042 355.318" stroke="url(#paint43_linear_1_408)" stroke-width="0.3702" stroke-miterlimit="10"/>
<path d="M744.41 1191.64C744.41 1191.64 486.522 1146.59 623.056 950.665C631.979 937.717 641.773 924.61 651.925 910.985C745.64 786.42 681.589 690.928 703.716 574.739C726.532 455.708 801.098 403.92 957.668 360.725" stroke="url(#paint44_linear_1_408)" stroke-width="0.3702" stroke-miterlimit="10"/>
<path d="M746.274 1187.82C746.274 1187.82 490.46 1143.45 626.835 949.977C635.81 937.321 645.023 924.32 655.346 910.814C748.743 787.817 690.625 691.093 710.888 578.715C731.468 464.771 800.633 410.496 960.757 366.201" stroke="url(#paint45_linear_1_408)" stroke-width="0.3702" stroke-miterlimit="10"/>
<path d="M748.258 1183.84C748.258 1183.84 496.459 1141.76 630.442 949.168C639.008 936.738 648.392 923.856 658.478 910.696C751.557 789.266 699.318 691.017 717.597 582.624C736.062 473.594 799.534 416.886 963.383 371.609" stroke="url(#paint46_linear_1_408)" stroke-width="0.3702" stroke-miterlimit="10"/>
<path d="M750.122 1180.03C750.122 1180.03 503.83 1141.02 634.22 948.478C642.495 936.101 651.642 923.564 661.899 910.524C754.66 790.661 708.353 691.179 724.887 586.426C741.288 482.602 799.307 423.115 966.591 376.909" stroke="url(#paint47_linear_1_408)" stroke-width="0.3702" stroke-miterlimit="10"/>
<path d="M751.987 1176.22C751.987 1176.22 509.656 1139.2 637.88 947.963C645.917 935.931 655.064 923.394 665.201 910.526C757.645 792.231 717.217 691.224 731.767 590.455C745.934 491.718 798.379 429.625 969.098 382.491" stroke="url(#paint48_linear_1_408)" stroke-width="0.3702" stroke-miterlimit="10"/>
<path d="M753.97 1172.23C753.97 1172.23 515.826 1137.62 641.777 947.1C649.695 935.241 658.604 923.05 668.742 910.182C760.868 793.455 726.371 691.215 739.057 594.257C751.28 500.555 797.861 435.907 972.306 387.792" stroke="url(#paint49_linear_1_408)" stroke-width="0.3702" stroke-miterlimit="10"/>
<path d="M755.834 1168.42C755.834 1168.42 521.481 1135.68 645.436 946.583C653.116 935.069 661.854 922.759 672.044 910.183C763.853 795.023 735.578 691.498 745.938 598.285C756.216 509.616 797.105 442.536 975.104 393.32" stroke="url(#paint50_linear_1_408)" stroke-width="0.3702" stroke-miterlimit="10"/>
<path d="M757.818 1164.44C757.818 1164.44 498.353 1129.79 675.413 909.721C852.473 689.653 602.642 502 977.968 398.383" stroke="url(#paint51_linear_1_408)" stroke-width="0.3702" stroke-miterlimit="10"/>
</g>
<defs>
<linearGradient id="paint0_linear_1_408" x1="81.02" y1="992.683" x2="732.851" y2="57.362" gradientUnits="userSpaceOnUse">
<stop stop-color="#B900FA"/>
<stop offset="1" stop-color="#7926FF"/>
</linearGradient>
<linearGradient id="paint1_linear_1_408" x1="89.3201" y1="993.262" x2="737.151" y2="63.6811" gradientUnits="userSpaceOnUse">
<stop stop-color="#B900FA"/>
<stop offset="1" stop-color="#7926FF"/>
</linearGradient>
<linearGradient id="paint2_linear_1_408" x1="97.5836" y1="993.584" x2="741.306" y2="69.8985" gradientUnits="userSpaceOnUse">
<stop stop-color="#B900FA"/>
<stop offset="1" stop-color="#7926FF"/>
</linearGradient>
<linearGradient id="paint3_linear_1_408" x1="105.84" y1="994.219" x2="745.603" y2="76.2153" gradientUnits="userSpaceOnUse">
<stop stop-color="#B900FA"/>
<stop offset="1" stop-color="#7926FF"/>
</linearGradient>
<linearGradient id="paint4_linear_1_408" x1="113.942" y1="994.429" x2="749.596" y2="82.3203" gradientUnits="userSpaceOnUse">
<stop stop-color="#B900FA"/>
<stop offset="1" stop-color="#7926FF"/>
</linearGradient>
<linearGradient id="paint5_linear_1_408" x1="122.243" y1="995.011" x2="753.898" y2="88.6411" gradientUnits="userSpaceOnUse">
<stop stop-color="#B900FA"/>
<stop offset="1" stop-color="#7926FF"/>
</linearGradient>
<linearGradient id="paint6_linear_1_408" x1="130.301" y1="995.276" x2="757.887" y2="94.7434" gradientUnits="userSpaceOnUse">
<stop stop-color="#B900FA"/>
<stop offset="1" stop-color="#7926FF"/>
</linearGradient>
<linearGradient id="paint7_linear_1_408" x1="138.448" y1="995.749" x2="762.035" y2="100.956" gradientUnits="userSpaceOnUse">
<stop stop-color="#B900FA"/>
<stop offset="1" stop-color="#7926FF"/>
</linearGradient>
<linearGradient id="paint8_linear_1_408" x1="146.844" y1="996.165" x2="766.443" y2="107.094" gradientUnits="userSpaceOnUse">
<stop stop-color="#B900FA"/>
<stop offset="1" stop-color="#7926FF"/>
</linearGradient>
<linearGradient id="paint9_linear_1_408" x1="154.835" y1="996.532" x2="770.315" y2="113.371" gradientUnits="userSpaceOnUse">
<stop stop-color="#B900FA"/>
<stop offset="1" stop-color="#7926FF"/>
</linearGradient>
<linearGradient id="paint10_linear_1_408" x1="163.185" y1="997.003" x2="774.598" y2="119.678" gradientUnits="userSpaceOnUse">
<stop stop-color="#B900FA"/>
<stop offset="1" stop-color="#7926FF"/>
</linearGradient>
<linearGradient id="paint11_linear_1_408" x1="171.315" y1="997.467" x2="778.729" y2="125.879" gradientUnits="userSpaceOnUse">
<stop stop-color="#B900FA"/>
<stop offset="1" stop-color="#7926FF"/>
</linearGradient>
<linearGradient id="paint12_linear_1_408" x1="179.609" y1="997.814" x2="783.036" y2="131.948" gradientUnits="userSpaceOnUse">
<stop stop-color="#B900FA"/>
<stop offset="1" stop-color="#7926FF"/>
</linearGradient>
<linearGradient id="paint13_linear_1_408" x1="187.642" y1="998.297" x2="786.992" y2="138.282" gradientUnits="userSpaceOnUse">
<stop stop-color="#B900FA"/>
<stop offset="1" stop-color="#7926FF"/>
</linearGradient>
<linearGradient id="paint14_linear_1_408" x1="195.879" y1="998.604" x2="791.121" y2="144.481" gradientUnits="userSpaceOnUse">
<stop stop-color="#B900FA"/>
<stop offset="1" stop-color="#7926FF"/>
</linearGradient>
<linearGradient id="paint15_linear_1_408" x1="203.983" y1="999.075" x2="795.119" y2="150.846" gradientUnits="userSpaceOnUse">
<stop stop-color="#B900FA"/>
<stop offset="1" stop-color="#7926FF"/>
</linearGradient>
<linearGradient id="paint16_linear_1_408" x1="212.257" y1="999.64" x2="799.515" y2="156.976" gradientUnits="userSpaceOnUse">
<stop stop-color="#B900FA"/>
<stop offset="1" stop-color="#7926FF"/>
</linearGradient>
<linearGradient id="paint17_linear_1_408" x1="220.433" y1="999.994" x2="803.626" y2="163.163" gradientUnits="userSpaceOnUse">
<stop stop-color="#B900FA"/>
<stop offset="1" stop-color="#7926FF"/>
</linearGradient>
<linearGradient id="paint18_linear_1_408" x1="228.335" y1="1000.3" x2="807.411" y2="169.377" gradientUnits="userSpaceOnUse">
<stop stop-color="#B900FA"/>
<stop offset="1" stop-color="#7926FF"/>
</linearGradient>
<linearGradient id="paint19_linear_1_408" x1="236.552" y1="1000.6" x2="811.522" y2="175.566" gradientUnits="userSpaceOnUse">
<stop stop-color="#B900FA"/>
<stop offset="1" stop-color="#7926FF"/>
</linearGradient>
<linearGradient id="paint20_linear_1_408" x1="244.608" y1="1001.1" x2="815.741" y2="181.573" gradientUnits="userSpaceOnUse">
<stop stop-color="#B900FA"/>
<stop offset="1" stop-color="#7926FF"/>
</linearGradient>
<linearGradient id="paint21_linear_1_408" x1="252.797" y1="1001.38" x2="819.704" y2="187.912" gradientUnits="userSpaceOnUse">
<stop stop-color="#B900FA"/>
<stop offset="1" stop-color="#7926FF"/>
</linearGradient>
<linearGradient id="paint22_linear_1_408" x1="260.882" y1="1001.81" x2="823.673" y2="194.256" gradientUnits="userSpaceOnUse">
<stop stop-color="#B900FA"/>
<stop offset="1" stop-color="#7926FF"/>
</linearGradient>
<linearGradient id="paint23_linear_1_408" x1="269.027" y1="1002.15" x2="827.874" y2="200.25" gradientUnits="userSpaceOnUse">
<stop stop-color="#B900FA"/>
<stop offset="1" stop-color="#7926FF"/>
</linearGradient>
<linearGradient id="paint24_linear_1_408" x1="277.112" y1="1002.58" x2="831.963" y2="206.421" gradientUnits="userSpaceOnUse">
<stop stop-color="#B900FA"/>
<stop offset="1" stop-color="#7926FF"/>
</linearGradient>
<linearGradient id="paint25_linear_1_408" x1="285.437" y1="1002.96" x2="836.183" y2="212.685" gradientUnits="userSpaceOnUse">
<stop stop-color="#B900FA"/>
<stop offset="1" stop-color="#7926FF"/>
</linearGradient>
<linearGradient id="paint26_linear_1_408" x1="293.412" y1="1003.41" x2="840.083" y2="218.98" gradientUnits="userSpaceOnUse">
<stop stop-color="#B900FA"/>
<stop offset="1" stop-color="#7926FF"/>
</linearGradient>
<linearGradient id="paint27_linear_1_408" x1="301.72" y1="1003.77" x2="844.407" y2="225.06" gradientUnits="userSpaceOnUse">
<stop stop-color="#B900FA"/>
<stop offset="1" stop-color="#7926FF"/>
</linearGradient>
<linearGradient id="paint28_linear_1_408" x1="309.624" y1="1004.08" x2="848.314" y2="231.106" gradientUnits="userSpaceOnUse">
<stop stop-color="#B900FA"/>
<stop offset="1" stop-color="#7926FF"/>
</linearGradient>
<linearGradient id="paint29_linear_1_408" x1="317.872" y1="1004.49" x2="852.502" y2="237.346" gradientUnits="userSpaceOnUse">
<stop stop-color="#B900FA"/>
<stop offset="1" stop-color="#7926FF"/>
</linearGradient>
<linearGradient id="paint30_linear_1_408" x1="325.743" y1="1004.78" x2="856.376" y2="243.368" gradientUnits="userSpaceOnUse">
<stop stop-color="#B900FA"/>
<stop offset="1" stop-color="#7926FF"/>
</linearGradient>
<linearGradient id="paint31_linear_1_408" x1="333.874" y1="1005.02" x2="860.404" y2="249.498" gradientUnits="userSpaceOnUse">
<stop stop-color="#B900FA"/>
<stop offset="1" stop-color="#7926FF"/>
</linearGradient>
<linearGradient id="paint32_linear_1_408" x1="341.83" y1="1005.46" x2="864.407" y2="255.609" gradientUnits="userSpaceOnUse">
<stop stop-color="#B900FA"/>
<stop offset="1" stop-color="#7926FF"/>
</linearGradient>
<linearGradient id="paint33_linear_1_408" x1="349.817" y1="1005.86" x2="868.292" y2="261.894" gradientUnits="userSpaceOnUse">
<stop stop-color="#B900FA"/>
<stop offset="1" stop-color="#7926FF"/>
</linearGradient>
<linearGradient id="paint34_linear_1_408" x1="358.014" y1="1006.21" x2="872.536" y2="267.919" gradientUnits="userSpaceOnUse">
<stop stop-color="#B900FA"/>
<stop offset="1" stop-color="#7926FF"/>
</linearGradient>
<linearGradient id="paint35_linear_1_408" x1="365.952" y1="1006.58" x2="876.373" y2="274.17" gradientUnits="userSpaceOnUse">
<stop stop-color="#B900FA"/>
<stop offset="1" stop-color="#7926FF"/>
</linearGradient>
<linearGradient id="paint36_linear_1_408" x1="374.16" y1="1006.88" x2="880.478" y2="280.354" gradientUnits="userSpaceOnUse">
<stop stop-color="#B900FA"/>
<stop offset="1" stop-color="#7926FF"/>
</linearGradient>
<linearGradient id="paint37_linear_1_408" x1="381.878" y1="1007.15" x2="884.245" y2="286.3" gradientUnits="userSpaceOnUse">
<stop stop-color="#B900FA"/>
<stop offset="1" stop-color="#7926FF"/>
</linearGradient>
<linearGradient id="paint38_linear_1_408" x1="390.044" y1="1007.43" x2="888.311" y2="292.457" gradientUnits="userSpaceOnUse">
<stop stop-color="#B900FA"/>
<stop offset="1" stop-color="#7926FF"/>
</linearGradient>
<linearGradient id="paint39_linear_1_408" x1="397.908" y1="1007.71" x2="892.3" y2="298.304" gradientUnits="userSpaceOnUse">
<stop stop-color="#B900FA"/>
<stop offset="1" stop-color="#7926FF"/>
</linearGradient>
<linearGradient id="paint40_linear_1_408" x1="406.042" y1="1008.06" x2="896.257" y2="304.639" gradientUnits="userSpaceOnUse">
<stop stop-color="#B900FA"/>
<stop offset="1" stop-color="#7926FF"/>
</linearGradient>
<linearGradient id="paint41_linear_1_408" x1="413.675" y1="1008.18" x2="899.897" y2="310.498" gradientUnits="userSpaceOnUse">
<stop stop-color="#B900FA"/>
<stop offset="1" stop-color="#7926FF"/>
</linearGradient>
<linearGradient id="paint42_linear_1_408" x1="421.399" y1="1008.15" x2="903.522" y2="316.346" gradientUnits="userSpaceOnUse">
<stop stop-color="#B900FA"/>
<stop offset="1" stop-color="#7926FF"/>
</linearGradient>
<linearGradient id="paint43_linear_1_408" x1="429.115" y1="1008.43" x2="907.407" y2="322.121" gradientUnits="userSpaceOnUse">
<stop stop-color="#B900FA"/>
<stop offset="1" stop-color="#7926FF"/>
</linearGradient>
<linearGradient id="paint44_linear_1_408" x1="436.971" y1="1008.49" x2="911.044" y2="328.233" gradientUnits="userSpaceOnUse">
<stop stop-color="#B900FA"/>
<stop offset="1" stop-color="#7926FF"/>
</linearGradient>
<linearGradient id="paint45_linear_1_408" x1="444.794" y1="1008.75" x2="914.876" y2="334.226" gradientUnits="userSpaceOnUse">
<stop stop-color="#B900FA"/>
<stop offset="1" stop-color="#7926FF"/>
</linearGradient>
<linearGradient id="paint46_linear_1_408" x1="452.298" y1="1008.66" x2="918.205" y2="340.124" gradientUnits="userSpaceOnUse">
<stop stop-color="#B900FA"/>
<stop offset="1" stop-color="#7926FF"/>
</linearGradient>
<linearGradient id="paint47_linear_1_408" x1="460.087" y1="1008.9" x2="922.123" y2="345.919" gradientUnits="userSpaceOnUse">
<stop stop-color="#B900FA"/>
<stop offset="1" stop-color="#7926FF"/>
</linearGradient>
<linearGradient id="paint48_linear_1_408" x1="467.546" y1="1008.94" x2="925.364" y2="352.012" gradientUnits="userSpaceOnUse">
<stop stop-color="#B900FA"/>
<stop offset="1" stop-color="#7926FF"/>
</linearGradient>
<linearGradient id="paint49_linear_1_408" x1="475.254" y1="1008.97" x2="929.125" y2="357.699" gradientUnits="userSpaceOnUse">
<stop stop-color="#B900FA"/>
<stop offset="1" stop-color="#7926FF"/>
</linearGradient>
<linearGradient id="paint50_linear_1_408" x1="482.696" y1="1009" x2="932.47" y2="363.608" gradientUnits="userSpaceOnUse">
<stop stop-color="#B900FA"/>
<stop offset="1" stop-color="#7926FF"/>
</linearGradient>
<linearGradient id="paint51_linear_1_408" x1="490.028" y1="1008.72" x2="935.835" y2="369.021" gradientUnits="userSpaceOnUse">
<stop stop-color="#B900FA"/>
<stop offset="1" stop-color="#7926FF"/>
</linearGradient>
</defs>
</svg>
