<svg width="613" height="1387" viewBox="0 0 613 1387" fill="none" xmlns="http://www.w3.org/2000/svg">
<g opacity="0.4">
<path d="M-47.5198 1363.74C-47.5198 1363.74 375.135 1234.02 153.768 982.473C-67.5987 730.928 329.907 720.701 218.773 406.389C98.3018 65.6192 -217.887 125.998 -217.887 125.998" stroke="url(#paint0_linear_1_355)" stroke-width="0.3702" stroke-miterlimit="10"/>
<path d="M-49.3839 1359.93C-49.3839 1359.93 369.309 1232.2 149.99 981.784C130.297 959.475 115.678 938.997 104.969 920.138C-3.45283 728.135 310.977 692.493 211.602 410.365C93.3657 74.6816 -217.369 132.281 -220.976 131.472" stroke="url(#paint1_linear_1_355)" stroke-width="0.3702" stroke-miterlimit="10"/>
<path d="M-51.3676 1355.94C-51.3676 1355.94 363.535 1230.09 146.211 981.095C126.928 959.012 112.256 938.826 101.547 919.967C-6.55706 729.532 302.113 692.537 204.602 414.22C88.4815 83.4516 -216.732 138.737 -223.721 136.708" stroke="url(#paint2_linear_1_355)" stroke-width="0.3702" stroke-miterlimit="10"/>
<path d="M-53.2314 1352.13C-53.2314 1352.13 358 1228.33 142.434 980.406C123.269 958.495 108.888 938.363 98.1263 919.796C-9.66014 730.928 293.25 692.581 197.432 418.195C83.5459 92.5135 -216.095 145.193 -226.809 142.182" stroke="url(#paint3_linear_1_355)" stroke-width="0.3702" stroke-miterlimit="10"/>
<path d="M-55.2148 1348.14C-55.2148 1348.14 352.226 1226.22 138.827 979.597C120.072 957.912 105.638 938.072 94.8764 919.505C-12.5922 732.204 284.558 692.505 190.485 421.759C78.8339 101.164 -215.234 151.237 -229.555 147.417" stroke="url(#paint4_linear_1_355)" stroke-width="0.3702" stroke-miterlimit="10"/>
<path d="M-57.0789 1344.33C-57.0789 1344.33 346.571 1224.28 135.049 978.908C116.413 957.396 102.098 937.728 91.4553 919.334C-15.6956 733.601 275.575 692.377 183.314 425.735C73.8977 110.227 -214.768 157.813 -232.643 152.893" stroke="url(#paint5_linear_1_355)" stroke-width="0.3702" stroke-miterlimit="10"/>
<path d="M-59.0625 1340.35C-59.0625 1340.35 340.916 1222.34 131.27 978.219C112.872 957.052 98.8476 937.438 88.2052 919.044C-18.4563 734.758 266.711 692.421 176.486 429.471C69.1854 118.877 -213.907 163.857 -235.217 158.008" stroke="url(#paint6_linear_1_355)" stroke-width="0.3702" stroke-miterlimit="10"/>
<path d="M-60.9267 1336.54C-60.9267 1336.54 335.777 1220.05 127.492 977.53C109.385 956.416 95.3073 937.093 84.7839 918.872C-21.5599 736.154 257.848 692.465 169.487 433.326C64.421 127.819 -213.27 170.312 -238.134 163.363" stroke="url(#paint7_linear_1_355)" stroke-width="0.3702" stroke-miterlimit="10"/>
<path d="M-62.9106 1332.55C-62.9106 1332.55 330.174 1217.82 123.713 976.841C105.844 956.072 92.057 936.803 81.362 918.701C-24.6641 737.55 248.864 692.336 162.196 437.129C59.3651 136.709 -212.752 176.596 -241.342 168.665" stroke="url(#paint8_linear_1_355)" stroke-width="0.3702" stroke-miterlimit="10"/>
<path d="M-64.7744 1328.74C-64.7744 1328.74 324.52 1215.88 120.107 976.032C102.528 955.317 88.6888 936.34 78.1127 918.411C-27.5956 738.827 240.173 692.261 155.369 440.865C54.7726 145.532 -211.943 182.932 -243.968 174.073" stroke="url(#paint9_linear_1_355)" stroke-width="0.3702" stroke-miterlimit="10"/>
<path d="M-66.7579 1324.76C-66.7579 1324.76 318.865 1213.94 116.328 975.343C98.9878 954.973 85.2673 936.168 74.6912 918.239C-30.6993 740.223 231.309 692.304 148.198 444.84C49.7174 154.422 -211.425 189.215 -246.885 179.428" stroke="url(#paint10_linear_1_355)" stroke-width="0.3702" stroke-miterlimit="10"/>
<path d="M-68.6222 1320.94C-68.6222 1320.94 313.382 1211.89 112.55 974.654C95.5 954.337 81.8985 935.705 71.2697 918.068C-33.684 741.793 222.445 692.349 141.198 448.696C44.9525 163.365 -210.616 195.552 -249.802 184.783" stroke="url(#paint11_linear_1_355)" stroke-width="0.3702" stroke-miterlimit="10"/>
<path d="M-70.6053 1316.96C-70.6053 1316.96 307.609 1209.78 108.772 973.965C91.9599 953.993 78.4774 935.534 67.8486 917.897C-36.9064 743.016 213.925 692.153 133.909 452.499C40.36 172.188 -210.27 201.955 -253.009 190.085" stroke="url(#paint12_linear_1_355)" stroke-width="0.3702" stroke-miterlimit="10"/>
<path d="M-72.4695 1313.15C-72.4695 1313.15 302.073 1208.01 104.994 973.277C88.3006 953.477 74.937 935.191 64.4271 917.726C-40.0101 744.413 205.061 692.197 126.909 456.355C35.6479 180.838 -209.461 208.291 -255.807 195.613" stroke="url(#paint13_linear_1_355)" stroke-width="0.3702" stroke-miterlimit="10"/>
<path d="M-74.4535 1309.16C-74.4535 1309.16 296.299 1205.9 101.386 972.467C85.1028 952.894 71.8583 934.78 61.1768 917.435C-42.8237 745.862 196.249 691.949 119.909 460.21C30.8827 189.78 -208.825 214.747 -258.553 200.848" stroke="url(#paint14_linear_1_355)" stroke-width="0.3702" stroke-miterlimit="10"/>
<path d="M-76.3174 1305.35C-76.3174 1305.35 290.816 1203.85 97.7275 971.951C81.563 952.55 68.4374 934.609 57.8748 917.437C-45.8079 747.431 187.505 692.165 113.029 464.239C26.2376 198.896 -208.015 221.083 -261.35 206.376" stroke="url(#paint15_linear_1_355)" stroke-width="0.3702" stroke-miterlimit="10"/>
<path d="M-78.1815 1301.54C-78.1815 1301.54 285.162 1201.91 93.9493 971.262C78.0227 952.206 65.1877 934.318 54.4535 917.266C-48.9114 748.827 178.641 692.209 105.739 468.041C21.1824 207.785 -207.669 227.486 -264.558 211.677" stroke="url(#paint16_linear_1_355)" stroke-width="0.3702" stroke-miterlimit="10"/>
<path d="M-80.1647 1297.56C-80.1647 1297.56 279.507 1199.97 90.1711 970.573C74.5352 951.57 61.6475 933.974 51.0323 917.095C-52.015 750.224 169.778 692.253 98.7398 471.897C16.4179 216.728 -206.86 233.823 -267.474 217.033" stroke="url(#paint17_linear_1_355)" stroke-width="0.3702" stroke-miterlimit="10"/>
<path d="M-82.0294 1293.74C-82.0294 1293.74 273.852 1198.04 86.5642 969.764C71.1662 951.106 58.3975 933.683 47.954 916.684C-54.6038 751.26 161.138 691.885 91.9117 475.633C11.9963 225.431 -205.88 240.038 -270.101 222.44" stroke="url(#paint18_linear_1_355)" stroke-width="0.3702" stroke-miterlimit="10"/>
<path d="M-84.0121 1289.76C-84.0121 1289.76 268.251 1195.81 82.7864 969.075C67.798 950.643 55.0292 933.22 44.533 916.513C-58.0504 752.896 152.275 691.929 84.9129 479.489C7.11322 234.201 -205.361 246.322 -272.846 227.676" stroke="url(#paint19_linear_1_355)" stroke-width="0.3702" stroke-miterlimit="10"/>
<path d="M-85.8771 1285.95C-85.8771 1285.95 262.714 1194.04 79.0074 968.387C64.138 950.128 51.6072 933.049 41.111 916.343C-61.1547 754.293 143.41 691.974 77.7939 483.173C2.229 242.972 -204.672 252.486 -275.882 232.859" stroke="url(#paint20_linear_1_355)" stroke-width="0.3702" stroke-miterlimit="10"/>
<path d="M-87.6887 1281.84C-87.6887 1281.84 257.112 1191.81 75.4008 967.578C60.7693 949.664 48.2385 932.586 37.9801 916.224C-63.9678 755.742 134.837 692.07 70.9134 487.201C-2.41668 252.087 -203.916 259.115 -278.68 238.386" stroke="url(#paint21_linear_1_355)" stroke-width="0.3702" stroke-miterlimit="10"/>
<path d="M-89.5532 1278.03C-89.5532 1278.03 251.458 1189.88 71.6223 966.889C57.2815 949.028 44.9887 932.295 34.5587 916.053C-67.0715 757.139 125.855 691.942 63.9139 491.057C-7.18135 261.03 -203.107 265.451 -281.478 243.914" stroke="url(#paint22_linear_1_355)" stroke-width="0.3702" stroke-miterlimit="10"/>
<path d="M-91.5361 1274.05C-91.5361 1274.05 245.803 1187.94 68.0161 966.08C53.9132 948.564 41.6203 931.831 31.3092 915.762C-70.0031 758.415 117.163 691.866 56.7958 494.739C-12.0646 269.799 -202.417 271.614 -284.342 248.976" stroke="url(#paint23_linear_1_355)" stroke-width="0.3702" stroke-miterlimit="10"/>
<path d="M-93.4007 1270.24C-93.4007 1270.24 240.148 1186 64.2374 965.39C50.4251 947.928 38.1986 931.66 27.8875 915.591C-73.1071 759.811 108.299 691.909 49.7961 498.595C-16.9486 278.569 -201.9 277.897 -287.259 254.331" stroke="url(#paint24_linear_1_355)" stroke-width="0.3702" stroke-miterlimit="10"/>
<path d="M-95.3842 1266.25C-95.3842 1266.25 234.374 1183.89 60.4589 964.702C46.8846 947.584 34.8296 931.197 24.4659 915.42C-76.211 761.207 99.4347 691.954 42.6248 502.571C-21.8851 287.631 -201.263 284.354 -290.348 259.806" stroke="url(#paint25_linear_1_355)" stroke-width="0.3702" stroke-miterlimit="10"/>
<path d="M-97.2485 1262.44C-97.2485 1262.44 228.839 1182.13 56.6806 964.013C43.2252 947.068 31.4083 931.026 21.0445 915.249C-79.3146 762.604 90.4519 691.825 35.6253 506.426C-26.4781 296.455 -200.626 290.81 -293.146 265.333" stroke="url(#paint26_linear_1_355)" stroke-width="0.3702" stroke-miterlimit="10"/>
<path d="M-99.2321 1258.45C-99.2321 1258.45 223.065 1180.02 52.902 963.323C39.8562 946.604 28.0393 930.562 17.6228 915.077C-82.4185 764 81.5879 691.869 28.335 510.229C-31.5336 305.344 -200.108 297.093 -296.182 270.515" stroke="url(#paint27_linear_1_355)" stroke-width="0.3702" stroke-miterlimit="10"/>
<path d="M-101.096 1254.64C-101.096 1254.64 217.411 1178.08 49.2959 962.515C36.369 945.969 24.79 930.272 14.3736 914.787C-85.35 765.277 72.8964 691.794 21.5078 513.965C-36.2449 313.995 -199.418 303.257 -298.927 275.751" stroke="url(#paint28_linear_1_355)" stroke-width="0.3702" stroke-miterlimit="10"/>
<path d="M-103.079 1250.66C-103.079 1250.66 211.756 1176.15 45.5176 961.826C32.8288 945.625 21.2497 929.928 10.9523 914.615C-88.4536 766.673 63.9137 691.665 14.3367 517.94C-41.1813 323.057 -198.781 309.712 -302.015 281.225" stroke="url(#paint29_linear_1_355)" stroke-width="0.3702" stroke-miterlimit="10"/>
<path d="M-104.943 1246.85C-104.943 1246.85 206.101 1174.21 41.7394 961.137C29.3412 944.988 18 929.637 7.70254 914.325C-91.0949 768.003 55.2216 691.589 7.50896 521.676C-45.7742 331.88 -197.8 315.929 -304.76 286.461" stroke="url(#paint30_linear_1_355)" stroke-width="0.3702" stroke-miterlimit="10"/>
<path d="M-106.927 1242.86C-106.927 1242.86 200.328 1172.1 37.9609 960.448C25.8006 944.645 14.4597 929.293 4.28115 914.154C-94.1985 769.399 46.3578 691.633 0.3905 525.36C-50.6578 340.65 -197.282 322.213 -307.506 291.696" stroke="url(#paint31_linear_1_355)" stroke-width="0.3702" stroke-miterlimit="10"/>
<path d="M-108.792 1239.05C-108.792 1239.05 194.791 1170.34 34.3538 959.639C22.3124 944.009 11.2093 929.003 1.03076 913.863C-96.4445 770.197 37.6652 691.558 -6.60944 529.216C-55.423 349.593 -196.474 328.549 -310.423 297.051" stroke="url(#paint32_linear_1_355)" stroke-width="0.3702" stroke-miterlimit="10"/>
<path d="M-110.656 1235.24C-110.656 1235.24 189.137 1168.4 30.6946 959.123C19.0629 943.718 7.95992 928.712 -2.2713 913.864C-99.4288 771.766 28.8018 691.601 -13.4896 533.244C-60.1873 358.535 -195.837 335.005 -313.221 302.579" stroke="url(#paint33_linear_1_355)" stroke-width="0.3702" stroke-miterlimit="10"/>
<path d="M-112.639 1231.25C-112.639 1231.25 183.482 1166.46 26.7974 958.261C15.2847 943.029 4.41941 928.368 -5.81182 913.521C-103.338 773.469 19.6473 691.593 -20.7797 537.047C-65.2426 367.425 -195.319 341.288 -316.428 307.881" stroke="url(#paint34_linear_1_355)" stroke-width="0.3702" stroke-miterlimit="10"/>
<path d="M-114.503 1227.44C-114.503 1227.44 177.828 1164.52 23.1384 957.744C12.0352 942.738 1.17003 928.077 -9.1139 913.522C-106.323 775.037 10.9028 691.809 -27.7788 540.902C-70.0069 376.367 -194.509 347.624 -319.226 313.408" stroke="url(#paint35_linear_1_355)" stroke-width="0.3702" stroke-miterlimit="10"/>
<path d="M-116.487 1223.46C-116.487 1223.46 172.054 1162.42 19.3599 957.056C8.37569 942.222 -2.25159 927.907 -12.5355 913.352C-109.426 776.434 2.03884 691.853 -34.9501 544.878C-74.9435 385.43 -194.044 354.2 -322.143 318.764" stroke="url(#paint36_linear_1_355)" stroke-width="0.3702" stroke-miterlimit="10"/>
<path d="M-118.351 1219.65C-118.351 1219.65 166.347 1160.77 15.7534 956.247C5.00718 941.758 -5.62012 927.443 -15.7851 913.06C-112.358 777.71 -6.77202 691.604 -41.7777 548.613C-79.6552 394.08 -193.064 360.416 -324.888 323.998" stroke="url(#paint37_linear_1_355)" stroke-width="0.3702" stroke-miterlimit="10"/>
<path d="M-120.334 1215.66C-120.334 1215.66 160.573 1158.66 11.9749 955.558C1.51928 941.122 -8.87002 927.152 -19.2067 912.889C-115.29 778.987 -15.636 691.648 -48.949 552.589C-84.5917 403.142 -192.718 366.82 -327.977 329.473" stroke="url(#paint38_linear_1_355)" stroke-width="0.3702" stroke-miterlimit="10"/>
<path d="M-122.198 1211.85C-122.198 1211.85 154.919 1156.72 8.19685 954.869C-2.02082 940.779 -12.4101 926.809 -22.6278 912.719C-118.394 780.384 -24.6712 691.813 -56.0671 556.273C-89.475 411.913 -192.028 372.984 -331.013 334.656" stroke="url(#paint39_linear_1_355)" stroke-width="0.3702" stroke-miterlimit="10"/>
<path d="M-124.181 1207.87C-124.181 1207.87 149.092 1154.91 4.41873 954.18C-5.67997 940.262 -15.6596 926.517 -26.0489 912.547C-121.325 781.66 -33.6536 691.683 -63.2379 560.247C-94.5827 421.094 -191.562 379.559 -333.81 340.183" stroke="url(#paint40_linear_1_355)" stroke-width="0.3702" stroke-miterlimit="10"/>
<path d="M-125.874 1203.94C-125.874 1203.94 143.609 1152.85 0.811646 953.371C-8.87745 939.68 -19.0289 926.055 -29.2992 912.257C-124.086 782.817 -42.3463 691.608 -70.0663 563.984C-99.2952 429.745 -190.582 385.776 -336.556 345.419" stroke="url(#paint41_linear_1_355)" stroke-width="0.3702" stroke-miterlimit="10"/>
<path d="M-127.858 1199.95C-127.858 1199.95 137.664 1150.86 -2.79497 952.562C-12.2461 939.216 -22.107 925.644 -32.3773 911.846C-126.847 783.974 -50.8667 691.412 -76.894 567.72C-103.888 438.568 -189.721 391.82 -339.301 350.654" stroke="url(#paint42_linear_1_355)" stroke-width="0.3702" stroke-miterlimit="10"/>
<path d="M-129.722 1196.14C-129.722 1196.14 132.128 1149.1 -6.57364 951.874C-15.9058 938.7 -25.5287 925.473 -35.799 911.675C-129.951 785.371 -60.0214 691.404 -84.0127 571.403C-108.772 447.338 -189.203 398.103 -342.337 355.837" stroke="url(#paint43_linear_1_355)" stroke-width="0.3702" stroke-miterlimit="10"/>
<path d="M-131.705 1192.15C-131.705 1192.15 126.183 1147.11 -10.3513 951.184C-19.2739 938.236 -29.0683 925.129 -39.2197 911.504C-132.935 786.939 -68.8844 691.447 -91.0114 575.258C-113.827 456.227 -188.393 404.439 -344.963 361.244" stroke="url(#paint44_linear_1_355)" stroke-width="0.3702" stroke-miterlimit="10"/>
<path d="M-133.569 1188.34C-133.569 1188.34 122.245 1143.97 -14.1296 950.496C-23.1049 937.84 -32.3181 924.839 -42.6411 911.333C-136.038 788.336 -77.9199 691.612 -98.1826 579.234C-118.763 465.29 -187.928 411.015 -348.052 366.72" stroke="url(#paint45_linear_1_355)" stroke-width="0.3702" stroke-miterlimit="10"/>
<path d="M-135.553 1184.36C-135.553 1184.36 116.246 1142.28 -17.7368 949.687C-26.3025 937.257 -35.6874 924.375 -45.7725 911.215C-138.852 789.785 -86.6125 691.536 -104.892 583.143C-123.356 474.113 -186.829 417.405 -350.678 372.128" stroke="url(#paint46_linear_1_355)" stroke-width="0.3702" stroke-miterlimit="10"/>
<path d="M-137.417 1180.55C-137.417 1180.55 108.875 1141.53 -21.5147 948.997C-29.7897 936.62 -38.9366 924.083 -49.1935 911.043C-141.955 791.18 -95.6475 691.698 -112.182 586.945C-128.583 483.121 -186.601 423.634 -353.885 377.428" stroke="url(#paint47_linear_1_355)" stroke-width="0.3702" stroke-miterlimit="10"/>
<path d="M-139.282 1176.73C-139.282 1176.73 103.049 1139.72 -25.1745 948.482C-33.2116 936.45 -42.3585 923.913 -52.4964 911.045C-144.94 792.75 -104.512 691.743 -119.062 590.974C-133.229 492.237 -185.674 430.144 -356.393 383.01" stroke="url(#paint48_linear_1_355)" stroke-width="0.3702" stroke-miterlimit="10"/>
<path d="M-141.265 1172.75C-141.265 1172.75 96.8791 1138.14 -29.0716 947.619C-36.9897 935.76 -45.8988 923.569 -56.0366 910.701C-148.163 793.974 -113.666 691.734 -126.352 594.776C-138.575 501.074 -185.156 436.426 -359.601 388.311" stroke="url(#paint49_linear_1_355)" stroke-width="0.3702" stroke-miterlimit="10"/>
<path d="M-143.129 1168.94C-143.129 1168.94 91.2244 1136.2 -32.731 947.103C-40.4112 935.588 -49.1486 923.278 -59.3391 910.702C-151.147 795.542 -122.873 692.017 -133.233 598.804C-143.511 510.136 -184.4 443.055 -362.398 393.839" stroke="url(#paint50_linear_1_355)" stroke-width="0.3702" stroke-miterlimit="10"/>
<path d="M-145.113 1164.95C-145.113 1164.95 114.352 1130.31 -62.7079 910.24C-239.768 690.172 10.0628 502.519 -365.263 398.902" stroke="url(#paint51_linear_1_355)" stroke-width="0.3702" stroke-miterlimit="10"/>
</g>
<defs>
<linearGradient id="paint0_linear_1_355" x1="531.685" y1="993.202" x2="-120.146" y2="57.8811" gradientUnits="userSpaceOnUse">
<stop stop-color="#B900FA"/>
<stop offset="1" stop-color="#7926FF"/>
</linearGradient>
<linearGradient id="paint1_linear_1_355" x1="523.385" y1="993.781" x2="-124.446" y2="64.2002" gradientUnits="userSpaceOnUse">
<stop stop-color="#B900FA"/>
<stop offset="1" stop-color="#7926FF"/>
</linearGradient>
<linearGradient id="paint2_linear_1_355" x1="515.121" y1="994.103" x2="-128.6" y2="70.4176" gradientUnits="userSpaceOnUse">
<stop stop-color="#B900FA"/>
<stop offset="1" stop-color="#7926FF"/>
</linearGradient>
<linearGradient id="paint3_linear_1_355" x1="506.865" y1="994.738" x2="-132.898" y2="76.7343" gradientUnits="userSpaceOnUse">
<stop stop-color="#B900FA"/>
<stop offset="1" stop-color="#7926FF"/>
</linearGradient>
<linearGradient id="paint4_linear_1_355" x1="498.763" y1="994.948" x2="-136.891" y2="82.8393" gradientUnits="userSpaceOnUse">
<stop stop-color="#B900FA"/>
<stop offset="1" stop-color="#7926FF"/>
</linearGradient>
<linearGradient id="paint5_linear_1_355" x1="490.462" y1="995.53" x2="-141.193" y2="89.1601" gradientUnits="userSpaceOnUse">
<stop stop-color="#B900FA"/>
<stop offset="1" stop-color="#7926FF"/>
</linearGradient>
<linearGradient id="paint6_linear_1_355" x1="482.404" y1="995.795" x2="-145.182" y2="95.2624" gradientUnits="userSpaceOnUse">
<stop stop-color="#B900FA"/>
<stop offset="1" stop-color="#7926FF"/>
</linearGradient>
<linearGradient id="paint7_linear_1_355" x1="474.257" y1="996.269" x2="-149.33" y2="101.475" gradientUnits="userSpaceOnUse">
<stop stop-color="#B900FA"/>
<stop offset="1" stop-color="#7926FF"/>
</linearGradient>
<linearGradient id="paint8_linear_1_355" x1="465.861" y1="996.684" x2="-153.738" y2="107.613" gradientUnits="userSpaceOnUse">
<stop stop-color="#B900FA"/>
<stop offset="1" stop-color="#7926FF"/>
</linearGradient>
<linearGradient id="paint9_linear_1_355" x1="457.87" y1="997.051" x2="-157.61" y2="113.89" gradientUnits="userSpaceOnUse">
<stop stop-color="#B900FA"/>
<stop offset="1" stop-color="#7926FF"/>
</linearGradient>
<linearGradient id="paint10_linear_1_355" x1="449.52" y1="997.522" x2="-161.893" y2="120.197" gradientUnits="userSpaceOnUse">
<stop stop-color="#B900FA"/>
<stop offset="1" stop-color="#7926FF"/>
</linearGradient>
<linearGradient id="paint11_linear_1_355" x1="441.39" y1="997.986" x2="-166.024" y2="126.398" gradientUnits="userSpaceOnUse">
<stop stop-color="#B900FA"/>
<stop offset="1" stop-color="#7926FF"/>
</linearGradient>
<linearGradient id="paint12_linear_1_355" x1="433.096" y1="998.333" x2="-170.331" y2="132.467" gradientUnits="userSpaceOnUse">
<stop stop-color="#B900FA"/>
<stop offset="1" stop-color="#7926FF"/>
</linearGradient>
<linearGradient id="paint13_linear_1_355" x1="425.063" y1="998.816" x2="-174.286" y2="138.801" gradientUnits="userSpaceOnUse">
<stop stop-color="#B900FA"/>
<stop offset="1" stop-color="#7926FF"/>
</linearGradient>
<linearGradient id="paint14_linear_1_355" x1="416.826" y1="999.123" x2="-178.416" y2="145" gradientUnits="userSpaceOnUse">
<stop stop-color="#B900FA"/>
<stop offset="1" stop-color="#7926FF"/>
</linearGradient>
<linearGradient id="paint15_linear_1_355" x1="408.722" y1="999.594" x2="-182.414" y2="151.365" gradientUnits="userSpaceOnUse">
<stop stop-color="#B900FA"/>
<stop offset="1" stop-color="#7926FF"/>
</linearGradient>
<linearGradient id="paint16_linear_1_355" x1="400.448" y1="1000.16" x2="-186.81" y2="157.495" gradientUnits="userSpaceOnUse">
<stop stop-color="#B900FA"/>
<stop offset="1" stop-color="#7926FF"/>
</linearGradient>
<linearGradient id="paint17_linear_1_355" x1="392.272" y1="1000.51" x2="-190.921" y2="163.682" gradientUnits="userSpaceOnUse">
<stop stop-color="#B900FA"/>
<stop offset="1" stop-color="#7926FF"/>
</linearGradient>
<linearGradient id="paint18_linear_1_355" x1="384.37" y1="1000.82" x2="-194.705" y2="169.896" gradientUnits="userSpaceOnUse">
<stop stop-color="#B900FA"/>
<stop offset="1" stop-color="#7926FF"/>
</linearGradient>
<linearGradient id="paint19_linear_1_355" x1="376.153" y1="1001.12" x2="-198.817" y2="176.085" gradientUnits="userSpaceOnUse">
<stop stop-color="#B900FA"/>
<stop offset="1" stop-color="#7926FF"/>
</linearGradient>
<linearGradient id="paint20_linear_1_355" x1="368.097" y1="1001.62" x2="-203.036" y2="182.092" gradientUnits="userSpaceOnUse">
<stop stop-color="#B900FA"/>
<stop offset="1" stop-color="#7926FF"/>
</linearGradient>
<linearGradient id="paint21_linear_1_355" x1="359.908" y1="1001.89" x2="-206.999" y2="188.431" gradientUnits="userSpaceOnUse">
<stop stop-color="#B900FA"/>
<stop offset="1" stop-color="#7926FF"/>
</linearGradient>
<linearGradient id="paint22_linear_1_355" x1="351.823" y1="1002.33" x2="-210.968" y2="194.775" gradientUnits="userSpaceOnUse">
<stop stop-color="#B900FA"/>
<stop offset="1" stop-color="#7926FF"/>
</linearGradient>
<linearGradient id="paint23_linear_1_355" x1="343.678" y1="1002.67" x2="-215.169" y2="200.769" gradientUnits="userSpaceOnUse">
<stop stop-color="#B900FA"/>
<stop offset="1" stop-color="#7926FF"/>
</linearGradient>
<linearGradient id="paint24_linear_1_355" x1="335.593" y1="1003.1" x2="-219.258" y2="206.94" gradientUnits="userSpaceOnUse">
<stop stop-color="#B900FA"/>
<stop offset="1" stop-color="#7926FF"/>
</linearGradient>
<linearGradient id="paint25_linear_1_355" x1="327.268" y1="1003.48" x2="-223.478" y2="213.204" gradientUnits="userSpaceOnUse">
<stop stop-color="#B900FA"/>
<stop offset="1" stop-color="#7926FF"/>
</linearGradient>
<linearGradient id="paint26_linear_1_355" x1="319.293" y1="1003.93" x2="-227.378" y2="219.499" gradientUnits="userSpaceOnUse">
<stop stop-color="#B900FA"/>
<stop offset="1" stop-color="#7926FF"/>
</linearGradient>
<linearGradient id="paint27_linear_1_355" x1="310.985" y1="1004.29" x2="-231.702" y2="225.579" gradientUnits="userSpaceOnUse">
<stop stop-color="#B900FA"/>
<stop offset="1" stop-color="#7926FF"/>
</linearGradient>
<linearGradient id="paint28_linear_1_355" x1="303.081" y1="1004.6" x2="-235.609" y2="231.625" gradientUnits="userSpaceOnUse">
<stop stop-color="#B900FA"/>
<stop offset="1" stop-color="#7926FF"/>
</linearGradient>
<linearGradient id="paint29_linear_1_355" x1="294.833" y1="1005.01" x2="-239.796" y2="237.865" gradientUnits="userSpaceOnUse">
<stop stop-color="#B900FA"/>
<stop offset="1" stop-color="#7926FF"/>
</linearGradient>
<linearGradient id="paint30_linear_1_355" x1="286.962" y1="1005.3" x2="-243.671" y2="243.887" gradientUnits="userSpaceOnUse">
<stop stop-color="#B900FA"/>
<stop offset="1" stop-color="#7926FF"/>
</linearGradient>
<linearGradient id="paint31_linear_1_355" x1="278.831" y1="1005.54" x2="-247.699" y2="250.017" gradientUnits="userSpaceOnUse">
<stop stop-color="#B900FA"/>
<stop offset="1" stop-color="#7926FF"/>
</linearGradient>
<linearGradient id="paint32_linear_1_355" x1="270.875" y1="1005.98" x2="-251.702" y2="256.128" gradientUnits="userSpaceOnUse">
<stop stop-color="#B900FA"/>
<stop offset="1" stop-color="#7926FF"/>
</linearGradient>
<linearGradient id="paint33_linear_1_355" x1="262.888" y1="1006.38" x2="-255.587" y2="262.414" gradientUnits="userSpaceOnUse">
<stop stop-color="#B900FA"/>
<stop offset="1" stop-color="#7926FF"/>
</linearGradient>
<linearGradient id="paint34_linear_1_355" x1="254.691" y1="1006.73" x2="-259.831" y2="268.438" gradientUnits="userSpaceOnUse">
<stop stop-color="#B900FA"/>
<stop offset="1" stop-color="#7926FF"/>
</linearGradient>
<linearGradient id="paint35_linear_1_355" x1="246.753" y1="1007.1" x2="-263.668" y2="274.689" gradientUnits="userSpaceOnUse">
<stop stop-color="#B900FA"/>
<stop offset="1" stop-color="#7926FF"/>
</linearGradient>
<linearGradient id="paint36_linear_1_355" x1="238.546" y1="1007.4" x2="-267.773" y2="280.873" gradientUnits="userSpaceOnUse">
<stop stop-color="#B900FA"/>
<stop offset="1" stop-color="#7926FF"/>
</linearGradient>
<linearGradient id="paint37_linear_1_355" x1="230.828" y1="1007.67" x2="-271.54" y2="286.819" gradientUnits="userSpaceOnUse">
<stop stop-color="#B900FA"/>
<stop offset="1" stop-color="#7926FF"/>
</linearGradient>
<linearGradient id="paint38_linear_1_355" x1="222.661" y1="1007.94" x2="-275.606" y2="292.976" gradientUnits="userSpaceOnUse">
<stop stop-color="#B900FA"/>
<stop offset="1" stop-color="#7926FF"/>
</linearGradient>
<linearGradient id="paint39_linear_1_355" x1="214.798" y1="1008.23" x2="-279.595" y2="298.823" gradientUnits="userSpaceOnUse">
<stop stop-color="#B900FA"/>
<stop offset="1" stop-color="#7926FF"/>
</linearGradient>
<linearGradient id="paint40_linear_1_355" x1="206.663" y1="1008.57" x2="-283.552" y2="305.158" gradientUnits="userSpaceOnUse">
<stop stop-color="#B900FA"/>
<stop offset="1" stop-color="#7926FF"/>
</linearGradient>
<linearGradient id="paint41_linear_1_355" x1="199.03" y1="1008.7" x2="-287.192" y2="311.017" gradientUnits="userSpaceOnUse">
<stop stop-color="#B900FA"/>
<stop offset="1" stop-color="#7926FF"/>
</linearGradient>
<linearGradient id="paint42_linear_1_355" x1="191.306" y1="1008.67" x2="-290.817" y2="316.865" gradientUnits="userSpaceOnUse">
<stop stop-color="#B900FA"/>
<stop offset="1" stop-color="#7926FF"/>
</linearGradient>
<linearGradient id="paint43_linear_1_355" x1="183.59" y1="1008.95" x2="-294.702" y2="322.64" gradientUnits="userSpaceOnUse">
<stop stop-color="#B900FA"/>
<stop offset="1" stop-color="#7926FF"/>
</linearGradient>
<linearGradient id="paint44_linear_1_355" x1="175.734" y1="1009.01" x2="-298.339" y2="328.752" gradientUnits="userSpaceOnUse">
<stop stop-color="#B900FA"/>
<stop offset="1" stop-color="#7926FF"/>
</linearGradient>
<linearGradient id="paint45_linear_1_355" x1="167.911" y1="1009.27" x2="-302.171" y2="334.745" gradientUnits="userSpaceOnUse">
<stop stop-color="#B900FA"/>
<stop offset="1" stop-color="#7926FF"/>
</linearGradient>
<linearGradient id="paint46_linear_1_355" x1="160.407" y1="1009.18" x2="-305.5" y2="340.643" gradientUnits="userSpaceOnUse">
<stop stop-color="#B900FA"/>
<stop offset="1" stop-color="#7926FF"/>
</linearGradient>
<linearGradient id="paint47_linear_1_355" x1="152.618" y1="1009.42" x2="-309.418" y2="346.438" gradientUnits="userSpaceOnUse">
<stop stop-color="#B900FA"/>
<stop offset="1" stop-color="#7926FF"/>
</linearGradient>
<linearGradient id="paint48_linear_1_355" x1="145.159" y1="1009.46" x2="-312.659" y2="352.531" gradientUnits="userSpaceOnUse">
<stop stop-color="#B900FA"/>
<stop offset="1" stop-color="#7926FF"/>
</linearGradient>
<linearGradient id="paint49_linear_1_355" x1="137.451" y1="1009.48" x2="-316.42" y2="358.218" gradientUnits="userSpaceOnUse">
<stop stop-color="#B900FA"/>
<stop offset="1" stop-color="#7926FF"/>
</linearGradient>
<linearGradient id="paint50_linear_1_355" x1="130.009" y1="1009.51" x2="-319.765" y2="364.127" gradientUnits="userSpaceOnUse">
<stop stop-color="#B900FA"/>
<stop offset="1" stop-color="#7926FF"/>
</linearGradient>
<linearGradient id="paint51_linear_1_355" x1="122.677" y1="1009.23" x2="-323.13" y2="369.54" gradientUnits="userSpaceOnUse">
<stop stop-color="#B900FA"/>
<stop offset="1" stop-color="#7926FF"/>
</linearGradient>
</defs>
</svg>
