<svg width="552" height="1103" viewBox="0 0 552 1103" fill="none" xmlns="http://www.w3.org/2000/svg">
<g opacity="0.4">
<path d="M659.868 1362.97C659.868 1362.97 237.214 1233.25 458.58 981.706C679.947 730.161 282.442 719.934 393.575 405.622C514.047 64.8521 830.236 125.231 830.236 125.231" stroke="url(#paint0_linear_1_461)" stroke-width="0.3702" stroke-miterlimit="10"/>
<path d="M661.732 1359.16C661.732 1359.16 243.04 1231.43 462.359 981.017C482.051 958.708 496.671 938.23 507.38 919.371C615.801 727.368 301.371 691.726 400.746 409.597C518.983 73.9144 829.718 131.514 833.324 130.705" stroke="url(#paint1_linear_1_461)" stroke-width="0.3702" stroke-miterlimit="10"/>
<path d="M663.716 1355.17C663.716 1355.17 248.814 1229.32 466.137 980.328C485.421 958.245 500.093 938.059 510.801 919.2C618.906 728.765 310.235 691.77 407.746 413.453C523.867 82.6844 829.081 137.97 836.07 135.941" stroke="url(#paint2_linear_1_461)" stroke-width="0.3702" stroke-miterlimit="10"/>
<path d="M665.58 1351.36C665.58 1351.36 254.349 1227.56 469.915 979.639C489.079 957.728 503.461 937.595 514.222 919.029C622.009 730.161 319.099 691.814 414.917 417.428C528.803 91.7465 828.444 144.426 839.158 141.415" stroke="url(#paint3_linear_1_461)" stroke-width="0.3702" stroke-miterlimit="10"/>
<path d="M667.563 1347.38C667.563 1347.38 260.123 1225.45 473.522 978.83C492.277 957.145 506.711 937.305 517.472 918.738C624.941 731.437 327.791 691.738 421.863 420.992C533.515 100.397 827.582 150.47 841.903 146.65" stroke="url(#paint4_linear_1_461)" stroke-width="0.3702" stroke-miterlimit="10"/>
<path d="M669.428 1343.57C669.428 1343.57 265.777 1223.51 477.3 978.141C495.936 956.629 510.251 936.961 520.893 918.567C628.044 732.834 336.773 691.61 429.034 424.968C538.451 109.46 827.117 157.046 844.992 152.125" stroke="url(#paint5_linear_1_461)" stroke-width="0.3702" stroke-miterlimit="10"/>
<path d="M671.411 1339.58C671.411 1339.58 271.432 1221.58 481.079 977.452C499.476 956.285 513.501 936.671 524.143 918.277C630.805 733.991 345.637 691.654 435.862 428.704C543.163 118.11 826.255 163.09 847.566 157.241" stroke="url(#paint6_linear_1_461)" stroke-width="0.3702" stroke-miterlimit="10"/>
<path d="M673.275 1335.77C673.275 1335.77 276.572 1219.28 484.857 976.763C502.964 955.649 517.041 936.326 527.565 918.105C633.909 735.387 354.501 691.697 442.862 432.559C547.928 127.052 825.618 169.545 850.482 162.596" stroke="url(#paint7_linear_1_461)" stroke-width="0.3702" stroke-miterlimit="10"/>
<path d="M675.259 1331.79C675.259 1331.79 282.174 1217.05 488.636 976.074C506.505 955.305 520.292 936.036 530.987 917.934C637.013 736.783 363.484 691.569 450.152 436.362C552.984 135.942 825.101 175.828 853.691 167.898" stroke="url(#paint8_linear_1_461)" stroke-width="0.3702" stroke-miterlimit="10"/>
<path d="M677.123 1327.97C677.123 1327.97 287.829 1215.11 492.242 975.265C509.82 954.55 523.66 935.573 534.236 917.644C639.944 738.06 372.176 691.494 456.98 440.098C557.576 144.765 824.292 182.165 856.316 173.306" stroke="url(#paint9_linear_1_461)" stroke-width="0.3702" stroke-miterlimit="10"/>
<path d="M679.106 1323.99C679.106 1323.99 293.483 1213.18 496.02 974.576C513.361 954.206 527.081 935.401 537.657 917.472C643.048 739.456 381.04 691.537 464.151 444.073C562.631 153.655 823.774 188.448 859.233 178.661" stroke="url(#paint10_linear_1_461)" stroke-width="0.3702" stroke-miterlimit="10"/>
<path d="M680.971 1320.18C680.971 1320.18 298.966 1211.12 499.799 973.887C516.849 953.57 530.45 934.938 541.079 917.301C646.033 741.026 389.904 691.582 471.15 447.929C567.396 162.597 822.965 194.785 862.15 184.016" stroke="url(#paint11_linear_1_461)" stroke-width="0.3702" stroke-miterlimit="10"/>
<path d="M682.954 1316.19C682.954 1316.19 304.74 1209.01 503.577 973.198C520.389 953.226 533.871 934.767 544.5 917.13C649.255 742.249 398.424 691.386 478.44 451.732C571.989 171.421 822.618 201.188 865.357 189.318" stroke="url(#paint12_linear_1_461)" stroke-width="0.3702" stroke-miterlimit="10"/>
<path d="M684.818 1312.38C684.818 1312.38 310.275 1207.25 507.355 972.509C524.048 952.71 537.412 934.423 547.921 916.959C652.359 743.646 407.288 691.43 485.44 455.588C576.701 180.071 821.81 207.524 868.156 194.846" stroke="url(#paint13_linear_1_461)" stroke-width="0.3702" stroke-miterlimit="10"/>
<path d="M686.802 1308.4C686.802 1308.4 316.05 1205.14 510.962 971.7C527.246 952.127 540.49 934.013 551.172 916.668C655.172 745.095 416.099 691.182 492.44 459.443C581.466 189.013 821.173 213.98 870.901 200.081" stroke="url(#paint14_linear_1_461)" stroke-width="0.3702" stroke-miterlimit="10"/>
<path d="M688.666 1304.58C688.666 1304.58 321.532 1203.08 514.621 971.184C530.786 951.783 543.911 933.841 554.474 916.67C658.157 746.664 424.843 691.398 499.319 463.472C586.111 198.128 820.364 220.316 873.699 205.608" stroke="url(#paint15_linear_1_461)" stroke-width="0.3702" stroke-miterlimit="10"/>
<path d="M690.53 1300.77C690.53 1300.77 327.187 1201.14 518.399 970.495C534.326 951.439 547.161 933.551 557.895 916.499C661.26 748.06 433.707 691.442 506.61 467.275C591.166 207.018 820.017 226.719 876.906 210.91" stroke="url(#paint16_linear_1_461)" stroke-width="0.3702" stroke-miterlimit="10"/>
<path d="M692.513 1296.79C692.513 1296.79 332.841 1199.21 522.177 969.806C537.813 950.803 550.701 933.207 561.316 916.328C664.364 749.456 442.571 691.486 513.609 471.13C595.931 215.961 819.209 233.055 879.823 216.265" stroke="url(#paint17_linear_1_461)" stroke-width="0.3702" stroke-miterlimit="10"/>
<path d="M694.378 1292.98C694.378 1292.98 338.497 1197.27 525.785 968.997C541.183 950.339 553.951 932.916 564.395 915.917C666.953 750.493 451.211 691.118 520.437 474.866C600.353 224.664 818.229 239.271 882.45 221.673" stroke="url(#paint18_linear_1_461)" stroke-width="0.3702" stroke-miterlimit="10"/>
<path d="M696.361 1288.99C696.361 1288.99 344.098 1195.04 529.562 968.308C544.551 949.876 557.319 932.453 567.816 915.746C670.399 752.129 460.074 691.162 527.436 478.722C605.235 233.434 817.71 245.555 885.194 226.909" stroke="url(#paint19_linear_1_461)" stroke-width="0.3702" stroke-miterlimit="10"/>
<path d="M698.226 1285.18C698.226 1285.18 349.634 1193.28 533.341 967.62C548.211 949.36 560.741 932.282 571.238 915.575C673.503 753.526 468.938 691.207 534.555 482.406C610.12 242.205 817.021 251.719 888.231 232.091" stroke="url(#paint20_linear_1_461)" stroke-width="0.3702" stroke-miterlimit="10"/>
<path d="M700.037 1281.08C700.037 1281.08 355.236 1191.05 536.948 966.81C551.579 948.897 564.11 931.819 574.368 915.457C676.316 754.975 477.511 691.303 541.435 486.434C614.765 251.32 816.265 258.348 891.029 237.619" stroke="url(#paint21_linear_1_461)" stroke-width="0.3702" stroke-miterlimit="10"/>
<path d="M701.902 1277.27C701.902 1277.27 360.891 1189.11 540.726 966.122C555.067 948.261 567.36 931.528 577.79 915.286C679.42 756.372 486.494 691.175 548.435 490.29C619.53 260.263 815.456 264.684 893.827 243.147" stroke="url(#paint22_linear_1_461)" stroke-width="0.3702" stroke-miterlimit="10"/>
<path d="M703.885 1273.28C703.885 1273.28 366.546 1187.17 544.333 965.313C558.436 947.797 570.729 931.064 581.04 914.995C682.352 757.648 495.186 691.099 555.553 493.972C624.414 269.032 814.766 270.847 896.691 248.209" stroke="url(#paint23_linear_1_461)" stroke-width="0.3702" stroke-miterlimit="10"/>
<path d="M705.749 1269.47C705.749 1269.47 372.2 1185.24 548.111 964.623C561.923 947.161 574.15 930.893 584.461 914.824C685.456 759.044 504.05 691.142 562.553 497.828C629.297 277.802 814.248 277.13 899.608 253.564" stroke="url(#paint24_linear_1_461)" stroke-width="0.3702" stroke-miterlimit="10"/>
<path d="M707.733 1265.48C707.733 1265.48 377.974 1183.13 551.89 963.935C565.464 946.817 577.519 930.43 587.883 914.653C688.56 760.44 512.914 691.187 569.724 501.803C634.234 286.864 813.611 283.587 902.697 259.039" stroke="url(#paint25_linear_1_461)" stroke-width="0.3702" stroke-miterlimit="10"/>
<path d="M709.597 1261.67C709.597 1261.67 383.51 1181.36 555.668 963.246C569.123 946.301 580.94 930.259 591.304 914.482C691.663 761.837 521.897 691.058 576.723 505.659C638.827 295.688 812.974 290.043 905.495 264.566" stroke="url(#paint26_linear_1_461)" stroke-width="0.3702" stroke-miterlimit="10"/>
<path d="M711.581 1257.69C711.581 1257.69 389.284 1179.25 559.447 962.556C572.492 945.837 584.309 929.795 594.726 914.31C694.767 763.233 530.761 691.102 584.014 509.462C643.882 304.577 812.457 296.326 908.531 269.748" stroke="url(#paint27_linear_1_461)" stroke-width="0.3702" stroke-miterlimit="10"/>
<path d="M713.445 1253.88C713.445 1253.88 394.938 1177.32 563.053 961.748C575.98 945.202 587.559 929.505 597.975 914.02C697.699 764.51 539.452 691.027 590.841 513.198C648.594 313.228 811.766 302.49 911.275 274.984" stroke="url(#paint28_linear_1_461)" stroke-width="0.3702" stroke-miterlimit="10"/>
<path d="M715.428 1249.89C715.428 1249.89 400.593 1175.38 566.831 961.059C579.52 944.858 591.099 929.161 601.396 913.849C700.802 765.906 548.435 690.898 598.012 517.173C653.53 322.29 811.129 308.945 914.364 280.458" stroke="url(#paint29_linear_1_461)" stroke-width="0.3702" stroke-miterlimit="10"/>
<path d="M717.292 1246.08C717.292 1246.08 406.247 1173.44 570.609 960.37C583.007 944.221 594.349 928.87 604.646 913.558C703.444 767.235 557.127 690.822 604.84 520.909C658.123 331.112 810.149 315.162 917.109 285.694" stroke="url(#paint30_linear_1_461)" stroke-width="0.3702" stroke-miterlimit="10"/>
<path d="M719.275 1242.1C719.275 1242.1 412.021 1171.33 574.388 959.681C586.548 943.878 597.889 928.526 608.067 913.387C706.547 768.632 565.991 690.866 611.958 524.593C663.006 339.883 809.631 321.446 919.854 290.929" stroke="url(#paint31_linear_1_461)" stroke-width="0.3702" stroke-miterlimit="10"/>
<path d="M721.14 1238.28C721.14 1238.28 417.557 1169.57 577.995 958.872C590.036 943.242 601.139 928.236 611.318 913.096C708.793 769.43 574.683 690.791 618.958 528.449C667.772 348.826 808.823 327.782 922.772 296.285" stroke="url(#paint32_linear_1_461)" stroke-width="0.3702" stroke-miterlimit="10"/>
<path d="M723.004 1234.47C723.004 1234.47 423.212 1167.63 581.654 958.355C593.286 942.951 604.389 927.945 614.62 913.097C711.777 770.999 583.547 690.834 625.838 532.477C672.536 357.768 808.185 334.238 925.569 301.812" stroke="url(#paint33_linear_1_461)" stroke-width="0.3702" stroke-miterlimit="10"/>
<path d="M724.988 1230.49C724.988 1230.49 428.866 1165.69 585.551 957.494C597.064 942.262 607.929 927.601 618.16 912.754C715.687 772.701 592.701 690.825 633.128 536.28C677.591 366.658 807.667 340.521 928.777 307.114" stroke="url(#paint34_linear_1_461)" stroke-width="0.3702" stroke-miterlimit="10"/>
<path d="M726.852 1226.68C726.852 1226.68 434.521 1163.76 589.21 956.977C600.313 941.971 611.179 927.31 621.463 912.755C718.671 774.27 601.446 691.042 640.127 540.135C682.356 375.6 806.858 346.857 931.575 312.641" stroke="url(#paint35_linear_1_461)" stroke-width="0.3702" stroke-miterlimit="10"/>
<path d="M728.835 1222.69C728.835 1222.69 440.295 1161.65 592.989 956.289C603.973 941.455 614.601 927.14 624.884 912.585C721.775 775.667 610.31 691.086 647.299 544.111C687.292 384.663 806.393 353.433 934.492 317.997" stroke="url(#paint36_linear_1_461)" stroke-width="0.3702" stroke-miterlimit="10"/>
<path d="M730.699 1218.88C730.699 1218.88 446.002 1160 596.595 955.48C607.341 940.991 617.969 926.675 628.134 912.293C724.707 776.943 619.121 690.837 654.126 547.846C692.004 393.313 805.412 359.649 937.237 323.231" stroke="url(#paint37_linear_1_461)" stroke-width="0.3702" stroke-miterlimit="10"/>
<path d="M732.683 1214.9C732.683 1214.9 451.776 1157.89 600.374 954.791C610.829 940.355 621.219 926.385 631.555 912.122C727.639 778.22 627.985 690.881 661.298 551.822C696.94 402.375 805.066 366.053 940.326 328.706" stroke="url(#paint38_linear_1_461)" stroke-width="0.3702" stroke-miterlimit="10"/>
<path d="M734.547 1211.08C734.547 1211.08 457.43 1155.96 604.152 954.102C614.369 940.012 624.759 926.042 634.976 911.952C730.742 779.617 637.02 691.045 668.416 555.506C701.824 411.146 804.376 372.217 943.361 333.889" stroke="url(#paint39_linear_1_461)" stroke-width="0.3702" stroke-miterlimit="10"/>
<path d="M736.53 1207.1C736.53 1207.1 463.256 1154.14 607.93 953.413C618.029 939.495 628.008 925.75 638.398 911.78C733.674 780.893 646.002 690.916 675.587 559.48C706.931 420.327 803.911 378.792 946.159 339.416" stroke="url(#paint40_linear_1_461)" stroke-width="0.3702" stroke-miterlimit="10"/>
<path d="M738.223 1203.17C738.223 1203.17 468.74 1152.08 611.537 952.605C621.226 938.913 631.378 925.288 641.648 911.49C736.435 782.05 654.695 690.841 682.415 563.217C711.644 428.978 802.931 385.009 948.905 344.652" stroke="url(#paint41_linear_1_461)" stroke-width="0.3702" stroke-miterlimit="10"/>
<path d="M740.206 1199.18C740.206 1199.18 474.685 1150.09 615.144 951.795C624.595 938.449 634.456 924.877 644.726 911.079C739.195 783.207 663.215 690.645 689.243 566.953C716.237 437.8 802.069 391.052 951.65 349.887" stroke="url(#paint42_linear_1_461)" stroke-width="0.3702" stroke-miterlimit="10"/>
<path d="M742.071 1195.37C742.071 1195.37 480.221 1148.33 618.922 951.106C628.254 937.933 637.877 924.706 648.148 910.908C742.299 784.604 672.37 690.637 696.361 570.636C721.121 446.571 801.551 397.336 954.686 355.07" stroke="url(#paint43_linear_1_461)" stroke-width="0.3702" stroke-miterlimit="10"/>
<path d="M744.054 1191.39C744.054 1191.39 486.166 1146.34 622.7 950.417C631.622 937.469 641.417 924.362 651.568 910.737C745.283 786.172 681.233 690.68 703.36 574.491C726.175 455.46 800.742 403.672 957.311 360.477" stroke="url(#paint44_linear_1_461)" stroke-width="0.3702" stroke-miterlimit="10"/>
<path d="M745.918 1187.58C745.918 1187.58 490.104 1143.21 626.478 949.729C635.454 937.073 644.667 924.072 654.99 910.566C748.387 787.569 690.269 690.845 710.531 578.468C731.112 464.523 800.277 410.248 960.4 365.953" stroke="url(#paint45_linear_1_461)" stroke-width="0.3702" stroke-miterlimit="10"/>
<path d="M747.902 1183.59C747.902 1183.59 496.102 1141.51 630.085 948.92C638.651 936.49 648.036 923.608 658.121 910.448C751.201 789.018 698.961 690.769 717.24 582.376C735.705 473.346 799.178 416.638 963.027 371.36" stroke="url(#paint46_linear_1_461)" stroke-width="0.3702" stroke-miterlimit="10"/>
<path d="M749.766 1179.78C749.766 1179.78 503.473 1140.77 633.863 948.23C642.138 935.853 651.285 923.316 661.542 910.276C754.304 790.413 707.996 690.931 724.53 586.178C740.932 482.354 798.95 422.867 966.234 376.661" stroke="url(#paint47_linear_1_461)" stroke-width="0.3702" stroke-miterlimit="10"/>
<path d="M751.63 1175.97C751.63 1175.97 509.3 1138.95 637.523 947.714C645.56 935.682 654.707 923.146 664.845 910.278C757.289 791.983 716.86 690.976 731.411 590.207C745.578 491.47 798.023 429.377 968.742 382.243" stroke="url(#paint48_linear_1_461)" stroke-width="0.3702" stroke-miterlimit="10"/>
<path d="M753.614 1171.98C753.614 1171.98 515.47 1137.37 641.42 946.852C649.338 934.993 658.247 922.802 668.385 909.934C760.511 793.207 726.015 690.967 738.701 594.009C750.923 500.307 797.505 435.659 971.949 387.544" stroke="url(#paint49_linear_1_461)" stroke-width="0.3702" stroke-miterlimit="10"/>
<path d="M755.478 1168.17C755.478 1168.17 521.124 1135.44 645.08 946.335C652.76 934.821 661.497 922.511 671.688 909.935C763.496 794.775 735.222 691.25 745.581 598.037C755.86 509.368 796.748 442.288 974.747 393.072" stroke="url(#paint50_linear_1_461)" stroke-width="0.3702" stroke-miterlimit="10"/>
<path d="M757.461 1164.19C757.461 1164.19 497.997 1129.54 675.056 909.472C852.116 689.405 602.286 501.752 977.611 398.135" stroke="url(#paint51_linear_1_461)" stroke-width="0.3702" stroke-miterlimit="10"/>
</g>
<defs>
<linearGradient id="paint0_linear_1_461" x1="80.6636" y1="992.435" x2="732.494" y2="57.114" gradientUnits="userSpaceOnUse">
<stop stop-color="#B900FA"/>
<stop offset="1" stop-color="#7926FF"/>
</linearGradient>
<linearGradient id="paint1_linear_1_461" x1="88.9636" y1="993.014" x2="736.794" y2="63.433" gradientUnits="userSpaceOnUse">
<stop stop-color="#B900FA"/>
<stop offset="1" stop-color="#7926FF"/>
</linearGradient>
<linearGradient id="paint2_linear_1_461" x1="97.2272" y1="993.336" x2="740.949" y2="69.6504" gradientUnits="userSpaceOnUse">
<stop stop-color="#B900FA"/>
<stop offset="1" stop-color="#7926FF"/>
</linearGradient>
<linearGradient id="paint3_linear_1_461" x1="105.484" y1="993.971" x2="745.246" y2="75.9673" gradientUnits="userSpaceOnUse">
<stop stop-color="#B900FA"/>
<stop offset="1" stop-color="#7926FF"/>
</linearGradient>
<linearGradient id="paint4_linear_1_461" x1="113.585" y1="994.181" x2="749.239" y2="82.0722" gradientUnits="userSpaceOnUse">
<stop stop-color="#B900FA"/>
<stop offset="1" stop-color="#7926FF"/>
</linearGradient>
<linearGradient id="paint5_linear_1_461" x1="121.887" y1="994.763" x2="753.541" y2="88.393" gradientUnits="userSpaceOnUse">
<stop stop-color="#B900FA"/>
<stop offset="1" stop-color="#7926FF"/>
</linearGradient>
<linearGradient id="paint6_linear_1_461" x1="129.944" y1="995.028" x2="757.531" y2="94.4954" gradientUnits="userSpaceOnUse">
<stop stop-color="#B900FA"/>
<stop offset="1" stop-color="#7926FF"/>
</linearGradient>
<linearGradient id="paint7_linear_1_461" x1="138.091" y1="995.501" x2="761.678" y2="100.708" gradientUnits="userSpaceOnUse">
<stop stop-color="#B900FA"/>
<stop offset="1" stop-color="#7926FF"/>
</linearGradient>
<linearGradient id="paint8_linear_1_461" x1="146.487" y1="995.917" x2="766.086" y2="106.846" gradientUnits="userSpaceOnUse">
<stop stop-color="#B900FA"/>
<stop offset="1" stop-color="#7926FF"/>
</linearGradient>
<linearGradient id="paint9_linear_1_461" x1="154.479" y1="996.284" x2="769.959" y2="113.123" gradientUnits="userSpaceOnUse">
<stop stop-color="#B900FA"/>
<stop offset="1" stop-color="#7926FF"/>
</linearGradient>
<linearGradient id="paint10_linear_1_461" x1="162.829" y1="996.755" x2="774.242" y2="119.43" gradientUnits="userSpaceOnUse">
<stop stop-color="#B900FA"/>
<stop offset="1" stop-color="#7926FF"/>
</linearGradient>
<linearGradient id="paint11_linear_1_461" x1="170.958" y1="997.219" x2="778.373" y2="125.631" gradientUnits="userSpaceOnUse">
<stop stop-color="#B900FA"/>
<stop offset="1" stop-color="#7926FF"/>
</linearGradient>
<linearGradient id="paint12_linear_1_461" x1="179.253" y1="997.566" x2="782.68" y2="131.7" gradientUnits="userSpaceOnUse">
<stop stop-color="#B900FA"/>
<stop offset="1" stop-color="#7926FF"/>
</linearGradient>
<linearGradient id="paint13_linear_1_461" x1="187.285" y1="998.049" x2="786.635" y2="138.033" gradientUnits="userSpaceOnUse">
<stop stop-color="#B900FA"/>
<stop offset="1" stop-color="#7926FF"/>
</linearGradient>
<linearGradient id="paint14_linear_1_461" x1="195.522" y1="998.355" x2="790.765" y2="144.233" gradientUnits="userSpaceOnUse">
<stop stop-color="#B900FA"/>
<stop offset="1" stop-color="#7926FF"/>
</linearGradient>
<linearGradient id="paint15_linear_1_461" x1="203.627" y1="998.827" x2="794.763" y2="150.598" gradientUnits="userSpaceOnUse">
<stop stop-color="#B900FA"/>
<stop offset="1" stop-color="#7926FF"/>
</linearGradient>
<linearGradient id="paint16_linear_1_461" x1="211.901" y1="999.392" x2="799.159" y2="156.728" gradientUnits="userSpaceOnUse">
<stop stop-color="#B900FA"/>
<stop offset="1" stop-color="#7926FF"/>
</linearGradient>
<linearGradient id="paint17_linear_1_461" x1="220.077" y1="999.746" x2="803.269" y2="162.915" gradientUnits="userSpaceOnUse">
<stop stop-color="#B900FA"/>
<stop offset="1" stop-color="#7926FF"/>
</linearGradient>
<linearGradient id="paint18_linear_1_461" x1="227.979" y1="1000.05" x2="807.054" y2="169.129" gradientUnits="userSpaceOnUse">
<stop stop-color="#B900FA"/>
<stop offset="1" stop-color="#7926FF"/>
</linearGradient>
<linearGradient id="paint19_linear_1_461" x1="236.196" y1="1000.35" x2="811.165" y2="175.317" gradientUnits="userSpaceOnUse">
<stop stop-color="#B900FA"/>
<stop offset="1" stop-color="#7926FF"/>
</linearGradient>
<linearGradient id="paint20_linear_1_461" x1="244.252" y1="1000.85" x2="815.385" y2="181.325" gradientUnits="userSpaceOnUse">
<stop stop-color="#B900FA"/>
<stop offset="1" stop-color="#7926FF"/>
</linearGradient>
<linearGradient id="paint21_linear_1_461" x1="252.44" y1="1001.13" x2="819.348" y2="187.664" gradientUnits="userSpaceOnUse">
<stop stop-color="#B900FA"/>
<stop offset="1" stop-color="#7926FF"/>
</linearGradient>
<linearGradient id="paint22_linear_1_461" x1="260.526" y1="1001.56" x2="823.317" y2="194.008" gradientUnits="userSpaceOnUse">
<stop stop-color="#B900FA"/>
<stop offset="1" stop-color="#7926FF"/>
</linearGradient>
<linearGradient id="paint23_linear_1_461" x1="268.671" y1="1001.9" x2="827.518" y2="200.002" gradientUnits="userSpaceOnUse">
<stop stop-color="#B900FA"/>
<stop offset="1" stop-color="#7926FF"/>
</linearGradient>
<linearGradient id="paint24_linear_1_461" x1="276.756" y1="1002.34" x2="831.606" y2="206.173" gradientUnits="userSpaceOnUse">
<stop stop-color="#B900FA"/>
<stop offset="1" stop-color="#7926FF"/>
</linearGradient>
<linearGradient id="paint25_linear_1_461" x1="285.081" y1="1002.71" x2="835.827" y2="212.436" gradientUnits="userSpaceOnUse">
<stop stop-color="#B900FA"/>
<stop offset="1" stop-color="#7926FF"/>
</linearGradient>
<linearGradient id="paint26_linear_1_461" x1="293.056" y1="1003.16" x2="839.727" y2="218.732" gradientUnits="userSpaceOnUse">
<stop stop-color="#B900FA"/>
<stop offset="1" stop-color="#7926FF"/>
</linearGradient>
<linearGradient id="paint27_linear_1_461" x1="301.363" y1="1003.52" x2="844.05" y2="224.812" gradientUnits="userSpaceOnUse">
<stop stop-color="#B900FA"/>
<stop offset="1" stop-color="#7926FF"/>
</linearGradient>
<linearGradient id="paint28_linear_1_461" x1="309.267" y1="1003.83" x2="847.958" y2="230.858" gradientUnits="userSpaceOnUse">
<stop stop-color="#B900FA"/>
<stop offset="1" stop-color="#7926FF"/>
</linearGradient>
<linearGradient id="paint29_linear_1_461" x1="317.516" y1="1004.24" x2="852.145" y2="237.098" gradientUnits="userSpaceOnUse">
<stop stop-color="#B900FA"/>
<stop offset="1" stop-color="#7926FF"/>
</linearGradient>
<linearGradient id="paint30_linear_1_461" x1="325.386" y1="1004.53" x2="856.02" y2="243.12" gradientUnits="userSpaceOnUse">
<stop stop-color="#B900FA"/>
<stop offset="1" stop-color="#7926FF"/>
</linearGradient>
<linearGradient id="paint31_linear_1_461" x1="333.517" y1="1004.78" x2="860.048" y2="249.25" gradientUnits="userSpaceOnUse">
<stop stop-color="#B900FA"/>
<stop offset="1" stop-color="#7926FF"/>
</linearGradient>
<linearGradient id="paint32_linear_1_461" x1="341.474" y1="1005.21" x2="864.051" y2="255.361" gradientUnits="userSpaceOnUse">
<stop stop-color="#B900FA"/>
<stop offset="1" stop-color="#7926FF"/>
</linearGradient>
<linearGradient id="paint33_linear_1_461" x1="349.461" y1="1005.61" x2="867.936" y2="261.646" gradientUnits="userSpaceOnUse">
<stop stop-color="#B900FA"/>
<stop offset="1" stop-color="#7926FF"/>
</linearGradient>
<linearGradient id="paint34_linear_1_461" x1="357.658" y1="1005.97" x2="872.18" y2="267.671" gradientUnits="userSpaceOnUse">
<stop stop-color="#B900FA"/>
<stop offset="1" stop-color="#7926FF"/>
</linearGradient>
<linearGradient id="paint35_linear_1_461" x1="365.596" y1="1006.33" x2="876.016" y2="273.922" gradientUnits="userSpaceOnUse">
<stop stop-color="#B900FA"/>
<stop offset="1" stop-color="#7926FF"/>
</linearGradient>
<linearGradient id="paint36_linear_1_461" x1="373.803" y1="1006.63" x2="880.122" y2="280.106" gradientUnits="userSpaceOnUse">
<stop stop-color="#B900FA"/>
<stop offset="1" stop-color="#7926FF"/>
</linearGradient>
<linearGradient id="paint37_linear_1_461" x1="381.521" y1="1006.91" x2="883.888" y2="286.052" gradientUnits="userSpaceOnUse">
<stop stop-color="#B900FA"/>
<stop offset="1" stop-color="#7926FF"/>
</linearGradient>
<linearGradient id="paint38_linear_1_461" x1="389.688" y1="1007.18" x2="887.954" y2="292.209" gradientUnits="userSpaceOnUse">
<stop stop-color="#B900FA"/>
<stop offset="1" stop-color="#7926FF"/>
</linearGradient>
<linearGradient id="paint39_linear_1_461" x1="397.551" y1="1007.47" x2="891.944" y2="298.056" gradientUnits="userSpaceOnUse">
<stop stop-color="#B900FA"/>
<stop offset="1" stop-color="#7926FF"/>
</linearGradient>
<linearGradient id="paint40_linear_1_461" x1="405.686" y1="1007.81" x2="895.901" y2="304.391" gradientUnits="userSpaceOnUse">
<stop stop-color="#B900FA"/>
<stop offset="1" stop-color="#7926FF"/>
</linearGradient>
<linearGradient id="paint41_linear_1_461" x1="413.319" y1="1007.94" x2="899.541" y2="310.25" gradientUnits="userSpaceOnUse">
<stop stop-color="#B900FA"/>
<stop offset="1" stop-color="#7926FF"/>
</linearGradient>
<linearGradient id="paint42_linear_1_461" x1="421.043" y1="1007.9" x2="903.165" y2="316.098" gradientUnits="userSpaceOnUse">
<stop stop-color="#B900FA"/>
<stop offset="1" stop-color="#7926FF"/>
</linearGradient>
<linearGradient id="paint43_linear_1_461" x1="428.758" y1="1008.18" x2="907.051" y2="321.872" gradientUnits="userSpaceOnUse">
<stop stop-color="#B900FA"/>
<stop offset="1" stop-color="#7926FF"/>
</linearGradient>
<linearGradient id="paint44_linear_1_461" x1="436.614" y1="1008.24" x2="910.688" y2="327.985" gradientUnits="userSpaceOnUse">
<stop stop-color="#B900FA"/>
<stop offset="1" stop-color="#7926FF"/>
</linearGradient>
<linearGradient id="paint45_linear_1_461" x1="444.438" y1="1008.51" x2="914.52" y2="333.978" gradientUnits="userSpaceOnUse">
<stop stop-color="#B900FA"/>
<stop offset="1" stop-color="#7926FF"/>
</linearGradient>
<linearGradient id="paint46_linear_1_461" x1="451.942" y1="1008.41" x2="917.849" y2="339.876" gradientUnits="userSpaceOnUse">
<stop stop-color="#B900FA"/>
<stop offset="1" stop-color="#7926FF"/>
</linearGradient>
<linearGradient id="paint47_linear_1_461" x1="459.731" y1="1008.65" x2="921.766" y2="345.671" gradientUnits="userSpaceOnUse">
<stop stop-color="#B900FA"/>
<stop offset="1" stop-color="#7926FF"/>
</linearGradient>
<linearGradient id="paint48_linear_1_461" x1="467.189" y1="1008.69" x2="925.008" y2="351.764" gradientUnits="userSpaceOnUse">
<stop stop-color="#B900FA"/>
<stop offset="1" stop-color="#7926FF"/>
</linearGradient>
<linearGradient id="paint49_linear_1_461" x1="474.897" y1="1008.72" x2="928.768" y2="357.451" gradientUnits="userSpaceOnUse">
<stop stop-color="#B900FA"/>
<stop offset="1" stop-color="#7926FF"/>
</linearGradient>
<linearGradient id="paint50_linear_1_461" x1="482.339" y1="1008.75" x2="932.114" y2="363.36" gradientUnits="userSpaceOnUse">
<stop stop-color="#B900FA"/>
<stop offset="1" stop-color="#7926FF"/>
</linearGradient>
<linearGradient id="paint51_linear_1_461" x1="489.672" y1="1008.47" x2="935.479" y2="368.773" gradientUnits="userSpaceOnUse">
<stop stop-color="#B900FA"/>
<stop offset="1" stop-color="#7926FF"/>
</linearGradient>
</defs>
</svg>
