<svg width="126" height="24" viewBox="0 0 126 24" fill="none" xmlns="http://www.w3.org/2000/svg">
<g opacity="0.8">
<path d="M32.918 22.5812V13.1871H36.2243C36.6704 13.1871 37.0858 13.2615 37.4707 13.4102C37.8643 13.5501 38.2054 13.7513 38.4941 14.0137C38.7827 14.2761 39.0101 14.591 39.1763 14.9584C39.3425 15.317 39.4256 15.715 39.4256 16.1523C39.4256 16.5984 39.3425 17.0051 39.1763 17.3725C39.0101 17.7311 38.7827 18.0416 38.4941 18.304C38.2054 18.5664 37.8643 18.772 37.4707 18.9207C37.0858 19.0606 36.6704 19.1306 36.2243 19.1306H34.6892V22.5812H32.918ZM36.2505 17.4512C36.7141 17.4512 37.064 17.32 37.3001 17.0576C37.5363 16.7952 37.6544 16.4934 37.6544 16.1523C37.6544 15.9861 37.6238 15.8243 37.5625 15.6669C37.51 15.5094 37.4226 15.3738 37.3001 15.2601C37.1864 15.1377 37.0421 15.0415 36.8672 14.9715C36.6922 14.9015 36.4867 14.8665 36.2505 14.8665H34.6892V17.4512H36.2505Z" fill="white"/>
<path d="M44.1786 21.899H44.0736C43.8725 22.1439 43.6276 22.3538 43.3389 22.5287C43.059 22.7037 42.696 22.7911 42.2499 22.7911C41.9176 22.7911 41.6027 22.7343 41.3053 22.6206C41.0166 22.5156 40.763 22.3669 40.5443 22.1745C40.3256 21.9821 40.1551 21.7503 40.0326 21.4791C39.9102 21.208 39.8489 20.9106 39.8489 20.5869C39.8489 20.2546 39.9145 19.9572 40.0457 19.6948C40.1769 19.4236 40.3606 19.1918 40.5968 18.9994C40.8329 18.807 41.1085 18.6626 41.4234 18.5664C41.747 18.4615 42.0969 18.409 42.473 18.409C42.8928 18.409 43.2383 18.444 43.5095 18.5139C43.7806 18.5752 44.0037 18.6408 44.1786 18.7107V18.5139C44.1786 18.1728 44.043 17.8929 43.7719 17.6743C43.5007 17.4468 43.164 17.3331 42.7616 17.3331C42.1668 17.3331 41.6639 17.5824 41.2528 18.081L40.0064 17.2282C40.6886 16.371 41.6202 15.9424 42.801 15.9424C43.7981 15.9424 44.5591 16.1785 45.0839 16.6509C45.6087 17.1145 45.8711 17.8055 45.8711 18.7239V22.5812H44.1786V21.899ZM44.1786 19.9703C43.9774 19.8741 43.7675 19.7997 43.5488 19.7472C43.3389 19.686 43.1071 19.6554 42.8535 19.6554C42.4424 19.6554 42.1231 19.7472 41.8957 19.9309C41.677 20.1059 41.5677 20.3245 41.5677 20.5869C41.5677 20.8493 41.6726 21.0593 41.8826 21.2167C42.1012 21.3742 42.3505 21.4529 42.6304 21.4529C42.8578 21.4529 43.0678 21.4135 43.2602 21.3348C43.4526 21.2473 43.6144 21.138 43.7456 21.0068C43.8856 20.8668 43.9905 20.7094 44.0605 20.5345C44.1392 20.3508 44.1786 20.1627 44.1786 19.9703Z" fill="white"/>
<path d="M48.8515 17.0445H48.9564C49.1314 16.7208 49.385 16.4628 49.7174 16.2704C50.0585 16.0692 50.4346 15.9686 50.8457 15.9686C50.9944 15.9686 51.1125 15.973 51.2 15.9817C51.2874 15.9905 51.3705 16.008 51.4493 16.0342V17.7399C51.353 17.6961 51.2437 17.6611 51.1213 17.6349C51.0075 17.6086 50.8676 17.5955 50.7014 17.5955C50.1591 17.5955 49.7305 17.7617 49.4156 18.0941C49.1095 18.4177 48.9564 18.8638 48.9564 19.4324V22.5812H47.2377V16.1523H48.8515V17.0445ZM53.3517 17.6218H52.2234V16.1523H53.3517V14.1843H55.0704V16.1523H56.6449V17.6218H55.0704V20.1146C55.0704 20.2633 55.0836 20.4033 55.1098 20.5345C55.1448 20.6569 55.206 20.7619 55.2935 20.8493C55.4159 20.9893 55.5909 21.0593 55.8183 21.0593C55.967 21.0593 56.0851 21.0461 56.1725 21.0199C56.26 20.9849 56.3431 20.9412 56.4218 20.8887L56.9073 22.3975C56.7061 22.4937 56.4874 22.5637 56.2513 22.6075C56.0238 22.6599 55.7702 22.6862 55.4903 22.6862C55.1667 22.6862 54.8736 22.6381 54.6112 22.5419C54.3576 22.4369 54.1433 22.2969 53.9683 22.122C53.5572 21.7284 53.3517 21.1686 53.3517 20.4426V17.6218Z" fill="white"/>
<path d="M59.5885 16.992H59.6935C59.8946 16.6684 60.1658 16.4147 60.5069 16.231C60.8481 16.0386 61.2373 15.9424 61.6746 15.9424C62.077 15.9424 62.4312 16.008 62.7374 16.1392C63.0435 16.2704 63.2928 16.4584 63.4852 16.7034C63.6864 16.9395 63.8351 17.2282 63.9313 17.5693C64.0363 17.9017 64.0887 18.2734 64.0887 18.6845V22.5812H62.37V18.8944C62.37 18.4309 62.265 18.0897 62.0551 17.8711C61.8539 17.6436 61.5565 17.5299 61.1629 17.5299C60.9268 17.5299 60.7169 17.5824 60.5332 17.6874C60.3582 17.7836 60.2052 17.9192 60.074 18.0941C59.9515 18.2603 59.8553 18.4615 59.7853 18.6976C59.7241 18.925 59.6935 19.17 59.6935 19.4324V22.5812H57.9747V16.1523H59.5885V16.992Z" fill="white"/>
<path d="M71.5964 21.033C71.299 21.5578 70.8966 21.9821 70.3893 22.3057C69.8908 22.6293 69.2785 22.7911 68.5525 22.7911C68.0627 22.7911 67.6078 22.708 67.188 22.5419C66.7769 22.3669 66.4183 22.1264 66.1121 21.8202C65.806 21.5141 65.5655 21.1555 65.3905 20.7444C65.2243 20.3245 65.1412 19.8653 65.1412 19.3668C65.1412 18.9032 65.2243 18.4658 65.3905 18.0547C65.5567 17.6349 65.7885 17.2719 66.0859 16.9658C66.3833 16.6509 66.7332 16.4016 67.1355 16.2179C67.5466 16.0342 67.9971 15.9424 68.4869 15.9424C69.003 15.9424 69.4622 16.0298 69.8645 16.2048C70.2669 16.371 70.6036 16.6071 70.8748 16.9133C71.1459 17.2107 71.3515 17.5649 71.4914 17.976C71.6314 18.3871 71.7013 18.8332 71.7013 19.3143C71.7013 19.3755 71.7013 19.428 71.7013 19.4717C71.6926 19.5242 71.6882 19.5723 71.6882 19.616C71.6795 19.6598 71.6751 19.7079 71.6751 19.7604H66.8337C66.8687 20.0228 66.9387 20.2502 67.0437 20.4426C67.1574 20.6263 67.293 20.7837 67.4504 20.9149C67.6166 21.0374 67.7959 21.1292 67.9883 21.1905C68.1808 21.243 68.3776 21.2692 68.5787 21.2692C68.9723 21.2692 69.296 21.1817 69.5496 21.0068C69.812 20.8231 70.0176 20.5957 70.1663 20.3245L71.5964 21.033ZM70.0351 18.5402C70.0263 18.4265 69.987 18.2996 69.917 18.1597C69.8558 18.0198 69.7596 17.8885 69.6284 17.7661C69.5059 17.6436 69.3485 17.543 69.156 17.4643C68.9723 17.3856 68.7493 17.3462 68.4869 17.3462C68.1195 17.3462 67.7959 17.4512 67.516 17.6611C67.2361 17.8711 67.0393 18.1641 66.9256 18.5402H70.0351Z" fill="white"/>
<path d="M72.799 16.1523H74.4128V17.0445H74.5178C74.5965 16.887 74.7015 16.7427 74.8327 16.6115C74.9639 16.4803 75.1082 16.3666 75.2656 16.2704C75.4318 16.1742 75.6068 16.0998 75.7904 16.0473C75.9829 15.9949 76.1709 15.9686 76.3546 15.9686C76.582 15.9686 76.7745 15.9905 76.9319 16.0342C77.0981 16.078 77.238 16.1348 77.3518 16.2048L76.8925 17.7661C76.7876 17.7136 76.6695 17.6743 76.5383 17.648C76.4158 17.613 76.2628 17.5955 76.0791 17.5955C75.8429 17.5955 75.6286 17.6436 75.4362 17.7399C75.2438 17.8273 75.0776 17.9541 74.9376 18.1203C74.8064 18.2865 74.7015 18.4833 74.6227 18.7107C74.5528 18.9294 74.5178 19.17 74.5178 19.4324V22.5812H72.799V16.1523Z" fill="white"/>
</g>
<g opacity="0.8">
<path d="M40.1756 4.10476C40.1756 5.12331 39.8734 5.93476 39.2691 6.5391C38.59 7.25887 37.6971 7.61876 36.5903 7.61876C35.531 7.61876 34.6347 7.25208 33.9013 6.51873C33.1679 5.78537 32.8013 4.88225 32.8013 3.80938C32.8013 2.73651 33.1679 1.83339 33.9013 1.10004C34.6347 0.366678 35.531 0 36.5903 0C37.1267 0 37.6326 0.095066 38.1079 0.285195C38.5832 0.475325 38.9737 0.743543 39.2793 1.08985L38.607 1.76209C38.3829 1.49048 38.0909 1.27998 37.7311 1.13059C37.378 0.974414 36.9977 0.896325 36.5903 0.896325C35.7958 0.896325 35.1236 1.17133 34.5735 1.72135C34.0303 2.27816 33.7587 2.97417 33.7587 3.80938C33.7587 4.64459 34.0303 5.3406 34.5735 5.89741C35.1236 6.44743 35.7958 6.72244 36.5903 6.72244C37.3168 6.72244 37.9212 6.51873 38.4033 6.11131C38.8854 5.70389 39.1638 5.14368 39.2385 4.4307H36.5903V3.55474H40.1246C40.1586 3.74487 40.1756 3.92821 40.1756 4.10476Z" fill="white"/>
<path d="M40.8162 4.96034C40.8162 4.19304 41.0573 3.55814 41.5394 3.05565C42.0283 2.55317 42.6428 2.30193 43.383 2.30193C44.1231 2.30193 44.7343 2.55317 45.2164 3.05565C45.7053 3.55814 45.9497 4.19304 45.9497 4.96034C45.9497 5.73444 45.7053 6.36934 45.2164 6.86503C44.7343 7.36752 44.1231 7.61876 43.383 7.61876C42.6428 7.61876 42.0283 7.36752 41.5394 6.86503C41.0573 6.36255 40.8162 5.72765 40.8162 4.96034ZM41.7533 4.96034C41.7533 5.49678 41.9095 5.93136 42.2218 6.26409C42.5342 6.59682 42.9212 6.76318 43.383 6.76318C43.8447 6.76318 44.2318 6.59682 44.5441 6.26409C44.8565 5.93136 45.0127 5.49678 45.0127 4.96034C45.0127 4.4307 44.8565 3.99951 44.5441 3.66678C44.225 3.32727 43.8379 3.15751 43.383 3.15751C42.928 3.15751 42.541 3.32727 42.2218 3.66678C41.9095 3.99951 41.7533 4.4307 41.7533 4.96034Z" fill="white"/>
<path d="M46.5157 4.96034C46.5157 4.19304 46.7568 3.55814 47.2389 3.05565C47.7278 2.55317 48.3423 2.30193 49.0825 2.30193C49.8226 2.30193 50.4338 2.55317 50.9159 3.05565C51.4048 3.55814 51.6492 4.19304 51.6492 4.96034C51.6492 5.73444 51.4048 6.36934 50.9159 6.86503C50.4338 7.36752 49.8226 7.61876 49.0825 7.61876C48.3423 7.61876 47.7278 7.36752 47.2389 6.86503C46.7568 6.36255 46.5157 5.72765 46.5157 4.96034ZM47.4528 4.96034C47.4528 5.49678 47.609 5.93136 47.9213 6.26409C48.2337 6.59682 48.6207 6.76318 49.0825 6.76318C49.5442 6.76318 49.9313 6.59682 50.2436 6.26409C50.556 5.93136 50.7122 5.49678 50.7122 4.96034C50.7122 4.4307 50.556 3.99951 50.2436 3.66678C49.9245 3.32727 49.5374 3.15751 49.0825 3.15751C48.6275 3.15751 48.2405 3.32727 47.9213 3.66678C47.609 3.99951 47.4528 4.4307 47.4528 4.96034Z" fill="white"/>
<path d="M54.7412 6.76318C55.203 6.76318 55.5799 6.59682 55.8718 6.26409C56.1774 5.93136 56.3302 5.49678 56.3302 4.96034C56.3302 4.43749 56.1774 4.0063 55.8718 3.66678C55.5731 3.32727 55.1962 3.15751 54.7412 3.15751C54.2931 3.15751 53.9162 3.32727 53.6107 3.66678C53.3051 4.0063 53.1523 4.43749 53.1523 4.96034C53.1523 5.48999 53.3051 5.92118 53.6107 6.2539C53.9162 6.59342 54.2931 6.76318 54.7412 6.76318ZM54.7107 9.81883C54.4323 9.81883 54.1709 9.78148 53.9264 9.70679C53.682 9.63889 53.4579 9.54043 53.2542 9.41141C53.0572 9.28239 52.8875 9.12961 52.7449 8.95306C52.6023 8.77652 52.4936 8.57959 52.419 8.3623L53.3051 7.99563C53.4069 8.28761 53.5835 8.52188 53.8347 8.69843C54.086 8.87497 54.378 8.96325 54.7107 8.96325C55.22 8.96325 55.6172 8.81047 55.9024 8.5049C56.1876 8.19933 56.3302 7.77833 56.3302 7.2419V6.76318H56.2894C56.1129 7.028 55.8718 7.2385 55.5663 7.39468C55.2675 7.54407 54.9416 7.61876 54.5885 7.61876C53.9366 7.61876 53.3764 7.36412 52.9079 6.85485C52.4461 6.33199 52.2152 5.70049 52.2152 4.96034C52.2152 4.2202 52.4461 3.59209 52.9079 3.07602C53.3764 2.55996 53.9366 2.30193 54.5885 2.30193C54.9416 2.30193 55.2675 2.38001 55.5663 2.53619C55.8718 2.68558 56.1129 2.89269 56.2894 3.15751H56.3302V2.46489H57.2265V7.2419C57.2265 8.04316 56.999 8.67126 56.5441 9.12622C56.0823 9.58796 55.4712 9.81883 54.7107 9.81883Z" fill="white"/>
<path d="M59.3061 0.162968V7.45579H58.369V0.162968H59.3061Z" fill="white"/>
<path d="M62.639 7.61876C61.9056 7.61876 61.3013 7.36752 60.826 6.86503C60.3506 6.36255 60.113 5.72765 60.113 4.96034C60.113 4.19983 60.3439 3.56832 60.8056 3.06584C61.2673 2.55656 61.8581 2.30193 62.5779 2.30193C63.318 2.30193 63.9054 2.54298 64.34 3.0251C64.7813 3.50042 65.002 4.16927 65.002 5.03164L64.9918 5.1335H61.0704C61.084 5.6224 61.247 6.01624 61.5593 6.31502C61.8717 6.61379 62.2452 6.76318 62.6797 6.76318C63.2773 6.76318 63.7458 6.4644 64.0853 5.86685L64.9205 6.27427C64.6965 6.69528 64.3841 7.02461 63.9835 7.26227C63.5896 7.49993 63.1415 7.61876 62.639 7.61876ZM61.1417 4.3594H64.0038C63.9767 4.01309 63.8341 3.7279 63.5761 3.50382C63.3248 3.27294 62.9853 3.15751 62.5575 3.15751C62.2044 3.15751 61.8988 3.26615 61.6408 3.48345C61.3896 3.70074 61.2232 3.99272 61.1417 4.3594Z" fill="white"/>
<path d="M70.2 0.0814854C70.5395 0.0814854 70.8179 0.139203 71.0352 0.254639L70.7806 1.07966C70.6176 0.998181 70.4342 0.957439 70.2305 0.957439C69.9997 0.957439 69.8095 1.03892 69.6601 1.20189C69.5175 1.35807 69.4463 1.56857 69.4463 1.83339V2.46489H70.75V3.32048H69.4463V7.45579H68.5092V3.32048H67.5721V2.46489H68.5092V1.74172C68.5092 1.24603 68.6654 0.845398 68.9777 0.539833C69.2969 0.234268 69.7043 0.0814854 70.2 0.0814854Z" fill="white"/>
<path d="M71.0544 4.96034C71.0544 4.19304 71.2955 3.55814 71.7776 3.05565C72.2665 2.55317 72.881 2.30193 73.6212 2.30193C74.3613 2.30193 74.9725 2.55317 75.4546 3.05565C75.9435 3.55814 76.1879 4.19304 76.1879 4.96034C76.1879 5.73444 75.9435 6.36934 75.4546 6.86503C74.9725 7.36752 74.3613 7.61876 73.6212 7.61876C72.881 7.61876 72.2665 7.36752 71.7776 6.86503C71.2955 6.36255 71.0544 5.72765 71.0544 4.96034ZM71.9915 4.96034C71.9915 5.49678 72.1477 5.93136 72.46 6.26409C72.7724 6.59682 73.1594 6.76318 73.6212 6.76318C74.0829 6.76318 74.47 6.59682 74.7823 6.26409C75.0947 5.93136 75.2509 5.49678 75.2509 4.96034C75.2509 4.4307 75.0947 3.99951 74.7823 3.66678C74.4632 3.32727 74.0761 3.15751 73.6212 3.15751C73.1662 3.15751 72.7792 3.32727 72.46 3.66678C72.1477 3.99951 71.9915 4.4307 71.9915 4.96034Z" fill="white"/>
<path d="M77.8767 7.45579H76.9397V2.46489H77.836V3.27973H77.8767C77.9718 3.01491 78.1653 2.79083 78.4573 2.60749C78.7561 2.41736 79.0481 2.3223 79.3333 2.3223C79.6049 2.3223 79.8358 2.36304 80.0259 2.44452L79.7407 3.35103C79.6253 3.3035 79.4419 3.27973 79.1907 3.27973C78.8376 3.27973 78.5286 3.42233 78.2638 3.70753C78.0058 3.99272 77.8767 4.32545 77.8767 4.70571V7.45579Z" fill="white"/>
<path d="M87.2984 0.162968V1.05929H83.9779V3.3714H86.9725V4.24736H83.9779V6.55947H87.2984V7.45579H83.0409V0.162968H87.2984Z" fill="white"/>
<path d="M90.4402 6.76318C90.902 6.76318 91.2789 6.59682 91.5708 6.26409C91.8764 5.93136 92.0292 5.49678 92.0292 4.96034C92.0292 4.43749 91.8764 4.0063 91.5708 3.66678C91.2721 3.32727 90.8952 3.15751 90.4402 3.15751C89.9921 3.15751 89.6152 3.32727 89.3097 3.66678C89.0041 4.0063 88.8513 4.43749 88.8513 4.96034C88.8513 5.48999 89.0041 5.92118 89.3097 6.2539C89.6152 6.59342 89.9921 6.76318 90.4402 6.76318ZM90.2875 7.61876C89.6356 7.61876 89.0754 7.36073 88.6069 6.84466C88.1451 6.32181 87.9142 5.6937 87.9142 4.96034C87.9142 4.22699 88.1451 3.59888 88.6069 3.07602C89.0754 2.55996 89.6356 2.30193 90.2875 2.30193C90.6541 2.30193 90.9869 2.38001 91.2856 2.53619C91.5912 2.69237 91.8255 2.89948 91.9884 3.15751H92.0292L91.9884 2.46489V0.162968H92.9255V7.45579H92.0292V6.76318H91.9884C91.8255 7.02121 91.5912 7.22832 91.2856 7.3845C90.9869 7.54067 90.6541 7.61876 90.2875 7.61876Z" fill="white"/>
<path d="M98.4478 7.45579H97.5515V6.76318H97.5107C97.3681 7.00763 97.1475 7.21134 96.8487 7.37431C96.5567 7.53728 96.2511 7.61876 95.932 7.61876C95.3209 7.61876 94.8489 7.44561 94.5162 7.0993C94.1903 6.7462 94.0273 6.24711 94.0273 5.60203V2.46489H94.9644V5.54092C94.9847 6.35576 95.3955 6.76318 96.1968 6.76318C96.5703 6.76318 96.8826 6.61379 97.1339 6.31502C97.3851 6.00945 97.5107 5.64617 97.5107 5.22517V2.46489H98.4478V7.45579Z" fill="white"/>
<path d="M101.82 7.61876C101.08 7.61876 100.466 7.36752 99.9767 6.86503C99.4946 6.34897 99.2536 5.71407 99.2536 4.96034C99.2536 4.19304 99.4946 3.55814 99.9767 3.05565C100.466 2.55317 101.08 2.30193 101.82 2.30193C102.33 2.30193 102.774 2.43094 103.155 2.68897C103.535 2.94022 103.82 3.28992 104.01 3.73808L103.155 4.09458C102.89 3.46986 102.425 3.15751 101.759 3.15751C101.331 3.15751 100.961 3.33066 100.649 3.67697C100.343 4.02328 100.191 4.45107 100.191 4.96034C100.191 5.46962 100.343 5.89741 100.649 6.24372C100.961 6.59003 101.331 6.76318 101.759 6.76318C102.445 6.76318 102.927 6.45082 103.206 5.82611L104.041 6.1826C103.857 6.63077 103.569 6.98386 103.175 7.2419C102.788 7.49314 102.336 7.61876 101.82 7.61876Z" fill="white"/>
<path d="M105.493 5.92797C105.493 6.17242 105.595 6.37613 105.799 6.5391C106.009 6.70207 106.254 6.78355 106.532 6.78355C106.926 6.78355 107.275 6.63756 107.581 6.34557C107.893 6.05359 108.05 5.71068 108.05 5.31684C107.758 5.08596 107.35 4.97053 106.827 4.97053C106.447 4.97053 106.128 5.0622 105.87 5.24554C105.619 5.42888 105.493 5.65635 105.493 5.92797ZM106.705 2.30193C107.398 2.30193 107.944 2.48866 108.345 2.86213C108.746 3.22881 108.946 3.73469 108.946 4.37977V7.45579H108.05V6.76318H108.009C107.622 7.33357 107.106 7.61876 106.461 7.61876C105.911 7.61876 105.449 7.45579 105.075 7.12986C104.709 6.80392 104.525 6.3965 104.525 5.9076C104.525 5.39153 104.719 4.98071 105.106 4.67515C105.5 4.36958 106.023 4.2168 106.675 4.2168C107.231 4.2168 107.69 4.31866 108.05 4.52237V4.30847C108.05 3.98253 107.921 3.70753 107.663 3.48345C107.404 3.25257 107.102 3.13714 106.756 3.13714C106.233 3.13714 105.819 3.35782 105.513 3.7992L104.688 3.27973C105.143 2.62786 105.816 2.30193 106.705 2.30193Z" fill="white"/>
<path d="M111.879 7.53728C111.472 7.53728 111.132 7.41166 110.861 7.16041C110.596 6.90917 110.46 6.55947 110.453 6.11131V3.32048H109.577V2.46489H110.453V0.937067H111.39V2.46489H112.613V3.32048H111.39V5.80574C111.39 6.13847 111.455 6.36594 111.584 6.48817C111.713 6.60361 111.859 6.66132 112.022 6.66132C112.097 6.66132 112.168 6.65453 112.236 6.64095C112.31 6.62058 112.378 6.59682 112.44 6.56965L112.735 7.40487C112.49 7.49314 112.205 7.53728 111.879 7.53728Z" fill="white"/>
<path d="M114.766 0.743543C114.766 0.926882 114.701 1.08306 114.572 1.21208C114.443 1.34109 114.287 1.4056 114.104 1.4056C113.92 1.4056 113.764 1.34109 113.635 1.21208C113.506 1.08306 113.442 0.926882 113.442 0.743543C113.442 0.560204 113.506 0.404026 113.635 0.275009C113.764 0.145993 113.92 0.0814854 114.104 0.0814854C114.287 0.0814854 114.443 0.145993 114.572 0.275009C114.701 0.404026 114.766 0.560204 114.766 0.743543ZM114.572 2.46489V7.45579H113.635V2.46489H114.572Z" fill="white"/>
<path d="M115.457 4.96034C115.457 4.19304 115.698 3.55814 116.18 3.05565C116.669 2.55317 117.283 2.30193 118.024 2.30193C118.764 2.30193 119.375 2.55317 119.857 3.05565C120.346 3.55814 120.59 4.19304 120.59 4.96034C120.59 5.73444 120.346 6.36934 119.857 6.86503C119.375 7.36752 118.764 7.61876 118.024 7.61876C117.283 7.61876 116.669 7.36752 116.18 6.86503C115.698 6.36255 115.457 5.72765 115.457 4.96034ZM116.394 4.96034C116.394 5.49678 116.55 5.93136 116.862 6.26409C117.175 6.59682 117.562 6.76318 118.024 6.76318C118.485 6.76318 118.872 6.59682 119.185 6.26409C119.497 5.93136 119.653 5.49678 119.653 4.96034C119.653 4.4307 119.497 3.99951 119.185 3.66678C118.866 3.32727 118.479 3.15751 118.024 3.15751C117.569 3.15751 117.182 3.32727 116.862 3.66678C116.55 3.99951 116.394 4.4307 116.394 4.96034Z" fill="white"/>
<path d="M121.342 2.46489H122.238V3.15751H122.279C122.422 2.91306 122.639 2.70935 122.931 2.54638C123.23 2.38341 123.539 2.30193 123.858 2.30193C124.469 2.30193 124.938 2.47847 125.264 2.83157C125.596 3.17788 125.763 3.67357 125.763 4.31866V7.45579H124.826V4.37977C124.805 3.56493 124.394 3.15751 123.593 3.15751C123.22 3.15751 122.907 3.31029 122.656 3.61586C122.405 3.91463 122.279 4.27452 122.279 4.69552V7.45579H121.342V2.46489Z" fill="white"/>
</g>
<path d="M23.1351 12.6498C23.1351 11.8859 23.0674 11.1606 22.9514 10.4547H12.0244V14.8158H18.2808C18.0004 16.247 17.1785 17.4557 15.9601 18.2777V21.1786H19.6926C21.878 19.1576 23.1351 16.1793 23.1351 12.6498Z" fill="#4285F4"/>
<path d="M12.0235 24.0001C15.1565 24.0001 17.7771 22.9557 19.6917 21.1861L15.9591 18.2852C14.9148 18.9814 13.59 19.4069 12.0235 19.4069C8.99678 19.4069 6.43426 17.3665 5.51562 14.6106H1.66699V17.5986C3.57196 21.3892 7.48828 24.0001 12.0235 24.0001Z" fill="#34A853"/>
<path d="M5.51547 14.6069C5.27373 13.9106 5.14802 13.1661 5.14802 12.3925C5.14802 11.6189 5.2834 10.8743 5.51547 10.1781V7.19006H1.66685C0.873918 8.75659 0.419434 10.5165 0.419434 12.3925C0.419434 14.2684 0.873918 16.0284 1.66685 17.5949L5.51547 14.6069Z" fill="#FBBC05"/>
<path d="M12.0235 5.38386C13.735 5.38386 15.2629 5.97372 16.4716 7.12444L19.7787 3.81733C17.7771 1.94137 15.1565 0.790649 12.0235 0.790649C7.48828 0.790649 3.57196 3.40153 1.66699 7.19213L5.51562 10.1801C6.43426 7.42421 8.99678 5.38386 12.0235 5.38386Z" fill="#EA4335"/>
</svg>
