<svg width="531" height="1168" viewBox="0 0 531 1168" fill="none" xmlns="http://www.w3.org/2000/svg">
<g opacity="0.4">
<path d="M-128.876 1144.97C-128.876 1144.97 293.779 1015.25 72.4118 763.706C-148.955 512.161 248.55 501.934 137.417 187.622C16.9453 -153.148 -299.244 -92.7693 -299.244 -92.7693" stroke="url(#paint0_linear_1_67)" stroke-width="0.3702" stroke-miterlimit="10"/>
<path d="M-130.74 1141.16C-130.74 1141.16 287.953 1013.43 68.6337 763.017C48.9408 740.708 34.3213 720.23 23.6127 701.371C-84.8093 509.368 229.621 473.726 130.246 191.597C12.0092 -144.086 -298.725 -86.486 -302.332 -87.2947" stroke="url(#paint1_linear_1_67)" stroke-width="0.3702" stroke-miterlimit="10"/>
<path d="M-132.724 1137.17C-132.724 1137.17 282.178 1011.32 64.8548 762.328C45.5715 740.245 30.8993 720.059 20.1907 701.2C-87.9135 510.765 220.757 473.77 123.246 195.453C7.12506 -135.316 -298.089 -80.0299 -305.078 -82.0592" stroke="url(#paint2_linear_1_67)" stroke-width="0.3702" stroke-miterlimit="10"/>
<path d="M-134.588 1133.36C-134.588 1133.36 276.643 1009.56 61.0771 761.638C41.9128 739.728 27.5312 719.595 16.7699 701.029C-91.0166 512.161 211.894 473.814 116.076 199.428C2.18943 -126.254 -297.451 -73.5745 -308.166 -76.5851" stroke="url(#paint3_linear_1_67)" stroke-width="0.3702" stroke-miterlimit="10"/>
<path d="M-136.571 1129.38C-136.571 1129.38 270.869 1007.45 57.4703 760.83C38.7156 739.145 24.2813 719.305 13.52 700.738C-93.9487 513.437 203.201 473.738 109.129 202.992C-2.52258 -117.603 -296.59 -67.5304 -310.911 -71.3496" stroke="url(#paint4_linear_1_67)" stroke-width="0.3702" stroke-miterlimit="10"/>
<path d="M-138.435 1125.57C-138.435 1125.57 265.215 1005.51 53.6922 760.141C35.0565 738.629 20.7412 718.961 10.0989 700.567C-97.0521 514.834 194.219 473.61 101.958 206.968C-7.45874 -108.54 -296.124 -60.9543 -313.999 -65.8746" stroke="url(#paint5_linear_1_67)" stroke-width="0.3702" stroke-miterlimit="10"/>
<path d="M-140.419 1121.58C-140.419 1121.58 259.56 1003.58 49.9136 759.452C31.5158 738.285 17.4911 718.671 6.84875 700.277C-99.8128 515.991 185.355 473.654 95.1298 210.704C-12.171 -99.8901 -295.263 -54.9103 -316.573 -60.7588" stroke="url(#paint6_linear_1_67)" stroke-width="0.3702" stroke-miterlimit="10"/>
<path d="M-142.283 1117.77C-142.283 1117.77 254.42 1001.28 46.1354 758.763C28.0282 737.649 13.9508 718.326 3.42739 700.105C-102.916 517.387 176.491 473.697 88.1304 214.559C-16.9355 -90.9479 -294.626 -48.4548 -319.49 -55.4043" stroke="url(#paint7_linear_1_67)" stroke-width="0.3702" stroke-miterlimit="10"/>
<path d="M-144.267 1113.79C-144.267 1113.79 248.818 999.051 42.3566 758.074C24.4874 737.305 10.7006 718.036 0.00550507 699.934C-106.02 518.783 167.508 473.569 80.8398 218.362C-21.9913 -82.0583 -294.109 -42.1715 -322.698 -50.1024" stroke="url(#paint8_linear_1_67)" stroke-width="0.3702" stroke-miterlimit="10"/>
<path d="M-146.131 1109.97C-146.131 1109.97 243.164 997.114 38.7503 757.265C21.1718 736.55 7.33231 717.573 -3.24379 699.644C-108.952 520.06 158.816 473.494 74.0125 222.098C-26.5838 -73.2349 -293.299 -35.8348 -325.324 -44.6939" stroke="url(#paint9_linear_1_67)" stroke-width="0.3702" stroke-miterlimit="10"/>
<path d="M-148.114 1105.99C-148.114 1105.99 237.509 995.177 34.972 756.576C17.6314 736.206 3.91089 717.401 -6.66521 699.472C-112.056 521.456 149.952 473.537 66.8414 226.073C-31.6391 -64.3455 -292.781 -29.5518 -328.241 -39.3392" stroke="url(#paint10_linear_1_67)" stroke-width="0.3702" stroke-miterlimit="10"/>
<path d="M-149.979 1102.18C-149.979 1102.18 232.026 993.121 31.1935 755.887C14.1435 735.57 0.542105 716.938 -10.0867 699.301C-115.04 523.026 141.089 473.581 59.8418 229.929C-36.4039 -55.4026 -291.973 -23.2153 -331.158 -33.9841" stroke="url(#paint11_linear_1_67)" stroke-width="0.3702" stroke-miterlimit="10"/>
<path d="M-151.962 1098.19C-151.962 1098.19 226.252 991.011 27.4155 755.198C10.6034 735.226 -2.87904 716.767 -13.5078 699.13C-118.263 524.249 132.568 473.386 52.5521 233.732C-40.9965 -46.5795 -291.626 -16.8121 -334.365 -28.6818" stroke="url(#paint12_linear_1_67)" stroke-width="0.3702" stroke-miterlimit="10"/>
<path d="M-153.826 1094.38C-153.826 1094.38 220.717 989.247 23.6373 754.509C6.94416 734.71 -6.41948 716.424 -16.9293 698.959C-121.367 525.646 123.705 473.43 45.5526 237.588C-45.7085 -37.9291 -290.817 -10.4759 -337.163 -23.1543" stroke="url(#paint13_linear_1_67)" stroke-width="0.3702" stroke-miterlimit="10"/>
<path d="M-155.81 1090.4C-155.81 1090.4 214.942 987.137 20.0298 753.7C3.74634 734.127 -9.49816 716.013 -20.1797 698.668C-124.18 527.095 114.893 473.182 38.5526 241.443C-50.4738 -28.9867 -290.181 -4.02018 -339.909 -17.9192" stroke="url(#paint14_linear_1_67)" stroke-width="0.3702" stroke-miterlimit="10"/>
<path d="M-157.674 1086.58C-157.674 1086.58 209.46 985.08 16.3711 753.184C0.206556 733.783 -12.9191 715.841 -23.4816 698.67C-127.164 528.664 106.149 473.398 31.6727 245.472C-55.1188 -19.8716 -289.372 2.31604 -342.707 -12.3916" stroke="url(#paint15_linear_1_67)" stroke-width="0.3702" stroke-miterlimit="10"/>
<path d="M-159.538 1082.77C-159.538 1082.77 203.805 983.143 12.5928 752.495C-3.33377 733.439 -16.1687 715.551 -26.9029 698.499C-130.268 530.06 97.2849 473.442 24.3826 249.274C-60.1741 -10.9819 -289.025 8.7189 -345.914 -7.08975" stroke="url(#paint16_linear_1_67)" stroke-width="0.3702" stroke-miterlimit="10"/>
<path d="M-161.521 1078.79C-161.521 1078.79 198.151 981.207 8.8147 751.806C-6.82125 732.803 -19.7089 715.207 -30.3242 698.328C-133.371 531.456 88.4214 473.486 17.3834 253.13C-64.9386 -2.03904 -288.216 15.0555 -348.831 -1.73444" stroke="url(#paint17_linear_1_67)" stroke-width="0.3702" stroke-miterlimit="10"/>
<path d="M-163.386 1074.98C-163.386 1074.98 192.496 979.269 5.20776 750.997C-10.1903 732.339 -22.9589 714.916 -33.4025 697.916C-135.96 532.493 79.7816 473.118 10.5553 256.866C-69.3602 6.66352 -287.236 21.2713 -351.457 3.6727" stroke="url(#paint18_linear_1_67)" stroke-width="0.3702" stroke-miterlimit="10"/>
<path d="M-165.369 1070.99C-165.369 1070.99 186.894 977.041 1.42999 750.308C-13.5584 731.876 -26.3272 714.453 -36.8235 697.746C-139.407 534.129 70.9184 473.162 3.55642 260.722C-74.2432 15.4342 -286.718 27.5553 -354.202 8.90868" stroke="url(#paint19_linear_1_67)" stroke-width="0.3702" stroke-miterlimit="10"/>
<path d="M-167.234 1067.18C-167.234 1067.18 181.358 975.277 -2.34902 749.62C-17.2185 731.36 -29.7492 714.282 -40.2455 697.575C-142.511 535.526 62.054 473.207 -3.56259 264.406C-79.1274 24.2046 -286.029 33.7194 -357.239 14.0915" stroke="url(#paint20_linear_1_67)" stroke-width="0.3702" stroke-miterlimit="10"/>
<path d="M-169.045 1063.08C-169.045 1063.08 175.756 973.047 -5.95562 748.81C-20.5871 730.897 -33.118 713.819 -43.3763 697.457C-145.324 536.975 53.4809 473.303 -10.443 268.434C-83.7731 33.3197 -285.273 40.3478 -360.036 19.6189" stroke="url(#paint21_linear_1_67)" stroke-width="0.3702" stroke-miterlimit="10"/>
<path d="M-170.91 1059.27C-170.91 1059.27 170.101 971.111 -9.7341 748.122C-24.075 730.261 -36.3678 713.528 -46.7978 697.286C-148.428 538.372 44.4981 473.175 -17.4426 272.29C-88.5378 42.2626 -284.464 46.6843 -362.834 25.1468" stroke="url(#paint22_linear_1_67)" stroke-width="0.3702" stroke-miterlimit="10"/>
<path d="M-172.893 1055.28C-172.893 1055.28 164.447 969.173 -13.3403 747.313C-27.4432 729.797 -39.7362 713.064 -50.0472 696.995C-151.36 539.648 35.8063 473.099 -24.5606 275.972C-93.4211 51.032 -283.774 52.8473 -365.698 30.2088" stroke="url(#paint23_linear_1_67)" stroke-width="0.3702" stroke-miterlimit="10"/>
<path d="M-174.757 1051.47C-174.757 1051.47 158.792 967.236 -17.119 746.623C-30.9313 729.161 -43.1579 712.893 -53.4689 696.823C-154.464 541.044 26.9423 473.142 -31.5604 279.828C-98.305 59.8016 -283.256 59.1303 -368.616 35.5635" stroke="url(#paint24_linear_1_67)" stroke-width="0.3702" stroke-miterlimit="10"/>
<path d="M-176.741 1047.48C-176.741 1047.48 153.018 965.127 -20.8975 745.935C-34.4719 728.817 -46.5268 712.43 -56.8905 696.653C-157.567 542.44 18.0783 473.187 -38.7317 283.803C-103.242 68.8643 -282.619 65.5867 -371.704 41.0385" stroke="url(#paint25_linear_1_67)" stroke-width="0.3702" stroke-miterlimit="10"/>
<path d="M-178.605 1043.67C-178.605 1043.67 147.482 963.363 -24.6759 745.246C-38.1313 728.301 -49.9482 712.259 -60.3119 696.482C-160.671 543.837 9.09548 473.058 -45.7312 287.659C-107.835 77.6874 -281.982 72.0427 -374.502 46.5663" stroke="url(#paint26_linear_1_67)" stroke-width="0.3702" stroke-miterlimit="10"/>
<path d="M-180.589 1039.69C-180.589 1039.69 141.708 961.253 -28.4544 744.556C-41.5002 727.837 -53.3172 711.795 -63.7336 696.31C-163.775 545.233 0.231485 473.102 -53.0215 291.462C-112.89 86.5768 -281.464 78.3258 -377.538 51.7483" stroke="url(#paint27_linear_1_67)" stroke-width="0.3702" stroke-miterlimit="10"/>
<path d="M-182.452 1035.88C-182.452 1035.88 136.054 959.316 -32.0606 743.748C-44.9874 727.202 -56.5664 711.505 -66.9829 696.02C-166.706 546.51 -8.46002 473.027 -59.8486 295.198C-117.601 95.2277 -280.774 84.4899 -380.283 56.9841" stroke="url(#paint28_linear_1_67)" stroke-width="0.3702" stroke-miterlimit="10"/>
<path d="M-184.436 1031.89C-184.436 1031.89 130.4 957.379 -35.8388 743.059C-48.5277 726.857 -60.1067 711.161 -70.4042 695.848C-169.81 547.906 -17.4428 472.897 -67.0198 299.173C-122.538 104.29 -280.137 90.9454 -383.372 62.4583" stroke="url(#paint29_linear_1_67)" stroke-width="0.3702" stroke-miterlimit="10"/>
<path d="M-186.3 1028.08C-186.3 1028.08 124.745 955.442 -39.617 742.37C-52.0153 726.221 -63.3564 710.87 -73.6539 695.558C-172.451 549.235 -26.1348 472.822 -73.8475 302.909C-127.131 113.112 -279.157 97.1621 -386.117 67.6938" stroke="url(#paint30_linear_1_67)" stroke-width="0.3702" stroke-miterlimit="10"/>
<path d="M-188.283 1024.1C-188.283 1024.1 118.971 953.333 -43.3955 741.681C-55.5558 725.878 -66.8968 710.526 -77.0753 695.387C-175.555 550.632 -34.9986 472.866 -80.9659 306.593C-132.014 121.883 -278.639 103.446 -388.862 72.9292" stroke="url(#paint31_linear_1_67)" stroke-width="0.3702" stroke-miterlimit="10"/>
<path d="M-190.148 1020.28C-190.148 1020.28 113.435 951.569 -47.0027 740.872C-59.044 725.242 -70.1472 710.236 -80.3257 695.096C-177.801 551.43 -43.6913 472.791 -87.9659 310.449C-136.779 130.826 -277.83 109.782 -391.78 78.2845" stroke="url(#paint32_linear_1_67)" stroke-width="0.3702" stroke-miterlimit="10"/>
<path d="M-192.012 1016.47C-192.012 1016.47 107.78 949.631 -50.6618 740.355C-62.2935 724.951 -73.3965 709.945 -83.6277 695.097C-180.785 552.999 -52.5547 472.834 -94.846 314.477C-141.544 139.768 -277.193 116.238 -394.577 83.8117" stroke="url(#paint33_linear_1_67)" stroke-width="0.3702" stroke-miterlimit="10"/>
<path d="M-193.995 1012.49C-193.995 1012.49 102.126 947.695 -54.559 739.494C-66.0717 724.262 -76.937 709.601 -87.1682 694.754C-184.695 554.701 -61.7091 472.825 -102.136 318.28C-146.599 148.658 -276.675 122.521 -397.785 89.114" stroke="url(#paint34_linear_1_67)" stroke-width="0.3702" stroke-miterlimit="10"/>
<path d="M-195.859 1008.68C-195.859 1008.68 96.4715 945.758 -58.2181 738.977C-69.3212 723.971 -80.1864 709.31 -90.4703 694.755C-187.679 556.27 -70.4536 473.042 -109.135 322.135C-151.363 157.6 -275.866 128.857 -400.582 94.6413" stroke="url(#paint35_linear_1_67)" stroke-width="0.3702" stroke-miterlimit="10"/>
<path d="M-197.843 1004.69C-197.843 1004.69 90.6973 943.649 -61.9969 738.289C-72.9811 723.455 -83.6083 709.14 -93.8923 694.585C-190.783 557.667 -79.3179 473.086 -116.307 326.111C-156.3 166.663 -275.401 135.433 -403.5 99.9969" stroke="url(#paint36_linear_1_67)" stroke-width="0.3702" stroke-miterlimit="10"/>
<path d="M-199.707 1000.88C-199.707 1000.88 84.9904 942.003 -65.603 737.48C-76.3493 722.991 -86.9766 708.675 -97.1415 694.293C-193.715 558.943 -88.1285 472.837 -123.134 329.846C-161.012 175.313 -274.42 141.649 -406.245 105.231" stroke="url(#paint37_linear_1_67)" stroke-width="0.3702" stroke-miterlimit="10"/>
<path d="M-201.691 996.895C-201.691 996.895 79.2167 939.894 -69.3815 736.791C-79.8371 722.355 -90.2264 708.385 -100.563 694.122C-196.647 560.22 -96.9924 472.881 -130.305 333.822C-165.948 184.375 -274.074 148.053 -409.333 110.706" stroke="url(#paint38_linear_1_67)" stroke-width="0.3702" stroke-miterlimit="10"/>
<path d="M-203.555 993.084C-203.555 993.084 73.5622 937.958 -73.1596 736.102C-83.3773 722.012 -93.7666 708.042 -103.984 693.952C-199.75 561.617 -106.028 473.045 -137.424 337.506C-170.831 193.146 -273.384 154.217 -412.369 115.889" stroke="url(#paint39_linear_1_67)" stroke-width="0.3702" stroke-miterlimit="10"/>
<path d="M-205.538 989.099C-205.538 989.099 67.736 936.14 -76.9377 735.413C-87.0364 721.495 -97.016 707.75 -107.405 693.78C-202.682 562.893 -115.01 472.916 -144.594 341.48C-175.939 202.327 -272.918 160.792 -415.167 121.416" stroke="url(#paint40_linear_1_67)" stroke-width="0.3702" stroke-miterlimit="10"/>
<path d="M-207.231 985.168C-207.231 985.168 62.2525 934.084 -80.5449 734.604C-90.234 720.913 -100.385 707.288 -110.656 693.49C-205.443 564.05 -123.703 472.841 -151.423 345.217C-180.652 210.978 -271.939 167.009 -417.913 126.652" stroke="url(#paint41_linear_1_67)" stroke-width="0.3702" stroke-miterlimit="10"/>
<path d="M-209.214 981.183C-209.214 981.183 56.3073 932.094 -84.1514 733.795C-93.6026 720.449 -103.463 706.877 -113.734 693.079C-208.203 565.207 -132.223 472.645 -158.25 348.953C-185.245 219.8 -271.077 173.052 -420.658 131.887" stroke="url(#paint42_linear_1_67)" stroke-width="0.3702" stroke-miterlimit="10"/>
<path d="M-211.079 977.372C-211.079 977.372 50.7712 930.33 -87.9301 733.107C-97.2623 719.933 -106.885 706.706 -117.155 692.908C-211.307 566.604 -141.378 472.637 -165.369 352.636C-190.128 228.571 -270.559 179.336 -423.694 137.07" stroke="url(#paint43_linear_1_67)" stroke-width="0.3702" stroke-miterlimit="10"/>
<path d="M-213.061 973.387C-213.061 973.387 44.8265 928.339 -91.7077 732.417C-100.63 719.469 -110.425 706.362 -120.576 692.737C-214.291 568.172 -150.241 472.68 -172.368 356.491C-195.183 237.46 -269.75 185.672 -426.319 142.477" stroke="url(#paint44_linear_1_67)" stroke-width="0.3702" stroke-miterlimit="10"/>
<path d="M-214.926 969.576C-214.926 969.576 40.8886 925.207 -95.4861 731.729C-104.461 719.073 -113.675 706.072 -123.998 692.566C-217.395 569.569 -159.276 472.844 -179.539 360.467C-200.119 246.523 -269.285 192.248 -429.408 147.953" stroke="url(#paint45_linear_1_67)" stroke-width="0.3702" stroke-miterlimit="10"/>
<path d="M-216.91 965.592C-216.91 965.592 34.89 923.509 -99.0933 730.92C-107.659 718.49 -117.044 705.608 -127.129 692.448C-220.208 571.018 -167.969 472.769 -186.248 364.376C-204.713 255.346 -268.186 198.638 -432.035 153.36" stroke="url(#paint46_linear_1_67)" stroke-width="0.3702" stroke-miterlimit="10"/>
<path d="M-218.773 961.778C-218.773 961.778 27.519 922.767 -102.871 730.23C-111.146 717.853 -120.293 705.316 -130.55 692.276C-223.312 572.413 -177.004 472.931 -193.538 368.178C-209.939 264.354 -267.958 204.867 -435.242 158.661" stroke="url(#paint47_linear_1_67)" stroke-width="0.3702" stroke-miterlimit="10"/>
<path d="M-220.638 957.968C-220.638 957.968 21.6922 920.951 -106.531 729.714C-114.568 717.682 -123.715 705.146 -133.853 692.278C-226.297 573.983 -185.868 472.976 -200.419 372.207C-214.586 273.47 -267.031 211.377 -437.75 164.243" stroke="url(#paint48_linear_1_67)" stroke-width="0.3702" stroke-miterlimit="10"/>
<path d="M-222.621 953.983C-222.621 953.983 15.5227 919.372 -110.428 728.852C-118.346 716.993 -127.255 704.802 -137.393 691.934C-229.519 575.207 -195.022 472.967 -207.709 376.009C-219.931 282.307 -266.512 217.659 -440.957 169.544" stroke="url(#paint49_linear_1_67)" stroke-width="0.3702" stroke-miterlimit="10"/>
<path d="M-224.486 950.171C-224.486 950.171 9.86798 917.435 -114.087 728.335C-121.768 716.821 -130.505 704.511 -140.696 691.935C-232.504 576.775 -204.23 473.25 -214.589 380.037C-224.868 291.368 -265.756 224.288 -443.755 175.072" stroke="url(#paint50_linear_1_67)" stroke-width="0.3702" stroke-miterlimit="10"/>
<path d="M-226.469 946.187C-226.469 946.187 32.9956 911.54 -144.064 691.473C-321.124 471.405 -71.2936 283.752 -446.619 180.135" stroke="url(#paint51_linear_1_67)" stroke-width="0.3702" stroke-miterlimit="10"/>
</g>
<defs>
<linearGradient id="paint0_linear_1_67" x1="450.329" y1="774.435" x2="-201.502" y2="-160.886" gradientUnits="userSpaceOnUse">
<stop stop-color="#B900FA"/>
<stop offset="1" stop-color="#7926FF"/>
</linearGradient>
<linearGradient id="paint1_linear_1_67" x1="442.029" y1="775.014" x2="-205.802" y2="-154.567" gradientUnits="userSpaceOnUse">
<stop stop-color="#B900FA"/>
<stop offset="1" stop-color="#7926FF"/>
</linearGradient>
<linearGradient id="paint2_linear_1_67" x1="433.765" y1="775.336" x2="-209.957" y2="-148.349" gradientUnits="userSpaceOnUse">
<stop stop-color="#B900FA"/>
<stop offset="1" stop-color="#7926FF"/>
</linearGradient>
<linearGradient id="paint3_linear_1_67" x1="425.508" y1="775.971" x2="-214.254" y2="-142.033" gradientUnits="userSpaceOnUse">
<stop stop-color="#B900FA"/>
<stop offset="1" stop-color="#7926FF"/>
</linearGradient>
<linearGradient id="paint4_linear_1_67" x1="417.407" y1="776.181" x2="-218.247" y2="-135.928" gradientUnits="userSpaceOnUse">
<stop stop-color="#B900FA"/>
<stop offset="1" stop-color="#7926FF"/>
</linearGradient>
<linearGradient id="paint5_linear_1_67" x1="409.105" y1="776.763" x2="-222.549" y2="-129.607" gradientUnits="userSpaceOnUse">
<stop stop-color="#B900FA"/>
<stop offset="1" stop-color="#7926FF"/>
</linearGradient>
<linearGradient id="paint6_linear_1_67" x1="401.048" y1="777.028" x2="-226.539" y2="-123.505" gradientUnits="userSpaceOnUse">
<stop stop-color="#B900FA"/>
<stop offset="1" stop-color="#7926FF"/>
</linearGradient>
<linearGradient id="paint7_linear_1_67" x1="392.901" y1="777.501" x2="-230.686" y2="-117.292" gradientUnits="userSpaceOnUse">
<stop stop-color="#B900FA"/>
<stop offset="1" stop-color="#7926FF"/>
</linearGradient>
<linearGradient id="paint8_linear_1_67" x1="384.505" y1="777.917" x2="-235.094" y2="-111.154" gradientUnits="userSpaceOnUse">
<stop stop-color="#B900FA"/>
<stop offset="1" stop-color="#7926FF"/>
</linearGradient>
<linearGradient id="paint9_linear_1_67" x1="376.514" y1="778.284" x2="-238.967" y2="-104.877" gradientUnits="userSpaceOnUse">
<stop stop-color="#B900FA"/>
<stop offset="1" stop-color="#7926FF"/>
</linearGradient>
<linearGradient id="paint10_linear_1_67" x1="368.163" y1="778.755" x2="-243.25" y2="-98.5701" gradientUnits="userSpaceOnUse">
<stop stop-color="#B900FA"/>
<stop offset="1" stop-color="#7926FF"/>
</linearGradient>
<linearGradient id="paint11_linear_1_67" x1="360.034" y1="779.219" x2="-247.381" y2="-92.3691" gradientUnits="userSpaceOnUse">
<stop stop-color="#B900FA"/>
<stop offset="1" stop-color="#7926FF"/>
</linearGradient>
<linearGradient id="paint12_linear_1_67" x1="351.739" y1="779.566" x2="-251.688" y2="-86.3003" gradientUnits="userSpaceOnUse">
<stop stop-color="#B900FA"/>
<stop offset="1" stop-color="#7926FF"/>
</linearGradient>
<linearGradient id="paint13_linear_1_67" x1="343.707" y1="780.049" x2="-255.643" y2="-79.9664" gradientUnits="userSpaceOnUse">
<stop stop-color="#B900FA"/>
<stop offset="1" stop-color="#7926FF"/>
</linearGradient>
<linearGradient id="paint14_linear_1_67" x1="335.47" y1="780.355" x2="-259.773" y2="-73.7667" gradientUnits="userSpaceOnUse">
<stop stop-color="#B900FA"/>
<stop offset="1" stop-color="#7926FF"/>
</linearGradient>
<linearGradient id="paint15_linear_1_67" x1="327.365" y1="780.827" x2="-263.771" y2="-67.4025" gradientUnits="userSpaceOnUse">
<stop stop-color="#B900FA"/>
<stop offset="1" stop-color="#7926FF"/>
</linearGradient>
<linearGradient id="paint16_linear_1_67" x1="319.092" y1="781.392" x2="-268.166" y2="-61.2725" gradientUnits="userSpaceOnUse">
<stop stop-color="#B900FA"/>
<stop offset="1" stop-color="#7926FF"/>
</linearGradient>
<linearGradient id="paint17_linear_1_67" x1="310.916" y1="781.746" x2="-272.277" y2="-55.0851" gradientUnits="userSpaceOnUse">
<stop stop-color="#B900FA"/>
<stop offset="1" stop-color="#7926FF"/>
</linearGradient>
<linearGradient id="paint18_linear_1_67" x1="303.013" y1="782.052" x2="-276.062" y2="-48.8709" gradientUnits="userSpaceOnUse">
<stop stop-color="#B900FA"/>
<stop offset="1" stop-color="#7926FF"/>
</linearGradient>
<linearGradient id="paint19_linear_1_67" x1="294.796" y1="782.349" x2="-280.173" y2="-42.6825" gradientUnits="userSpaceOnUse">
<stop stop-color="#B900FA"/>
<stop offset="1" stop-color="#7926FF"/>
</linearGradient>
<linearGradient id="paint20_linear_1_67" x1="286.741" y1="782.851" x2="-284.392" y2="-36.6755" gradientUnits="userSpaceOnUse">
<stop stop-color="#B900FA"/>
<stop offset="1" stop-color="#7926FF"/>
</linearGradient>
<linearGradient id="paint21_linear_1_67" x1="278.552" y1="783.128" x2="-288.356" y2="-30.3359" gradientUnits="userSpaceOnUse">
<stop stop-color="#B900FA"/>
<stop offset="1" stop-color="#7926FF"/>
</linearGradient>
<linearGradient id="paint22_linear_1_67" x1="270.466" y1="783.564" x2="-292.324" y2="-23.9922" gradientUnits="userSpaceOnUse">
<stop stop-color="#B900FA"/>
<stop offset="1" stop-color="#7926FF"/>
</linearGradient>
<linearGradient id="paint23_linear_1_67" x1="262.322" y1="783.899" x2="-296.525" y2="-17.9983" gradientUnits="userSpaceOnUse">
<stop stop-color="#B900FA"/>
<stop offset="1" stop-color="#7926FF"/>
</linearGradient>
<linearGradient id="paint24_linear_1_67" x1="254.236" y1="784.335" x2="-300.614" y2="-11.8271" gradientUnits="userSpaceOnUse">
<stop stop-color="#B900FA"/>
<stop offset="1" stop-color="#7926FF"/>
</linearGradient>
<linearGradient id="paint25_linear_1_67" x1="245.911" y1="784.709" x2="-304.834" y2="-5.56351" gradientUnits="userSpaceOnUse">
<stop stop-color="#B900FA"/>
<stop offset="1" stop-color="#7926FF"/>
</linearGradient>
<linearGradient id="paint26_linear_1_67" x1="237.937" y1="785.158" x2="-308.734" y2="0.732125" gradientUnits="userSpaceOnUse">
<stop stop-color="#B900FA"/>
<stop offset="1" stop-color="#7926FF"/>
</linearGradient>
<linearGradient id="paint27_linear_1_67" x1="229.629" y1="785.52" x2="-313.058" y2="6.8116" gradientUnits="userSpaceOnUse">
<stop stop-color="#B900FA"/>
<stop offset="1" stop-color="#7926FF"/>
</linearGradient>
<linearGradient id="paint28_linear_1_67" x1="221.725" y1="785.833" x2="-316.966" y2="12.858" gradientUnits="userSpaceOnUse">
<stop stop-color="#B900FA"/>
<stop offset="1" stop-color="#7926FF"/>
</linearGradient>
<linearGradient id="paint29_linear_1_67" x1="213.476" y1="786.244" x2="-321.153" y2="19.0977" gradientUnits="userSpaceOnUse">
<stop stop-color="#B900FA"/>
<stop offset="1" stop-color="#7926FF"/>
</linearGradient>
<linearGradient id="paint30_linear_1_67" x1="205.606" y1="786.534" x2="-325.028" y2="25.1203" gradientUnits="userSpaceOnUse">
<stop stop-color="#B900FA"/>
<stop offset="1" stop-color="#7926FF"/>
</linearGradient>
<linearGradient id="paint31_linear_1_67" x1="197.475" y1="786.775" x2="-329.055" y2="31.2496" gradientUnits="userSpaceOnUse">
<stop stop-color="#B900FA"/>
<stop offset="1" stop-color="#7926FF"/>
</linearGradient>
<linearGradient id="paint32_linear_1_67" x1="189.519" y1="787.215" x2="-333.059" y2="37.3615" gradientUnits="userSpaceOnUse">
<stop stop-color="#B900FA"/>
<stop offset="1" stop-color="#7926FF"/>
</linearGradient>
<linearGradient id="paint33_linear_1_67" x1="181.531" y1="787.613" x2="-336.944" y2="43.6465" gradientUnits="userSpaceOnUse">
<stop stop-color="#B900FA"/>
<stop offset="1" stop-color="#7926FF"/>
</linearGradient>
<linearGradient id="paint34_linear_1_67" x1="173.335" y1="787.966" x2="-341.188" y2="49.671" gradientUnits="userSpaceOnUse">
<stop stop-color="#B900FA"/>
<stop offset="1" stop-color="#7926FF"/>
</linearGradient>
<linearGradient id="paint35_linear_1_67" x1="165.396" y1="788.331" x2="-345.024" y2="55.9222" gradientUnits="userSpaceOnUse">
<stop stop-color="#B900FA"/>
<stop offset="1" stop-color="#7926FF"/>
</linearGradient>
<linearGradient id="paint36_linear_1_67" x1="157.189" y1="788.63" x2="-349.13" y2="62.106" gradientUnits="userSpaceOnUse">
<stop stop-color="#B900FA"/>
<stop offset="1" stop-color="#7926FF"/>
</linearGradient>
<linearGradient id="paint37_linear_1_67" x1="149.471" y1="788.906" x2="-352.896" y2="68.0524" gradientUnits="userSpaceOnUse">
<stop stop-color="#B900FA"/>
<stop offset="1" stop-color="#7926FF"/>
</linearGradient>
<linearGradient id="paint38_linear_1_67" x1="141.304" y1="789.178" x2="-356.962" y2="74.2085" gradientUnits="userSpaceOnUse">
<stop stop-color="#B900FA"/>
<stop offset="1" stop-color="#7926FF"/>
</linearGradient>
<linearGradient id="paint39_linear_1_67" x1="133.441" y1="789.467" x2="-360.951" y2="80.056" gradientUnits="userSpaceOnUse">
<stop stop-color="#B900FA"/>
<stop offset="1" stop-color="#7926FF"/>
</linearGradient>
<linearGradient id="paint40_linear_1_67" x1="125.306" y1="789.808" x2="-364.909" y2="86.3912" gradientUnits="userSpaceOnUse">
<stop stop-color="#B900FA"/>
<stop offset="1" stop-color="#7926FF"/>
</linearGradient>
<linearGradient id="paint41_linear_1_67" x1="117.673" y1="789.937" x2="-368.549" y2="92.2502" gradientUnits="userSpaceOnUse">
<stop stop-color="#B900FA"/>
<stop offset="1" stop-color="#7926FF"/>
</linearGradient>
<linearGradient id="paint42_linear_1_67" x1="109.949" y1="789.902" x2="-372.173" y2="98.0977" gradientUnits="userSpaceOnUse">
<stop stop-color="#B900FA"/>
<stop offset="1" stop-color="#7926FF"/>
</linearGradient>
<linearGradient id="paint43_linear_1_67" x1="102.234" y1="790.181" x2="-376.059" y2="103.873" gradientUnits="userSpaceOnUse">
<stop stop-color="#B900FA"/>
<stop offset="1" stop-color="#7926FF"/>
</linearGradient>
<linearGradient id="paint44_linear_1_67" x1="94.378" y1="790.24" x2="-379.696" y2="109.985" gradientUnits="userSpaceOnUse">
<stop stop-color="#B900FA"/>
<stop offset="1" stop-color="#7926FF"/>
</linearGradient>
<linearGradient id="paint45_linear_1_67" x1="86.5544" y1="790.505" x2="-383.527" y2="115.978" gradientUnits="userSpaceOnUse">
<stop stop-color="#B900FA"/>
<stop offset="1" stop-color="#7926FF"/>
</linearGradient>
<linearGradient id="paint46_linear_1_67" x1="79.0505" y1="790.412" x2="-386.857" y2="121.876" gradientUnits="userSpaceOnUse">
<stop stop-color="#B900FA"/>
<stop offset="1" stop-color="#7926FF"/>
</linearGradient>
<linearGradient id="paint47_linear_1_67" x1="71.2614" y1="790.653" x2="-390.774" y2="127.671" gradientUnits="userSpaceOnUse">
<stop stop-color="#B900FA"/>
<stop offset="1" stop-color="#7926FF"/>
</linearGradient>
<linearGradient id="paint48_linear_1_67" x1="63.8027" y1="790.694" x2="-394.016" y2="133.764" gradientUnits="userSpaceOnUse">
<stop stop-color="#B900FA"/>
<stop offset="1" stop-color="#7926FF"/>
</linearGradient>
<linearGradient id="paint49_linear_1_67" x1="56.0948" y1="790.717" x2="-397.776" y2="139.451" gradientUnits="userSpaceOnUse">
<stop stop-color="#B900FA"/>
<stop offset="1" stop-color="#7926FF"/>
</linearGradient>
<linearGradient id="paint50_linear_1_67" x1="48.6528" y1="790.748" x2="-401.121" y2="145.36" gradientUnits="userSpaceOnUse">
<stop stop-color="#B900FA"/>
<stop offset="1" stop-color="#7926FF"/>
</linearGradient>
<linearGradient id="paint51_linear_1_67" x1="41.3205" y1="790.468" x2="-404.487" y2="150.773" gradientUnits="userSpaceOnUse">
<stop stop-color="#B900FA"/>
<stop offset="1" stop-color="#7926FF"/>
</linearGradient>
</defs>
</svg>
