<svg width="56" height="24" viewBox="0 0 56 24" fill="none" xmlns="http://www.w3.org/2000/svg">
<circle cx="12.0209" cy="12.0208" r="9.61662" fill="white"/>
<path fill-rule="evenodd" clip-rule="evenodd" d="M0 12C0 5.37318 5.37318 0 12 0C18.6268 0 24 5.37318 24 12C24 18.6268 18.6268 24 12 24C5.37318 24 0 18.6268 0 12ZM15.9683 11.7603V7.77654C15.9286 6.38597 15.1397 5.17824 13.9829 4.52674C13.4005 4.19712 12.7228 4.00914 12.0001 4.00914H11.9974C11.2747 4.00914 10.597 4.19712 10.012 4.52931C8.826 5.19884 8.02652 6.45035 8.02917 7.88212C8.02917 9.31646 8.82864 10.568 10.0146 11.2375C10.5917 11.562 11.2588 11.75 11.9736 11.7551H11.9974H12.0001C12.009 11.7551 12.0186 11.7545 12.0285 11.7539C12.0391 11.7532 12.05 11.7525 12.061 11.7525C12.5851 11.7216 12.9981 11.3019 12.9981 10.7869C12.9981 10.7148 12.9902 10.6427 12.9743 10.5757C12.8763 10.1431 12.4766 9.81861 12.0001 9.81861H11.9974C10.9015 9.81861 10.012 8.9508 10.012 7.88212C10.012 6.81344 10.9015 5.94563 11.9974 5.94563H12.0001C13.0722 5.94563 13.9458 6.77739 13.9829 7.81517C13.9836 7.8352 13.9834 7.84744 13.9831 7.86013C13.983 7.86664 13.9829 7.87327 13.9829 7.88113V7.95422V11.8427C13.9829 12.0641 13.8002 12.2418 13.5726 12.2418H11.9974C11.2747 12.2418 10.597 12.4298 10.012 12.7594C9.4084 13.0993 8.90806 13.5886 8.55862 14.1731C8.23301 14.7242 8.03976 15.3577 8.02652 16.035V16.1843C8.05299 17.5852 8.84453 18.8032 10.012 19.4624C10.597 19.7921 11.2747 19.98 11.9974 19.98C12.7201 19.98 13.3978 19.7921 13.9829 19.4624C15.1689 18.7929 15.9683 17.544 15.9683 16.1122V16.1071V16.0839C15.9551 15.5611 15.5157 15.1414 14.9756 15.1414C14.4276 15.1414 13.9829 15.574 13.9829 16.1096C13.9829 17.1783 13.0934 18.0436 11.9974 18.0436C10.9015 18.0436 10.012 17.1783 10.012 16.1096C10.012 15.0487 10.8856 14.1886 11.971 14.1757H11.9974H12.0239H13.9829C14.4303 14.1757 14.8432 14.0315 15.1742 13.7895C15.656 13.4367 15.9683 12.8779 15.9683 12.2444V11.7603Z" fill="#0DBA4B"/>
<path d="M32.1002 15.9793C33.2816 15.9793 34.2268 15.58 34.9019 15.1365C35.2283 14.9368 35.3858 14.6596 35.3858 14.2714V12.1976C35.3858 11.8095 35.082 11.5101 34.6881 11.5101H32.494C32.1564 11.5101 31.8751 11.7762 31.8751 12.1089C31.8751 12.4416 32.1564 12.6967 32.494 12.6967H34.0468V14.1495C33.5629 14.5043 32.8878 14.7372 32.1452 14.7372C30.5361 14.7372 29.4672 13.5617 29.4672 11.9647V11.9426C29.4672 10.4565 30.5699 9.20335 32.0214 9.20335C32.8766 9.20335 33.4279 9.44733 33.9343 9.8133C34.0468 9.89093 34.1818 9.96856 34.3618 9.96856C34.7444 9.96856 35.0482 9.65804 35.0482 9.29207C35.0482 9.02592 34.9019 8.83739 34.7669 8.73758C34.0468 8.22744 33.2591 7.9502 32.0777 7.9502C29.7034 7.9502 28.0156 9.79112 28.0156 11.9647V11.9869C28.0156 14.2493 29.6359 15.9793 32.1002 15.9793Z" fill="white"/>
<path d="M40.4175 15.9682C42.4767 15.9682 43.8044 14.8038 43.8044 12.486V8.70431C43.8044 8.32725 43.5006 8.02782 43.118 8.02782C42.7242 8.02782 42.4204 8.32725 42.4204 8.70431V12.5525C42.4204 13.9831 41.6665 14.7039 40.44 14.7039C39.2023 14.7039 38.4484 13.9387 38.4484 12.4971V8.70431C38.4484 8.32725 38.1446 8.02782 37.762 8.02782C37.3682 8.02782 37.0644 8.32725 37.0644 8.70431V12.5525C37.0644 14.8038 38.3696 15.9682 40.4175 15.9682Z" fill="white"/>
<path d="M48.776 15.9571H48.8548C49.2486 15.9571 49.5074 15.7464 49.6537 15.4026L52.4217 8.97047C52.4555 8.89284 52.4892 8.78194 52.4892 8.68213C52.4892 8.31616 52.1854 8.02782 51.8028 8.02782C51.4765 8.02782 51.229 8.23853 51.139 8.47142L48.8323 14.1162L46.5593 8.51578C46.4468 8.22744 46.2105 8.02782 45.8505 8.02782C45.4566 8.02782 45.1528 8.32725 45.1528 8.69322C45.1528 8.81521 45.1866 8.91502 45.2316 9.01483L47.9884 15.4026C48.1346 15.7464 48.3934 15.9571 48.776 15.9571Z" fill="white"/>
<path d="M54.0352 15.2252C54.0352 15.6022 54.3391 15.9017 54.7329 15.9017C55.1155 15.9017 55.4193 15.6022 55.4193 15.2252V8.70431C55.4193 8.32725 55.1155 8.02782 54.7329 8.02782C54.3391 8.02782 54.0352 8.32725 54.0352 8.70431V15.2252Z" fill="white"/>
</svg>
