<svg width="202" height="860" viewBox="0 0 202 860" fill="none" xmlns="http://www.w3.org/2000/svg">
<path d="M228.321 847.297C228.321 847.297 69.5293 715.705 179.595 586.325C289.661 456.945 130.908 402.56 201.995 220.9C279.059 23.9462 400.939 99.6324 400.939 99.6324" stroke="#61CAFF" stroke-width="0.3702" stroke-miterlimit="10"/>
<path d="M229.401 845.167C229.401 845.167 72.0355 715.295 181.182 586.37C190.967 574.903 198.562 563.96 204.449 553.549C264.149 447.479 140.896 387.36 204.551 224.258C280.288 30.1952 400.209 103.496 401.725 103.43" stroke="#61CAFF" stroke-width="0.3702" stroke-miterlimit="10"/>
<path d="M230.542 842.944C230.542 842.944 74.5439 714.697 182.767 586.415C192.369 575.039 199.96 564.284 205.847 553.872C265.286 448.739 144.462 388.478 207.046 227.52C281.519 36.2555 399.415 107.451 402.392 107.036" stroke="#61CAFF" stroke-width="0.3702" stroke-miterlimit="10"/>
<path d="M231.622 840.814C231.622 840.814 76.9291 714.283 184.354 586.46C193.893 575.177 201.363 564.419 207.247 554.196C266.425 450 148.03 389.597 209.602 230.878C282.747 42.5046 398.623 111.408 403.178 110.834" stroke="#61CAFF" stroke-width="0.3702" stroke-miterlimit="10"/>
<path d="M232.764 838.591C232.764 838.591 79.4377 713.685 185.881 586.409C195.237 575.217 202.702 564.648 208.586 554.425C267.504 451.165 151.538 390.62 212.101 233.951C283.92 48.4688 397.775 115.08 403.847 114.44" stroke="#61CAFF" stroke-width="0.3702" stroke-miterlimit="10"/>
<path d="M233.844 836.461C233.844 836.461 81.8852 713.179 187.468 586.454C196.761 575.355 204.164 564.878 209.986 554.749C268.642 452.425 155.168 391.646 214.657 237.309C285.148 54.7175 397.042 119.131 404.633 118.237" stroke="#61CAFF" stroke-width="0.3702" stroke-miterlimit="10"/>
<path d="M234.985 834.238C234.985 834.238 84.331 712.673 189.053 586.499C198.222 575.585 205.504 565.107 211.325 554.977C269.662 453.495 158.734 392.763 217.094 240.475C286.321 60.6816 396.193 122.803 405.241 121.748" stroke="#61CAFF" stroke-width="0.3702" stroke-miterlimit="10"/>
<path d="M236.065 832.108C236.065 832.108 86.6014 711.882 190.639 586.543C199.686 575.628 206.965 565.337 212.724 555.301C270.8 454.755 162.301 393.882 219.59 243.737C287.49 66.8345 395.401 126.758 405.968 125.45" stroke="#61CAFF" stroke-width="0.3702" stroke-miterlimit="10"/>
<path d="M237.207 829.886C237.207 829.886 89.0517 711.189 192.225 586.588C201.148 575.859 208.305 565.566 214.122 555.625C271.938 456.016 165.93 394.908 222.207 247.002C288.78 72.9907 394.67 130.622 406.816 129.155" stroke="#61CAFF" stroke-width="0.3702" stroke-miterlimit="10"/>
<path d="M238.286 827.756C238.286 827.756 91.4982 710.683 193.753 586.538C202.554 575.806 209.707 565.701 215.462 555.853C273.017 457.181 169.437 395.93 224.644 250.168C289.89 79.0469 393.819 134.481 407.422 132.853" stroke="#61CAFF" stroke-width="0.3702" stroke-miterlimit="10"/>
<path d="M239.429 825.533C239.429 825.533 93.9458 710.177 195.339 586.582C204.016 576.037 211.107 566.025 216.862 556.177C274.156 458.441 173.004 397.049 227.2 253.525C291.181 85.2026 393.09 138.345 408.149 136.555" stroke="#61CAFF" stroke-width="0.3702" stroke-miterlimit="10"/>
<path d="M240.508 823.403C240.508 823.403 96.3335 709.576 196.925 586.627C205.48 576.079 212.509 566.161 218.26 556.5C275.231 459.794 176.571 398.167 229.696 256.787C292.35 91.3548 392.238 142.205 408.875 140.257" stroke="#61CAFF" stroke-width="0.3702" stroke-miterlimit="10"/>
<path d="M241.65 821.181C241.65 821.181 98.8426 708.978 198.512 586.672C206.942 576.31 213.908 566.485 219.659 556.825C276.431 460.962 180.019 399.097 232.313 260.052C293.461 97.4131 391.567 146.164 409.723 143.962" stroke="#61CAFF" stroke-width="0.3702" stroke-miterlimit="10"/>
<path d="M242.73 819.05C242.73 819.05 101.228 708.564 200.098 586.716C208.466 576.447 215.37 566.715 221.058 557.148C277.57 462.222 183.586 400.214 234.809 263.313C294.634 103.377 390.717 150.023 410.388 147.755" stroke="#61CAFF" stroke-width="0.3702" stroke-miterlimit="10"/>
<path d="M243.872 816.828C243.872 816.828 103.736 707.966 201.625 586.666C209.809 576.488 216.65 566.848 222.398 557.376C278.586 463.48 187.156 401.145 237.305 266.575C295.803 109.529 389.924 153.979 411.056 151.362" stroke="#61CAFF" stroke-width="0.3702" stroke-miterlimit="10"/>
<path d="M244.952 814.698C244.952 814.698 106.125 707.365 203.149 586.803C211.271 576.718 218.05 567.171 223.735 557.792C279.662 464.832 190.66 402.356 239.739 269.929C296.91 115.773 389.073 157.839 411.72 155.156" stroke="#61CAFF" stroke-width="0.3702" stroke-miterlimit="10"/>
<path d="M246.032 812.567C246.032 812.567 108.572 706.859 204.736 586.848C212.733 576.949 219.39 567.4 225.134 558.117C280.801 466.093 194.227 403.475 242.356 273.194C298.2 121.929 388.402 161.798 412.568 158.861" stroke="#61CAFF" stroke-width="0.3702" stroke-miterlimit="10"/>
<path d="M247.174 810.345C247.174 810.345 111.019 706.353 206.323 586.893C214.198 576.991 220.852 567.631 226.533 558.44C281.939 467.353 197.793 404.594 244.852 276.455C299.37 128.08 387.552 165.658 413.295 162.563" stroke="#61CAFF" stroke-width="0.3702" stroke-miterlimit="10"/>
<path d="M248.254 808.215C248.254 808.215 113.465 705.846 207.85 586.842C215.6 577.126 222.192 567.858 227.814 558.573C282.9 468.327 201.303 405.428 247.288 279.621C300.421 134.04 386.642 169.422 413.9 166.261" stroke="#61CAFF" stroke-width="0.3702" stroke-miterlimit="10"/>
<path d="M249.396 805.992C249.396 805.992 115.916 705.153 209.436 586.886C217.003 577.261 223.594 567.994 229.213 558.897C284.156 469.777 204.869 406.547 249.784 282.882C301.653 140.099 385.913 173.284 414.568 169.867" stroke="#61CAFF" stroke-width="0.3702" stroke-miterlimit="10"/>
<path d="M250.476 803.862C250.476 803.862 118.301 704.739 211.023 586.931C218.527 577.399 224.994 568.317 230.612 559.22C285.294 471.037 208.435 407.666 252.342 286.051C302.884 146.158 385.124 177.053 415.357 173.477" stroke="#61CAFF" stroke-width="0.3702" stroke-miterlimit="10"/>
<path d="M251.559 801.544C251.559 801.544 120.751 704.044 212.55 586.88C219.929 577.534 226.396 568.452 231.89 559.541C286.311 472.295 211.879 408.781 254.775 289.405C303.991 152.402 384.27 181.1 416.02 177.271" stroke="#61CAFF" stroke-width="0.3702" stroke-miterlimit="10"/>
<path d="M252.639 799.413C252.639 799.413 123.198 703.538 214.136 586.924C221.395 577.576 227.736 568.68 233.289 559.864C287.449 473.554 215.508 409.807 257.271 292.666C305.16 158.552 383.42 184.96 416.685 181.064" stroke="#61CAFF" stroke-width="0.3702" stroke-miterlimit="10"/>
<path d="M253.781 797.191C253.781 797.191 125.645 703.032 215.664 586.874C222.797 577.712 229.139 568.816 234.629 560.093C288.528 474.72 219.014 410.831 259.828 295.835C306.391 164.611 382.631 188.728 417.414 184.579" stroke="#61CAFF" stroke-width="0.3702" stroke-miterlimit="10"/>
<path d="M254.861 795.061C254.861 795.061 128.092 702.525 217.25 586.918C224.263 577.754 230.538 569.139 236.028 560.416C289.667 475.98 222.58 411.949 262.324 299.097C307.623 170.67 381.902 192.59 418.141 188.281" stroke="#61CAFF" stroke-width="0.3702" stroke-miterlimit="10"/>
<path d="M256.004 792.838C256.004 792.838 130.602 701.926 218.837 586.963C225.725 577.985 231.941 569.275 237.428 560.74C290.805 477.24 226.145 413.069 264.878 302.454C308.851 176.916 381.111 196.547 418.926 192.078" stroke="#61CAFF" stroke-width="0.3702" stroke-miterlimit="10"/>
<path d="M257.084 790.708C257.084 790.708 132.987 701.512 220.424 587.007C227.249 578.122 233.341 569.598 238.827 561.063C291.943 478.499 229.773 414.094 267.374 305.714C309.962 182.971 380.32 200.501 419.591 195.871" stroke="#61CAFF" stroke-width="0.3702" stroke-miterlimit="10"/>
<path d="M258.227 788.486C258.227 788.486 135.497 700.913 222.011 587.053C228.652 578.258 234.744 569.734 240.227 561.388C293.082 479.76 233.339 415.214 269.99 308.979C311.252 189.125 379.591 204.365 420.379 199.482" stroke="#61CAFF" stroke-width="0.3702" stroke-miterlimit="10"/>
<path d="M259.307 786.356C259.307 786.356 137.944 700.407 223.538 587.002C230.117 578.3 236.084 569.962 241.567 561.615C294.161 480.924 236.845 416.237 272.427 312.144C312.425 195.087 378.803 208.131 421.047 203.087" stroke="#61CAFF" stroke-width="0.3702" stroke-miterlimit="10"/>
<path d="M260.45 784.133C260.45 784.133 140.391 699.9 225.125 587.047C231.58 578.53 237.546 570.193 242.966 561.939C295.299 482.185 240.473 417.263 274.981 315.501C313.653 201.333 378.012 212.087 421.832 206.885" stroke="#61CAFF" stroke-width="0.3702" stroke-miterlimit="10"/>
<path d="M261.529 782.003C261.529 782.003 142.838 699.393 226.711 587.091C233.044 578.572 238.886 570.421 244.306 562.167C296.257 483.347 243.978 418.286 277.417 318.666C314.763 207.387 377.103 215.851 422.499 210.491" stroke="#61CAFF" stroke-width="0.3702" stroke-miterlimit="10"/>
<path d="M262.672 779.781C262.672 779.781 145.347 698.794 228.298 587.135C234.506 578.803 240.348 570.651 245.705 562.491C297.395 484.607 247.543 419.405 279.974 321.835C315.994 213.444 376.374 219.714 423.166 214.097" stroke="#61CAFF" stroke-width="0.3702" stroke-miterlimit="10"/>
<path d="M263.752 777.65C263.752 777.65 147.732 698.38 229.826 587.084C235.972 578.845 241.689 570.879 247.046 562.719C298.239 485.392 251.049 420.429 282.469 325.096C317.164 219.593 375.525 223.574 423.892 217.798" stroke="#61CAFF" stroke-width="0.3702" stroke-miterlimit="10"/>
<path d="M264.832 775.52C264.832 775.52 150.179 697.873 231.35 587.221C237.312 579.072 243.029 571.107 248.383 563.135C299.315 486.744 254.613 421.547 284.901 328.449C318.333 225.742 374.734 227.528 424.556 221.592" stroke="#61CAFF" stroke-width="0.3702" stroke-miterlimit="10"/>
<path d="M265.975 773.298C265.975 773.298 152.627 697.366 232.999 587.173C238.899 579.118 244.491 571.338 249.845 563.366C300.751 488.291 258.299 422.669 287.517 331.713C319.623 231.895 374.006 231.391 425.403 225.297" stroke="#61CAFF" stroke-width="0.3702" stroke-miterlimit="10"/>
<path d="M267.056 771.168C267.056 771.168 155.074 696.859 234.524 587.31C240.24 579.345 245.832 571.565 251.182 563.781C301.828 489.643 261.801 423.88 290.012 334.973C320.793 238.043 373.157 235.251 426.067 229.09" stroke="#61CAFF" stroke-width="0.3702" stroke-miterlimit="10"/>
<path d="M268.198 768.945C268.198 768.945 157.584 696.26 236.111 587.355C241.765 579.483 247.232 571.889 252.581 564.105C302.966 490.903 265.365 425 292.566 338.329C322.02 244.287 372.425 239.301 426.792 232.792" stroke="#61CAFF" stroke-width="0.3702" stroke-miterlimit="10"/>
<path d="M269.279 766.815C269.279 766.815 160.027 695.94 237.638 587.303C243.168 579.617 248.635 572.024 253.922 564.333C304.045 492.067 268.933 425.93 295.001 341.494C323.193 250.247 371.517 243.065 427.46 236.398" stroke="#61CAFF" stroke-width="0.3702" stroke-miterlimit="10"/>
<path d="M270.421 764.593C270.421 764.593 162.537 695.34 239.225 587.348C244.633 579.66 249.976 572.252 255.321 564.656C305.125 493.232 272.496 427.049 297.555 344.85C324.421 256.491 370.847 247.022 428.244 240.194" stroke="#61CAFF" stroke-width="0.3702" stroke-miterlimit="10"/>
<path d="M271.502 762.463C271.502 762.463 164.984 694.833 240.812 587.392C246.095 579.89 251.437 572.482 256.72 564.98C306.262 494.491 276.119 428.263 300.111 348.017C325.652 262.546 370.06 250.789 429.032 243.803" stroke="#61CAFF" stroke-width="0.3702" stroke-miterlimit="10"/>
<path d="M272.645 760.24C272.645 760.24 167.491 694.421 242.399 587.437C247.62 580.027 252.778 572.71 258.12 565.303C307.342 495.656 279.745 429.29 302.664 351.373C326.939 268.884 369.329 254.839 429.695 247.597" stroke="#61CAFF" stroke-width="0.3702" stroke-miterlimit="10"/>
<path d="M273.666 758.014C273.666 758.014 169.878 693.817 243.926 587.384C248.963 580.066 254.181 572.844 259.46 565.53C308.362 496.724 283.248 430.312 305.099 354.537C328.111 274.842 368.421 258.602 430.361 251.202" stroke="#61CAFF" stroke-width="0.3702" stroke-miterlimit="10"/>
<path d="M274.808 755.792C274.808 755.792 172.445 693.312 245.453 587.333C250.366 580.2 255.462 572.976 260.741 565.662C309.382 497.793 286.693 431.24 307.533 357.7C329.22 280.893 367.575 262.272 431.028 254.806" stroke="#61CAFF" stroke-width="0.3702" stroke-miterlimit="10"/>
<path d="M275.888 753.662C275.888 753.662 174.83 692.897 247.039 587.377C251.89 580.337 256.861 573.299 262.14 565.985C310.52 499.051 290.377 432.361 310.089 360.867C330.451 286.947 366.847 266.133 431.815 258.414" stroke="#61CAFF" stroke-width="0.3702" stroke-miterlimit="10"/>
<path d="M277.03 751.439C277.03 751.439 177.398 692.391 248.626 587.421C253.293 580.471 258.323 573.529 263.539 566.308C311.596 500.403 293.939 433.479 312.582 364.126C331.741 293.095 365.999 269.991 432.42 262.112" stroke="#61CAFF" stroke-width="0.3702" stroke-miterlimit="10"/>
<path d="M278.111 749.309C278.111 749.309 179.257 690.935 250.212 587.465C254.876 580.703 259.663 573.756 264.939 566.631C312.734 501.662 297.56 434.693 315.135 367.481C332.968 299.336 365.268 274.04 433.203 265.907" stroke="#61CAFF" stroke-width="0.3702" stroke-miterlimit="10"/>
<path d="M279.253 747.087C279.253 747.087 181.82 690.616 251.739 587.413C256.219 580.742 261.066 573.89 266.216 566.95C313.75 502.917 301.063 435.715 317.506 370.736C334.078 305.384 364.298 277.894 433.808 269.603" stroke="#61CAFF" stroke-width="0.3702" stroke-miterlimit="10"/>
<path d="M280.333 744.957C280.333 744.957 184.855 691.057 253.326 587.457C257.685 580.784 262.407 574.118 267.616 567.273C314.888 504.176 304.684 436.929 320.121 373.998C335.426 311.627 363.692 281.758 434.654 273.306" stroke="#61CAFF" stroke-width="0.3702" stroke-miterlimit="10"/>
<path d="M281.413 742.827C281.413 742.827 187.36 690.643 254.85 587.592C259.084 581.105 263.805 574.439 268.952 567.687C315.964 505.526 308.245 438.046 322.551 377.347C336.532 317.862 362.781 285.706 435.195 277.094" stroke="#61CAFF" stroke-width="0.3702" stroke-miterlimit="10"/>
<path d="M282.555 740.604C282.555 740.604 189.983 690.42 256.498 587.543C260.67 581.149 265.267 574.669 270.413 567.917C317.164 506.692 311.927 439.166 325.165 380.608C337.943 324.011 362.054 289.567 436.041 280.796" stroke="#61CAFF" stroke-width="0.3702" stroke-miterlimit="10"/>
<path d="M283.635 738.474C283.635 738.474 192.429 689.911 258.022 587.679C262.069 581.47 266.607 574.895 271.75 568.331C318.239 508.041 315.606 440.473 327.595 383.958C339.17 330.248 361.202 293.611 436.704 284.587" stroke="#61CAFF" stroke-width="0.3702" stroke-miterlimit="10"/>
<path d="M284.776 736.252C284.776 736.252 183.667 683.477 273.15 568.465C362.634 453.454 278.249 307.025 437.431 288.097" stroke="#61CAFF" stroke-width="0.3702" stroke-miterlimit="10"/>
</svg>
