<svg width="360" height="899" viewBox="0 0 360 899" fill="none" xmlns="http://www.w3.org/2000/svg">
<path d="M-12.6167 886.144C-12.6167 886.144 246.207 746.176 68.7192 612.142C-108.769 478.108 149.323 419.009 35.542 229.691C-87.8057 24.4347 -286.244 105.35 -286.244 105.35" stroke="#61CAFF" stroke-width="0.3702" stroke-miterlimit="10"/>
<path d="M-14.3335 883.916C-14.3335 883.916 242.166 745.766 66.163 612.194C50.3826 600.315 38.1537 588.954 28.6897 578.128C-67.2702 467.83 133.267 403.201 31.3837 233.218C-89.8379 30.9677 -285.081 109.359 -287.541 109.31" stroke="#61CAFF" stroke-width="0.3702" stroke-miterlimit="10"/>
<path d="M-16.1508 881.592C-16.1508 881.592 238.121 745.159 63.6067 612.245C48.1232 600.459 35.8983 589.295 26.4342 578.469C-69.1126 469.146 127.488 404.399 27.3215 236.644C-91.8743 37.3038 -283.818 113.465 -288.646 113.07" stroke="#61CAFF" stroke-width="0.3702" stroke-miterlimit="10"/>
<path d="M-17.8676 879.364C-17.8676 879.364 234.277 744.744 61.0506 612.297C45.6674 600.606 33.6391 589.438 24.1791 578.809C-70.9547 470.461 121.709 405.597 23.1633 240.17C-93.9064 43.8364 -282.555 117.57 -289.943 117.031" stroke="#61CAFF" stroke-width="0.3702" stroke-miterlimit="10"/>
<path d="M-19.6854 877.04C-19.6854 877.04 230.231 744.137 58.5899 612.248C43.5037 600.65 31.4794 589.679 22.0193 579.049C-72.7013 471.677 116.025 406.695 19.0965 243.399C-95.847 50.0722 -281.2 121.379 -291.048 120.791" stroke="#61CAFF" stroke-width="0.3702" stroke-miterlimit="10"/>
<path d="M-21.402 874.813C-21.402 874.813 226.287 743.627 56.034 612.299C41.0481 600.798 29.124 589.923 19.7643 579.39C-74.5433 472.993 110.146 407.798 14.9383 246.926C-97.879 56.6054 -280.033 125.586 -292.345 124.752" stroke="#61CAFF" stroke-width="0.3702" stroke-miterlimit="10"/>
<path d="M-23.2197 872.489C-23.2197 872.489 222.342 743.116 53.4773 612.351C38.692 601.042 26.9646 590.163 17.6048 579.63C-76.1933 474.108 104.367 408.996 10.9722 250.252C-99.8194 62.8413 -278.678 129.395 -293.354 128.411" stroke="#61CAFF" stroke-width="0.3702" stroke-miterlimit="10"/>
<path d="M-24.9364 870.26C-24.9364 870.26 218.687 742.304 50.9212 612.402C36.3326 601.089 24.6091 590.407 15.3497 579.97C-78.0354 475.423 98.5877 410.194 6.91027 253.678C-101.755 69.2735 -277.415 133.5 -294.554 132.271" stroke="#61CAFF" stroke-width="0.3702" stroke-miterlimit="10"/>
<path d="M-26.7538 867.936C-26.7538 867.936 214.738 741.597 48.3648 612.454C33.9768 601.333 22.4499 590.647 13.0941 580.311C-79.8778 476.739 92.708 411.296 2.65129 257.108C-103.888 75.7099 -276.252 137.509 -295.952 136.136" stroke="#61CAFF" stroke-width="0.3702" stroke-miterlimit="10"/>
<path d="M-28.4709 865.709C-28.4709 865.709 210.793 741.086 45.9047 612.405C31.7133 601.281 20.1904 590.791 10.9349 580.551C-81.6239 477.955 87.0251 412.394 -1.3146 260.434C-105.728 82.0424 -274.893 141.515 -296.956 139.992" stroke="#61CAFF" stroke-width="0.3702" stroke-miterlimit="10"/>
<path d="M-30.2884 863.385C-30.2884 863.385 206.848 740.575 43.3482 612.456C29.3574 601.525 17.9348 591.132 8.67936 580.892C-83.4664 479.271 81.2458 413.592 -5.47326 263.96C-107.861 88.4787 -273.73 145.524 -298.158 143.852" stroke="#61CAFF" stroke-width="0.3702" stroke-miterlimit="10"/>
<path d="M-32.0051 861.157C-32.0051 861.157 203 739.965 40.792 612.508C26.9979 601.573 15.6757 591.276 6.42416 581.232C-85.2082 480.683 75.4668 414.791 -9.53525 267.386C-109.796 94.9114 -272.371 149.53 -299.358 147.713" stroke="#61CAFF" stroke-width="0.3702" stroke-miterlimit="10"/>
<path d="M-33.8224 858.833C-33.8224 858.833 198.955 739.357 38.2356 612.56C24.6421 601.817 13.4202 591.616 4.16866 581.573C-87.1509 481.903 69.8803 415.789 -13.7941 270.816C-111.636 101.244 -271.304 153.64 -300.756 151.577" stroke="#61CAFF" stroke-width="0.3702" stroke-miterlimit="10"/>
<path d="M-35.5394 856.605C-35.5394 856.605 195.11 738.943 35.6794 612.611C22.1861 601.965 11.0644 591.861 1.91319 581.914C-88.9933 483.218 64.1011 416.987 -17.8563 274.242C-113.576 107.48 -269.945 157.645 -301.857 155.534" stroke="#61CAFF" stroke-width="0.3702" stroke-miterlimit="10"/>
<path d="M-37.3566 854.281C-37.3566 854.281 191.065 738.336 33.2194 612.562C20.0231 602.008 9.00182 592 -0.24575 582.154C-90.6389 484.53 58.318 417.989 -21.9183 277.668C-115.512 113.912 -268.682 161.751 -302.961 159.294" stroke="#61CAFF" stroke-width="0.3702" stroke-miterlimit="10"/>
<path d="M-39.0737 852.053C-39.0737 852.053 187.217 737.725 30.7633 612.71C17.6673 602.252 6.74628 592.341 -2.40099 582.59C-92.381 485.942 52.6391 419.283 -25.8803 281.191C-117.348 120.441 -267.322 165.756 -304.062 163.25" stroke="#61CAFF" stroke-width="0.3702" stroke-miterlimit="10"/>
<path d="M-40.7906 849.825C-40.7906 849.825 183.272 737.214 28.207 612.761C15.3116 602.496 4.58721 592.581 -4.6564 582.931C-94.2233 487.258 46.8599 420.482 -30.1391 284.621C-119.481 126.877 -266.256 169.866 -305.459 167.114" stroke="#61CAFF" stroke-width="0.3702" stroke-miterlimit="10"/>
<path d="M-42.6086 847.502C-42.6086 847.502 179.327 736.703 25.6499 612.813C12.9512 602.544 2.23074 592.825 -6.91256 583.272C-96.0664 488.574 41.08 421.68 -34.202 288.047C-121.417 133.31 -264.897 173.872 -306.661 170.975" stroke="#61CAFF" stroke-width="0.3702" stroke-miterlimit="10"/>
<path d="M-44.3251 845.273C-44.3251 845.273 175.383 736.192 23.1904 612.763C10.6923 602.687 0.0721949 593.065 -8.97477 583.411C-97.6192 489.588 35.3936 422.581 -38.1674 291.372C-123.16 139.541 -263.441 177.776 -307.665 174.831" stroke="#61CAFF" stroke-width="0.3702" stroke-miterlimit="10"/>
<path d="M-46.1426 842.95C-46.1426 842.95 171.434 735.485 20.6339 612.815C8.43267 602.831 -2.1875 593.209 -11.2305 583.752C-99.6545 491.105 29.6142 423.78 -42.2298 294.799C-125.197 145.878 -262.279 181.786 -308.77 178.591" stroke="#61CAFF" stroke-width="0.3702" stroke-miterlimit="10"/>
<path d="M-47.8593 840.722C-47.8593 840.722 167.59 735.071 18.0778 612.867C5.97694 602.98 -4.44257 593.55 -13.4856 584.093C-101.497 492.421 23.8354 424.979 -46.3919 298.129C-127.233 152.214 -261.019 185.695 -310.071 182.355" stroke="#61CAFF" stroke-width="0.3702" stroke-miterlimit="10"/>
<path d="M-49.5805 838.298C-49.5805 838.298 163.641 734.363 15.6176 612.818C3.71727 603.123 -6.70228 593.694 -15.5447 584.429C-103.143 493.733 18.2526 426.173 -50.354 301.651C-129.069 158.743 -259.656 189.897 -311.171 186.312" stroke="#61CAFF" stroke-width="0.3702" stroke-miterlimit="10"/>
<path d="M-51.2972 836.07C-51.2972 836.07 159.696 733.853 13.0615 612.87C1.35781 603.171 -8.86108 593.934 -17.7998 584.77C-104.985 495.049 12.3734 427.275 -54.4159 305.077C-131.004 165.175 -258.296 193.903 -312.272 190.268" stroke="#61CAFF" stroke-width="0.3702" stroke-miterlimit="10"/>
<path d="M-53.1145 833.746C-53.1145 833.746 155.751 733.342 10.6015 612.821C-0.901544 603.314 -11.1205 594.078 -19.959 585.009C-106.731 496.264 6.69047 428.373 -58.5785 308.407C-133.041 171.511 -257.037 197.812 -313.477 193.932" stroke="#61CAFF" stroke-width="0.3702" stroke-miterlimit="10"/>
<path d="M-54.8314 831.518C-54.8314 831.518 151.807 732.831 8.04513 612.872C-3.26126 603.362 -13.3759 594.418 -22.2144 585.35C-108.573 497.58 0.911323 429.571 -62.6406 311.833C-135.077 177.847 -255.875 201.821 -314.678 197.792" stroke="#61CAFF" stroke-width="0.3702" stroke-miterlimit="10"/>
<path d="M-56.6493 829.194C-56.6493 829.194 147.761 732.224 5.48821 612.924C-5.61757 603.606 -15.6359 594.562 -24.4704 585.69C-110.416 498.896 -4.86842 430.769 -66.7997 315.359C-137.11 184.38 -254.612 205.927 -315.976 201.753" stroke="#61CAFF" stroke-width="0.3702" stroke-miterlimit="10"/>
<path d="M-58.3657 826.966C-58.3657 826.966 143.917 731.81 2.93239 612.975C-8.07309 603.754 -17.8908 594.902 -26.7253 586.031C-112.258 500.211 -10.7474 431.871 -70.8614 318.786C-138.949 190.713 -253.349 210.033 -317.076 205.709" stroke="#61CAFF" stroke-width="0.3702" stroke-miterlimit="10"/>
<path d="M-60.1834 824.642C-60.1834 824.642 139.872 731.202 0.375715 613.026C-10.3328 603.898 -20.1505 595.046 -28.981 586.371C-114.1 501.527 -16.5269 433.07 -75.1205 322.215C-141.082 197.149 -252.186 214.042 -318.377 209.473" stroke="#61CAFF" stroke-width="0.3702" stroke-miterlimit="10"/>
<path d="M-61.9007 822.414C-61.9007 822.414 135.927 730.692 -2.08454 612.978C-12.6928 603.946 -22.3099 595.287 -31.1404 586.612C-115.847 502.743 -22.21 434.168 -79.0865 325.542C-143.023 203.385 -250.927 217.951 -319.482 213.233" stroke="#61CAFF" stroke-width="0.3702" stroke-miterlimit="10"/>
<path d="M-63.718 820.09C-63.718 820.09 131.982 730.181 -4.64097 613.029C-15.0486 604.189 -24.6657 595.531 -33.3959 586.952C-117.689 504.058 -28.0896 435.27 -83.2452 329.068C-145.055 209.918 -249.664 222.057 -320.779 217.194" stroke="#61CAFF" stroke-width="0.3702" stroke-miterlimit="10"/>
<path d="M-65.4349 817.862C-65.4349 817.862 128.037 729.67 -7.19724 613.081C-17.4082 604.237 -26.8248 595.771 -35.555 587.192C-119.238 505.27 -33.7724 436.368 -87.211 332.393C-146.895 216.25 -248.209 225.962 -321.884 220.954" stroke="#61CAFF" stroke-width="0.3702" stroke-miterlimit="10"/>
<path d="M-67.2523 815.538C-67.2523 815.538 123.992 729.063 -9.7537 613.132C-19.7641 604.481 -29.1805 596.015 -37.8104 587.533C-121.081 506.586 -39.5517 437.566 -91.3736 335.723C-148.931 222.586 -247.046 229.972 -322.989 224.714" stroke="#61CAFF" stroke-width="0.3702" stroke-miterlimit="10"/>
<path d="M-68.9695 813.311C-68.9695 813.311 120.148 728.649 -12.2138 613.083C-22.1239 604.529 -31.3398 596.255 -39.9697 587.773C-122.442 507.4 -45.2346 438.664 -95.4358 339.15C-150.867 229.019 -245.687 233.977 -324.19 228.574" stroke="#61CAFF" stroke-width="0.3702" stroke-miterlimit="10"/>
<path d="M-70.6866 811.083C-70.6866 811.083 116.203 728.138 -14.67 613.231C-24.2831 604.769 -33.4989 596.495 -42.1249 588.21C-124.184 508.812 -51.0139 439.863 -99.3978 342.672C-152.803 235.451 -244.424 238.083 -325.29 232.531" stroke="#61CAFF" stroke-width="0.3702" stroke-miterlimit="10"/>
<path d="M-72.5033 808.759C-72.5033 808.759 112.259 727.628 -17.3261 613.186C-26.839 604.821 -35.8543 596.74 -44.4802 588.454C-126.511 510.433 -56.9893 441.065 -103.656 346.102C-154.936 241.888 -243.261 242.092 -326.688 236.395" stroke="#61CAFF" stroke-width="0.3702" stroke-miterlimit="10"/>
<path d="M-74.2206 806.531C-74.2206 806.531 108.314 727.117 -19.7825 613.334C-28.9984 605.06 -38.0136 596.98 -46.6356 588.891C-128.254 511.845 -62.6685 442.36 -107.719 349.528C-156.872 248.32 -241.901 246.098 -327.789 240.352" stroke="#61CAFF" stroke-width="0.3702" stroke-miterlimit="10"/>
<path d="M-76.0382 804.207C-76.0382 804.207 104.268 726.51 -22.3391 613.386C-31.4547 605.209 -40.2694 597.321 -48.8914 589.232C-130.096 513.161 -68.448 443.558 -111.877 353.055C-158.905 254.853 -240.735 250.304 -328.99 244.212" stroke="#61CAFF" stroke-width="0.3702" stroke-miterlimit="10"/>
<path d="M-77.7546 801.979C-77.7546 801.979 100.328 726.195 -24.7985 613.337C-33.7135 605.352 -42.5282 597.464 -51.0499 589.471C-131.842 514.376 -74.2305 444.559 -115.843 356.38C-160.844 261.088 -239.279 254.209 -330.094 247.972" stroke="#61CAFF" stroke-width="0.3702" stroke-miterlimit="10"/>
<path d="M-79.5719 799.655C-79.5719 799.655 96.2829 725.588 -27.3549 613.388C-36.0733 605.4 -44.6873 597.704 -53.3053 589.812C-133.588 515.592 -80.0098 445.758 -120.001 359.907C-162.877 267.621 -238.212 258.319 -331.391 251.933" stroke="#61CAFF" stroke-width="0.3702" stroke-miterlimit="10"/>
<path d="M-81.2889 797.428C-81.2889 797.428 92.3382 725.078 -29.9113 613.44C-38.429 605.644 -47.043 597.949 -55.5608 590.153C-135.43 516.908 -85.8853 447.057 -124.164 363.237C-164.913 273.958 -236.953 262.228 -332.692 255.697" stroke="#61CAFF" stroke-width="0.3702" stroke-miterlimit="10"/>
<path d="M-83.106 795.103C-83.106 795.103 88.2973 724.667 -32.4675 613.491C-40.8849 605.792 -49.202 598.189 -57.8161 590.493C-137.176 518.123 -91.7646 448.159 -128.322 366.763C-167.041 280.591 -235.786 266.434 -333.793 259.653" stroke="#61CAFF" stroke-width="0.3702" stroke-miterlimit="10"/>
<path d="M-84.7276 792.775C-84.7276 792.775 84.4481 724.056 -34.9283 613.443C-43.0488 605.836 -51.4623 598.333 -59.976 590.734C-138.826 519.239 -97.4484 449.257 -132.289 370.089C-168.982 286.827 -234.332 270.339 -334.898 263.413" stroke="#61CAFF" stroke-width="0.3702" stroke-miterlimit="10"/>
<path d="M-86.5444 790.451C-86.5444 790.451 80.3072 723.549 -37.3878 613.394C-45.3077 605.979 -53.5246 598.472 -62.0384 590.873C-140.476 520.354 -103.034 450.254 -136.254 373.414C-170.822 293.159 -232.976 274.148 -336.003 267.173" stroke="#61CAFF" stroke-width="0.3702" stroke-miterlimit="10"/>
<path d="M-88.2609 788.223C-88.2609 788.223 76.4631 723.135 -39.9438 613.445C-47.7634 606.127 -55.7796 598.813 -64.2934 591.214C-142.318 521.67 -109.01 451.457 -140.416 376.744C-172.857 299.495 -231.812 278.157 -337.303 270.937" stroke="#61CAFF" stroke-width="0.3702" stroke-miterlimit="10"/>
<path d="M-90.0791 785.899C-90.0791 785.899 72.3208 722.628 -42.501 613.496C-50.0237 606.271 -58.1362 599.057 -66.5497 591.554C-144.061 523.081 -114.79 452.655 -144.479 380.17C-174.991 305.931 -230.454 282.162 -338.308 274.793" stroke="#61CAFF" stroke-width="0.3702" stroke-miterlimit="10"/>
<path d="M-91.796 783.672C-91.796 783.672 69.3397 721.115 -45.0573 613.548C-52.5759 606.519 -60.2952 599.298 -68.805 591.895C-145.903 524.398 -120.665 453.954 -148.638 383.697C-177.023 312.464 -229.287 286.369 -339.606 278.754" stroke="#61CAFF" stroke-width="0.3702" stroke-miterlimit="10"/>
<path d="M-93.6132 781.348C-93.6132 781.348 65.2023 720.805 -47.5172 613.5C-54.7389 606.563 -62.5546 599.441 -70.8638 592.232C-147.548 525.709 -126.348 455.052 -152.503 387.119C-178.863 318.797 -227.731 290.371 -340.61 282.611" stroke="#61CAFF" stroke-width="0.3702" stroke-miterlimit="10"/>
<path d="M-95.3299 779.119C-95.3299 779.119 60.2944 721.296 -50.0733 613.55C-57.0983 606.61 -64.7134 599.681 -73.1189 592.571C-149.391 527.025 -132.223 456.35 -156.762 390.548C-181.092 325.333 -226.765 294.383 -342.007 286.474" stroke="#61CAFF" stroke-width="0.3702" stroke-miterlimit="10"/>
<path d="M-97.0469 776.892C-97.0469 776.892 56.2533 720.887 -52.5293 613.699C-59.3538 606.951 -66.9688 600.022 -75.2741 593.009C-151.133 528.437 -138.003 457.549 -160.724 394.072C-182.927 331.862 -225.305 298.486 -342.911 290.428" stroke="#61CAFF" stroke-width="0.3702" stroke-miterlimit="10"/>
<path d="M-98.8648 774.568C-98.8648 774.568 52.019 720.676 -55.1866 613.653C-61.9108 607.002 -69.3252 600.266 -77.6304 593.253C-153.076 529.656 -143.979 458.751 -164.983 397.501C-185.257 338.302 -224.143 302.495 -344.309 294.291" stroke="#61CAFF" stroke-width="0.3702" stroke-miterlimit="10"/>
<path d="M-100.581 772.34C-100.581 772.34 48.0749 720.165 -57.6419 613.801C-64.1655 607.342 -71.4836 600.506 -79.7849 593.689C-154.817 531.068 -149.95 460.15 -168.944 401.023C-187.289 344.835 -222.779 306.697 -345.409 298.248" stroke="#61CAFF" stroke-width="0.3702" stroke-miterlimit="10"/>
<path d="M-102.398 770.016C-102.398 770.016 62.3956 713.287 -82.0442 593.834C-226.484 474.38 -88.0578 319.624 -346.614 301.912" stroke="#61CAFF" stroke-width="0.3702" stroke-miterlimit="10"/>
</svg>
