<svg width="360" height="790" viewBox="0 0 360 790" fill="none" xmlns="http://www.w3.org/2000/svg">
<path d="M567.88 550.311C567.88 550.311 687.432 169.429 423.381 127.996C159.33 86.5638 459.929 -17.3497 230.915 -102.199C1.90162 -187.048 -60.5268 -446.425 -58.2579 -564.642" stroke="#FF00BD" stroke-opacity="0.5" stroke-width="0.1719" stroke-miterlimit="10"/>
<path d="M567.149 551.875C567.149 551.875 594.41 464.827 592.781 371.384C591.106 271.538 559.284 161.93 431.878 134.1C427.798 133.287 423.52 132.382 419.21 131.739C156.691 87.71 456.448 -17.4802 228.155 -101.713C221.769 -104.167 215.581 -106.527 209.425 -109.149C-4.27665 -199.828 -63.9629 -447.702 -58.6662 -565.074" stroke="#FF00BD" stroke-opacity="0.5" stroke-width="0.1719" stroke-miterlimit="10"/>
<path d="M566.466 553.157C566.466 553.157 593.861 465.039 590.589 373.021C587.272 274.598 554.791 166.876 427.92 137.915C423.84 137.102 419.594 135.935 415.283 135.292C154.525 88.4947 453.375 -17.4486 225.637 -101.422C219.25 -103.875 212.864 -106.329 206.707 -108.952C-7.12744 -198.864 -67.546 -446.026 -59.0294 -565.796" stroke="#FF00BD" stroke-opacity="0.5" stroke-width="0.1719" stroke-miterlimit="10"/>
<path d="M565.912 554.804C565.912 554.804 593.243 465.521 588.526 375.02C583.368 277.926 550.227 172.09 424.089 142.089C420.04 141.014 415.761 140.109 411.482 139.203C152.251 89.8057 450.263 -17.4178 223.243 -100.777C216.855 -103.231 210.435 -105.423 204.277 -108.046C-9.62433 -196.051 -70.6792 -443.292 -58.909 -565.724" stroke="#FF00BD" stroke-opacity="0.5" stroke-width="0.1719" stroke-miterlimit="10"/>
<path d="M565.18 556.365C565.18 556.365 592.645 466.015 586.285 376.942C579.484 281.276 545.486 177.238 419.919 145.843C415.869 144.768 411.622 143.6 407.145 142.602C149.68 90.4349 446.813 -17.8018 220.32 -100.636C213.899 -102.828 207.51 -105.283 201.351 -107.907C-12.7113 -194.88 -74.2676 -441.57 -59.5057 -566.228" stroke="#FF00BD" stroke-opacity="0.5" stroke-width="0.1719" stroke-miterlimit="10"/>
<path d="M564.481 557.635C564.481 557.635 592.079 466.219 584.107 378.316C575.663 284.081 540.808 181.845 415.783 149.319C411.535 148.151 407.287 146.982 403.007 146.077C147.283 91.4039 443.364 -18.1984 217.601 -100.411C211.179 -102.604 204.789 -105.059 198.4 -107.514C-15.8512 -193.189 -78.0731 -439.678 -60.0889 -566.727" stroke="#FF00BD" stroke-opacity="0.5" stroke-width="0.1719" stroke-miterlimit="10"/>
<path d="M563.931 559.262C563.931 559.262 591.663 466.775 582.047 380.301C571.926 287.755 536.246 187.055 411.956 153.489C407.707 152.32 403.491 150.889 399.21 149.983C145.219 92.8009 440.552 -18.8674 215.216 -99.7684C208.793 -101.962 202.403 -104.417 196.012 -106.873C-18.2046 -191.424 -81.1593 -437.196 -60.1165 -567.001" stroke="#FF00BD" stroke-opacity="0.5" stroke-width="0.1719" stroke-miterlimit="10"/>
<path d="M563.202 560.823C563.202 560.823 590.837 467.439 579.807 382.228C568.041 291.114 531.306 192.123 407.787 157.256C403.538 156.087 399.322 154.656 395.073 153.487C142.853 93.5338 437.103 -19.2393 212.497 -99.5192C206.073 -101.713 199.484 -104.262 193.093 -106.718C-21.314 -189.971 -84.7373 -435.449 -60.7004 -567.479" stroke="#FF00BD" stroke-opacity="0.5" stroke-width="0.1719" stroke-miterlimit="10"/>
<path d="M562.495 562.079C562.495 562.079 590.263 467.627 577.786 383.942C564.177 294.166 526.782 197.071 403.804 161.071C399.555 159.902 395.37 158.208 391.088 157.301C140.608 94.8387 434.038 -19.4727 209.93 -98.9624C203.505 -101.156 196.883 -103.443 190.491 -105.9C-23.8444 -188.287 -87.9669 -433.302 -60.705 -567.73" stroke="#FF00BD" stroke-opacity="0.5" stroke-width="0.1719" stroke-miterlimit="10"/>
<path d="M561.758 563.627C561.758 563.627 589.659 468.107 575.536 385.855C560.282 297.511 522.03 202.22 399.823 164.917C395.573 163.748 391.388 162.053 387.138 160.884C138.397 95.9109 430.777 -19.7695 207.398 -98.638C200.774 -100.926 194.349 -103.12 187.956 -105.577C-26.6025 -186.403 -91.4243 -430.955 -60.9041 -568.042" stroke="#FF00BD" stroke-opacity="0.5" stroke-width="0.1719" stroke-miterlimit="10"/>
<path d="M561.196 565.244C561.196 565.244 589.229 468.662 573.461 387.849C556.529 301.207 517.486 207.201 395.794 169.029C391.576 167.597 387.391 165.903 383.14 164.734C136.152 97.2534 427.665 -19.695 204.828 -98.0301C198.204 -100.318 191.778 -102.513 185.187 -105.063C-29.5197 -184.847 -94.8399 -428.827 -61.3247 -568.133" stroke="#FF00BD" stroke-opacity="0.5" stroke-width="0.1719" stroke-miterlimit="10"/>
<path d="M560.505 566.499C560.505 566.499 588.671 468.851 571.29 389.213C552.712 304.007 512.812 211.81 391.665 172.506C387.447 171.074 383.261 169.379 379.042 167.947C133.999 98.0501 424.288 -20.6195 202.153 -98.0675C195.529 -100.356 189.102 -102.55 182.477 -104.839C-32.3814 -183.583 -98.3994 -427.09 -61.6577 -568.79" stroke="#FF00BD" stroke-opacity="0.5" stroke-width="0.1719" stroke-miterlimit="10"/>
<path d="M559.766 568.04C559.766 568.04 588.032 469.588 569.037 391.125C548.813 307.354 508.055 216.965 387.682 176.357C383.463 174.925 379.309 172.967 375.058 171.797C131.76 99.3896 421.191 -20.5541 199.591 -97.4717C192.966 -99.7602 186.34 -102.049 179.913 -104.244C-35.1009 -181.95 -101.62 -424.894 -61.8483 -569.084" stroke="#FF00BD" stroke-opacity="0.5" stroke-width="0.1719" stroke-miterlimit="10"/>
<path d="M559.202 569.652C559.202 569.652 587.6 470.139 566.96 393.116C544.892 310.693 503.31 221.854 383.651 180.471C379.432 179.038 375.31 176.817 371.058 175.647C129.515 100.731 417.879 -20.5737 197.02 -96.8635C190.395 -99.1522 183.736 -101.178 177.143 -103.73C-37.8518 -180.036 -105.067 -422.498 -62.0686 -569.077" stroke="#FF00BD" stroke-opacity="0.5" stroke-width="0.1719" stroke-miterlimit="10"/>
<path d="M558.51 570.902C558.51 570.902 587.041 470.324 564.754 394.741C541.007 314.021 498.601 226.73 379.52 183.951C375.301 182.519 371.178 180.297 366.761 178.771C127.134 101.701 414.5 -21.4936 194.182 -97.2504C187.556 -99.5393 180.897 -101.565 174.271 -103.854C-40.5107 -178.67 -108.423 -420.654 -62.3949 -569.719" stroke="#FF00BD" stroke-opacity="0.5" stroke-width="0.1719" stroke-miterlimit="10"/>
<path d="M557.772 572.439C557.772 572.439 586.402 471.063 562.502 396.66C537.109 317.382 493.879 231.642 375.513 188.088C371.293 186.655 367.203 184.171 362.753 182.908C124.884 103.329 411.18 -21.2265 191.605 -96.3545C184.978 -98.6437 178.319 -100.67 171.494 -103.052C-43.5976 -177.18 -112.206 -418.679 -62.9502 -570.133" stroke="#FF00BD" stroke-opacity="0.5" stroke-width="0.1719" stroke-miterlimit="10"/>
<path d="M557.218 574.045C557.218 574.045 585.98 471.604 560.631 398.735C533.591 320.897 489.504 236.97 371.685 192.282C367.497 190.586 363.176 188.271 358.956 186.838C123.037 104.841 408.072 -21.1719 189.236 -95.6731C182.608 -97.9626 175.948 -99.9892 169.123 -102.372C-46.119 -175.457 -115.425 -416.478 -62.9401 -570.326" stroke="#FF00BD" stroke-opacity="0.5" stroke-width="0.1719" stroke-miterlimit="10"/>
<path d="M556.513 575.291C556.513 575.291 585.407 471.79 558.411 400.365C529.692 324.232 484.616 241.503 367.545 195.777C363.357 194.081 359.068 191.502 354.848 190.069C120.853 105.919 404.849 -21.7166 186.56 -95.6814C179.932 -97.9711 173.074 -100.091 166.414 -102.118C-48.8066 -173.801 -118.808 -414.334 -63.2931 -570.664" stroke="#FF00BD" stroke-opacity="0.5" stroke-width="0.1719" stroke-miterlimit="10"/>
<path d="M555.785 576.826C555.785 576.826 584.779 472.521 556.2 402.01C525.833 327.318 479.931 246.137 363.572 199.633C359.384 197.937 355.094 195.358 350.906 193.662C118.827 107.355 401.629 -22.2674 184.044 -95.3432C177.416 -97.6332 170.524 -99.4905 163.698 -101.874C-51.674 -172.515 -122.176 -412.48 -63.4306 -571.206" stroke="#FF00BD" stroke-opacity="0.5" stroke-width="0.1719" stroke-miterlimit="10"/>
<path d="M555.22 578.431C555.22 578.431 584.345 473.066 554.119 404C522.073 331.015 475.348 251.389 359.573 203.49C355.384 201.794 351.127 198.952 346.905 197.519C116.556 108.966 398.514 -22.1853 181.478 -94.7237C174.849 -97.0139 167.957 -98.8714 161.131 -101.255C-54.1857 -170.757 -125.415 -409.968 -63.6394 -571.175" stroke="#FF00BD" stroke-opacity="0.5" stroke-width="0.1719" stroke-miterlimit="10"/>
<path d="M554.514 579.674C554.514 579.674 583.771 473.25 551.898 405.631C518.206 334.092 470.459 255.928 355.402 207.254C351.015 205.464 346.955 202.716 342.766 201.019C114.378 110.051 395.062 -22.5512 178.775 -94.4581C172.145 -96.7484 165.253 -98.6061 158.394 -100.727C-57.063 -169.181 -128.987 -407.899 -63.983 -571.493" stroke="#FF00BD" stroke-opacity="0.5" stroke-width="0.1719" stroke-miterlimit="10"/>
<path d="M553.774 581.206C553.774 581.206 583.13 473.983 549.642 407.545C514.302 337.45 465.731 260.84 351.39 211.39C347.003 209.6 342.975 206.588 338.786 204.892C112.323 111.768 391.968 -22.4581 176.227 -93.8285C169.399 -96.2123 162.705 -97.9768 155.647 -100.191C-59.7566 -167.506 -132.377 -405.737 -64.3409 -571.815" stroke="#FF00BD" stroke-opacity="0.5" stroke-width="0.1719" stroke-miterlimit="10"/>
<path d="M553.221 582.808C553.221 582.808 582.709 474.525 547.574 409.532C510.554 341.146 460.993 265.735 347.401 215.246C343.046 213.193 338.986 210.444 334.797 208.747C110.228 113.733 388.666 -22.4731 173.672 -93.2126C166.844 -95.5967 159.951 -97.4546 153.091 -99.5756C-62.6531 -165.937 -135.771 -403.585 -64.5053 -572.052" stroke="#FF00BD" stroke-opacity="0.5" stroke-width="0.1719" stroke-miterlimit="10"/>
<path d="M552.504 584.048C552.504 584.048 582.121 474.71 545.539 411.261C506.872 344.324 456.458 270.736 343.423 219.117C339.067 217.064 335.04 214.052 330.652 212.262C108.021 115.099 385.438 -22.9849 170.969 -92.9197C164.109 -95.0407 157.216 -96.8987 150.157 -99.1131C-65.5218 -164.33 -139.364 -401.21 -65.0699 -572.15" stroke="#FF00BD" stroke-opacity="0.5" stroke-width="0.1719" stroke-miterlimit="10"/>
<path d="M551.77 585.571C551.77 585.571 581.718 475.26 543.321 412.898C503.203 347.497 451.765 275.368 339.475 222.707C335.119 220.654 331.091 217.641 326.736 215.588C106.025 116.266 382.211 -23.5415 168.482 -92.8485C161.621 -94.9698 154.727 -96.828 147.668 -99.0426C-67.9957 -162.859 -142.537 -399.26 -65.0092 -572.598" stroke="#FF00BD" stroke-opacity="0.5" stroke-width="0.1719" stroke-miterlimit="10"/>
<path d="M551.252 586.883C551.252 586.883 581.298 475.779 541.287 414.602C499.49 350.914 447.064 279.987 335.495 226.552C331.139 224.499 327.143 221.223 322.787 219.169C104.177 118.053 379.147 -23.7279 165.974 -92.4942C159.112 -94.6156 152.218 -96.4738 145.126 -98.4255C-70.8705 -161.285 -145.907 -397.092 -65.3492 -572.906" stroke="#FF00BD" stroke-opacity="0.5" stroke-width="0.1719" stroke-miterlimit="10"/>
<path d="M550.511 588.412C550.511 588.412 580.689 476.246 539.029 416.515C495.584 354.273 442.334 284.902 331.283 230.597C326.927 228.543 322.931 225.267 318.575 223.213C101.892 119.942 375.623 -23.5578 163.196 -91.6932C156.334 -93.8148 149.44 -95.6732 142.149 -97.7184C-73.5302 -159.87 -149.295 -394.925 -65.5061 -573.13" stroke="#FF00BD" stroke-opacity="0.5" stroke-width="0.1719" stroke-miterlimit="10"/>
<path d="M549.77 589.94C549.77 589.94 580.079 476.714 536.772 418.43C491.679 357.635 437.406 289.727 327.304 234.476C322.948 232.422 318.984 228.883 314.628 226.829C99.8413 121.666 372.561 -23.7201 160.684 -91.3172C153.822 -93.4389 146.729 -95.3908 139.636 -97.3427C-76.2168 -158.183 -152.677 -392.746 -65.8552 -573.434" stroke="#FF00BD" stroke-opacity="0.5" stroke-width="0.1719" stroke-miterlimit="10"/>
<path d="M549.247 591.244C549.247 591.244 579.853 477.318 534.733 420.128C487.993 360.782 432.898 294.434 323.319 238.315C318.995 235.998 314.801 232.628 310.675 230.405C97.7919 123.354 369.295 -24.0063 158.172 -90.9689C151.31 -93.0906 144.184 -94.7795 137.091 -96.7315C-78.8646 -156.785 -156.051 -390.582 -66.0001 -573.653" stroke="#FF00BD" stroke-opacity="0.5" stroke-width="0.1719" stroke-miterlimit="10"/>
<path d="M548.508 592.772C548.508 592.772 579.244 477.786 532.476 422.043C484.254 364.502 428.004 298.998 319.111 242.366C314.787 240.049 310.625 236.416 306.466 234.456C95.6797 125.607 366.004 -23.9954 155.4 -90.1559C148.538 -92.2778 141.412 -93.9667 134.121 -96.0122C-81.7451 -155.186 -159.429 -388.396 -66.3448 -573.95" stroke="#FF00BD" stroke-opacity="0.5" stroke-width="0.1719" stroke-miterlimit="10"/>
<path d="M547.765 594.298C547.765 594.298 578.634 478.25 530.448 423.786C480.577 367.692 423.502 303.745 315.36 246.074C311.035 243.757 306.873 240.124 302.747 237.9C93.8578 127.158 362.973 -24.4244 153.117 -89.9528C146.254 -92.0748 139.128 -93.7639 131.836 -95.8095C-84.4338 -153.502 -162.813 -386.22 -66.4973 -574.164" stroke="#FF00BD" stroke-opacity="0.5" stroke-width="0.1719" stroke-miterlimit="10"/>
<path d="M547.244 595.601C547.244 595.601 578.441 478.593 528.41 425.486C476.893 370.843 418.798 308.364 311.378 249.919C307.054 247.602 302.924 243.705 298.798 241.481C92.0129 128.947 359.907 -24.6077 150.611 -89.5939C143.748 -91.716 136.621 -93.4051 129.099 -95.2809C-87.073 -152.092 -166.177 -384.041 -66.8314 -574.458" stroke="#FF00BD" stroke-opacity="0.5" stroke-width="0.1719" stroke-miterlimit="10"/>
<path d="M546.503 597.128C546.503 597.128 577.831 479.059 526.152 427.4C473.184 374.298 414.066 313.284 307.2 253.707C302.875 251.389 298.745 247.492 294.651 245.005C89.765 130.578 356.448 -24.9562 147.902 -89.3098C141.038 -91.432 133.713 -93.2146 126.389 -94.9972C-89.9565 -150.496 -169.558 -381.857 -66.9803 -574.664" stroke="#FF00BD" stroke-opacity="0.5" stroke-width="0.1719" stroke-miterlimit="10"/>
<path d="M545.75 598.654C545.75 598.654 577.208 479.528 523.882 429.319C469.266 377.668 409.16 317.857 303.18 257.861C298.69 255.187 294.758 251.384 290.433 249.066C87.6167 133.107 353.115 -24.6661 145.125 -88.4785C138.063 -90.6942 130.904 -92.1202 123.611 -94.1661C-92.6388 -148.783 -172.967 -379.38 -67.3568 -574.665" stroke="#FF00BD" stroke-opacity="0.5" stroke-width="0.1719" stroke-miterlimit="10"/>
<path d="M545.24 599.957C545.24 599.957 577.028 479.866 521.855 431.014C465.592 380.813 404.663 322.562 299.206 261.698C294.715 259.023 290.783 255.22 286.491 252.639C85.5771 134.79 349.86 -24.9591 142.623 -88.1373C135.561 -90.3531 128.401 -91.7792 120.878 -93.6553C-95.2457 -147.655 -176.3 -377.489 -67.4597 -575.159" stroke="#FF00BD" stroke-opacity="0.5" stroke-width="0.1719" stroke-miterlimit="10"/>
<path d="M544.5 601.482C544.5 601.482 576.418 480.333 519.597 432.931C461.653 384.441 399.735 327.393 295.03 265.49C290.539 262.816 286.64 258.749 282.347 256.168C83.5004 136.785 346.601 -25.2058 139.918 -87.8438C132.856 -90.0596 125.696 -91.4858 118.173 -93.362C-98.1216 -146.048 -179.673 -375.291 -67.7989 -575.442" stroke="#FF00BD" stroke-opacity="0.5" stroke-width="0.1719" stroke-miterlimit="10"/>
<path d="M543.746 603.008C543.746 603.008 575.762 481.064 517.359 434.585C457.965 387.64 395.057 331.796 291.041 269.381C286.55 266.706 282.651 262.639 278.358 260.058C81.3824 139.049 343.299 -25.1816 137.37 -87.185C130.307 -89.4009 123.147 -90.8272 115.624 -92.7035C-100.807 -144.339 -183.084 -372.817 -67.9795 -575.354" stroke="#FF00BD" stroke-opacity="0.5" stroke-width="0.1719" stroke-miterlimit="10"/>
<path d="M543.239 604.314C543.239 604.314 575.386 481.314 515.533 436.38C454.492 390.885 390.563 336.508 287.301 273.055C282.81 270.38 278.943 266.05 274.65 263.469C79.7451 140.927 340.476 -25.5413 135.104 -87.0031C128.041 -89.2191 120.683 -90.7388 113.127 -92.3518C-103.439 -142.936 -186.41 -370.912 -68.2729 -575.926" stroke="#FF00BD" stroke-opacity="0.5" stroke-width="0.1719" stroke-miterlimit="10"/>
<path d="M542.495 605.834C542.495 605.834 574.971 481.868 513.272 438.29C450.581 394.245 385.663 341.072 283.089 277.106C278.598 274.432 274.731 270.101 270.47 267.256C77.4348 143.087 336.984 -25.6231 132.363 -86.451C125.301 -88.6671 117.942 -90.1869 110.386 -91.8C-106.285 -141.596 -189.818 -368.454 -68.4163 -576.119" stroke="#FF00BD" stroke-opacity="0.5" stroke-width="0.1719" stroke-miterlimit="10"/>
<path d="M541.755 607.359C541.755 607.359 574.362 482.334 511.014 440.206C446.675 397.612 380.933 345.998 279.08 281.257C274.621 278.319 270.753 273.988 266.492 271.143C75.5255 145.44 333.891 -25.5117 129.858 -86.0621C122.795 -88.2783 115.404 -89.5348 107.682 -91.5047C-108.928 -140.157 -193.155 -366.515 -68.7527 -576.398" stroke="#FF00BD" stroke-opacity="0.5" stroke-width="0.1719" stroke-miterlimit="10"/>
<path d="M541.234 608.666C541.234 608.666 573.972 482.584 508.976 441.907C443.187 400.857 376.259 350.355 275.127 284.839C270.668 281.901 266.8 277.57 262.539 274.725C73.6108 147.752 330.625 -25.7949 127.347 -85.7101C120.251 -87.6631 112.893 -89.183 105.138 -90.8897C-111.409 -138.397 -196.33 -364.252 -68.6965 -576.52" stroke="#FF00BD" stroke-opacity="0.5" stroke-width="0.1719" stroke-miterlimit="10"/>
<path d="M540.48 610.185C540.48 610.185 573.546 483.144 506.705 443.826C439.27 404.228 371.552 355.025 270.914 288.906C266.455 285.968 262.62 281.374 258.359 278.529C71.3077 149.934 327.328 -25.7529 124.612 -85.1246C117.516 -87.0776 110.158 -88.5975 102.403 -90.3042C-114.241 -137.021 -199.919 -361.841 -69.2557 -576.58" stroke="#FF00BD" stroke-opacity="0.5" stroke-width="0.1719" stroke-miterlimit="10"/>
<path d="M539.753 611.709C539.753 611.709 572.95 483.609 504.493 445.478C435.409 407.33 366.669 359.594 266.982 292.529C262.523 289.591 258.687 284.997 254.459 281.888C69.4429 152.022 324.115 -26.2643 121.921 -84.832C114.825 -86.7851 107.268 -88.3985 99.5126 -90.1053C-117.269 -135.772 -203.444 -359.999 -69.5475 -577.127" stroke="#FF00BD" stroke-opacity="0.5" stroke-width="0.1719" stroke-miterlimit="10"/>
<path d="M539.232 613.015C539.232 613.015 572.592 483.596 502.455 447.18C431.723 410.485 362.193 364.047 262.999 296.378C258.539 293.44 254.538 288.488 250.277 285.643C67.334 154.245 320.818 -26.2775 119.413 -84.4726C112.317 -86.4257 104.76 -88.0391 96.972 -89.4826C-119.712 -134.266 -206.612 -357.725 -69.684 -577.329" stroke="#FF00BD" stroke-opacity="0.5" stroke-width="0.1719" stroke-miterlimit="10"/>
<path d="M538.476 614.534C538.476 614.534 572.164 484.152 500.38 449.188C428.199 414.037 357.482 368.712 258.978 300.532C254.551 297.33 250.517 292.642 246.289 289.533C65.1872 156.774 317.515 -26.25 116.868 -83.8093C109.772 -85.7625 102.182 -87.1126 94.4263 -88.8194C-122.391 -132.551 -210.016 -355.241 -69.8583 -577.228" stroke="#FF00BD" stroke-opacity="0.5" stroke-width="0.1719" stroke-miterlimit="10"/>
<path d="M537.735 616.058C537.735 616.058 571.554 484.617 498.12 451.104C424.29 417.404 352.782 373.376 254.999 304.42C250.572 301.218 246.57 296.266 242.342 293.158C63.277 159.127 314.454 -26.4023 114.362 -83.4205C107.265 -85.3737 99.6751 -86.7239 91.6887 -88.2609C-125.035 -131.111 -213.388 -353.038 -69.9966 -577.413" stroke="#FF00BD" stroke-opacity="0.5" stroke-width="0.1719" stroke-miterlimit="10"/>
<path d="M537.029 617.292C537.029 617.292 570.978 484.796 495.897 452.735C420.42 420.488 347.924 377.665 250.831 308.199C246.206 304.903 242.403 300.045 238.207 296.673C61.1832 161.375 311.005 -26.7468 111.671 -83.1286C104.376 -85.1753 96.984 -86.4321 88.9975 -87.9691C-127.858 -129.766 -216.738 -350.83 -70.3152 -577.679" stroke="#FF00BD" stroke-opacity="0.5" stroke-width="0.1719" stroke-miterlimit="10"/>
<path d="M536.476 618.887C536.476 618.887 570.555 485.336 493.827 454.727C416.702 423.932 343.186 382.578 246.849 312.075C242.224 308.779 238.453 303.657 234.224 300.549C59.0438 163.89 307.906 -26.6384 109.132 -82.4774C101.838 -84.5241 94.2472 -85.8744 86.2607 -87.4114C-130.727 -128.156 -220.101 -348.619 -70.647 -577.943" stroke="#FF00BD" stroke-opacity="0.5" stroke-width="0.1719" stroke-miterlimit="10"/>
<path d="M535.735 620.41C535.735 620.41 569.945 485.8 491.601 456.38C412.859 426.772 338.519 386.98 242.871 315.964C238.246 312.668 234.475 307.546 230.278 304.174C57.1028 166.507 304.648 -26.883 106.628 -82.0871C99.3325 -84.1339 91.742 -85.4842 83.7228 -86.758C-133.369 -126.714 -223.47 -346.414 -70.7832 -578.125" stroke="#FF00BD" stroke-opacity="0.5" stroke-width="0.1719" stroke-miterlimit="10"/>
<path d="M535.039 621.639C535.039 621.639 569.578 486.066 489.386 458.004C409.195 429.942 333.667 391.261 238.709 319.733C234.116 316.174 230.345 311.052 226.148 307.68C55.0122 168.743 301.403 -27.1498 103.94 -81.8118C96.6452 -83.8587 89.0545 -85.209 81.0351 -86.4828C-135.993 -125.293 -226.788 -344.489 -71.0674 -578.68" stroke="#FF00BD" stroke-opacity="0.5" stroke-width="0.1719" stroke-miterlimit="10"/>
<path d="M534.474 623.234C534.474 623.234 569.143 486.609 487.305 460C405.468 433.39 329.151 396.01 234.72 323.616C230.127 320.057 226.356 314.935 222.16 311.563C52.8701 171.269 298.099 -27.1189 101.398 -81.1432C94.1031 -83.1901 86.48 -84.277 78.295 -85.9076C-138.829 -123.928 -230.38 -342.085 -71.2337 -578.558" stroke="#FF00BD" stroke-opacity="0.5" stroke-width="0.1719" stroke-miterlimit="10"/>
<path d="M533.767 624.467C533.767 624.467 568.566 486.787 485.28 461.724C401.795 436.567 324.491 400.392 230.949 327.582C226.356 324.023 222.585 318.901 218.421 315.265C51.1403 173.967 295.244 -27.1831 99.1036 -80.6643C91.8085 -82.7112 84.1853 -83.7982 75.9677 -85.1654C-141.453 -122.489 -233.729 -339.875 -71.5516 -578.822" stroke="#FF00BD" stroke-opacity="0.5" stroke-width="0.1719" stroke-miterlimit="10"/>
<path d="M533.026 625.989C533.026 625.989 567.956 487.253 483.021 463.642C397.887 439.937 319.793 405.061 226.743 331.645C222.15 328.086 218.411 322.701 214.049 318.972C48.5774 176.574 291.558 -27.3417 95.9764 -80.2806C88.6811 -82.3275 80.8596 -83.5079 72.8401 -84.7818C-144.319 -120.866 -237.09 -337.655 -71.879 -579.08" stroke="#FF00BD" stroke-opacity="0.5" stroke-width="0.1719" stroke-miterlimit="10"/>
<path d="M532.473 627.58C532.473 627.58 567.73 487.884 480.951 465.632C394.171 443.38 315.122 409.447 222.764 335.522C218.171 331.963 214.432 326.578 210.102 322.585C46.642 179.186 288.495 -27.4902 93.4756 -79.8852C86.1803 -81.9321 78.359 -83.1125 70.1413 -84.4798C-147.114 -119.774 -240.609 -335.789 -72.203 -579.328" stroke="#FF00BD" stroke-opacity="0.5" stroke-width="0.1719" stroke-miterlimit="10"/>
<path d="M531.764 628.813C531.764 628.813 567.185 487.797 478.757 466.997C390.329 446.197 310.489 413.564 218.821 339.127C214.26 335.305 210.522 329.919 206.159 326.19C44.7065 181.785 285.239 -27.7505 90.9757 -79.5097C83.6803 -81.5567 75.8588 -82.7371 67.6085 -83.8411C-149.583 -117.99 -243.804 -333.236 -72.3317 -579.517" stroke="#FF00BD" stroke-opacity="0.5" stroke-width="0.1719" stroke-miterlimit="10"/>
<path d="M531.037 630.335C531.037 630.335 566.588 488.262 476.511 468.914C386.435 449.566 305.605 418.137 214.659 342.926C210.099 339.103 206.36 333.717 202.03 329.725C42.3857 184.219 281.995 -27.9907 88.2888 -79.2079C80.9933 -81.2549 73.1391 -82.172 64.7229 -83.6328C-152.571 -116.992 -247.321 -331.379 -72.6156 -580.047" stroke="#FF00BD" stroke-opacity="0.5" stroke-width="0.1719" stroke-miterlimit="10"/>
<path d="M530.484 631.929C530.484 631.929 566.166 488.8 474.441 470.904C382.915 453.102 301.097 422.88 210.644 347.064C206.083 343.241 202.377 337.592 198.047 333.6C40.2133 186.996 278.697 -27.9778 85.7498 -78.5585C78.4217 -80.3422 70.5998 -81.5227 62.1836 -82.9835C-155.21 -115.553 -250.685 -329.17 -72.7494 -580.22" stroke="#FF00BD" stroke-opacity="0.5" stroke-width="0.1719" stroke-miterlimit="10"/>
<path d="M529.764 633.162C529.764 633.162 565.575 488.98 472.204 472.537C379.031 456.188 296.225 427.171 206.662 350.939C202.102 347.116 198.395 341.467 194.065 337.475C38.2423 189.868 275.599 -27.8663 83.2136 -77.9034C75.8855 -79.6871 67.8655 -80.961 59.6149 -82.0651C-157.678 -113.751 -253.878 -326.595 -72.9113 -580.118" stroke="#FF00BD" stroke-opacity="0.5" stroke-width="0.1719" stroke-miterlimit="10"/>
<path d="M529.023 634.683C529.023 634.683 564.965 489.444 470.143 474.547C375.321 459.65 291.757 431.67 202.686 354.832C197.959 350.653 194.451 345.097 190.121 341.104C36.1077 192.398 272.342 -28.1035 80.7126 -77.5046C73.1862 -79.3818 65.3642 -80.5623 56.9153 -81.7598C-160.512 -112.393 -257.239 -324.376 -73.0408 -580.284" stroke="#FF00BD" stroke-opacity="0.5" stroke-width="0.1719" stroke-miterlimit="10"/>
<path d="M528.47 636.277C528.47 636.277 564.542 489.983 468.073 476.539C371.603 463.095 287.052 436.32 198.672 358.973C193.946 354.793 190.239 349.144 186.14 344.981C34.1039 195.535 269.212 -27.7283 78.1763 -76.8494C70.6499 -78.7266 62.8278 -79.9071 54.3789 -81.1046C-163.179 -110.685 -260.599 -322.159 -73.369 -580.541" stroke="#FF00BD" stroke-opacity="0.5" stroke-width="0.1719" stroke-miterlimit="10"/>
<path d="M527.774 637.506C527.774 637.506 564.174 490.247 465.89 477.899C367.804 465.644 282.428 440.432 194.771 362.309C190.045 358.129 186.37 352.216 182.271 348.053C32.0438 197.506 266.03 -28.526 75.75 -77.0116C68.2234 -78.8888 60.4012 -80.0694 51.9195 -81.0035C-165.741 -109.795 -263.722 -320.146 -73.457 -581.009" stroke="#FF00BD" stroke-opacity="0.5" stroke-width="0.1719" stroke-miterlimit="10"/>
<path d="M527.022 639.028C527.022 639.028 563.552 490.717 463.622 479.822C363.89 469.02 277.726 445.108 190.563 366.382C185.836 362.203 182.162 356.29 178.062 352.127C29.6168 200.749 262.705 -28.2115 72.9881 -76.1528C65.4616 -78.03 57.6069 -78.9472 48.9597 -80.2382C-168.599 -108.145 -267.303 -317.721 -73.8107 -580.96" stroke="#FF00BD" stroke-opacity="0.5" stroke-width="0.1719" stroke-miterlimit="10"/>
<path d="M526.468 640.621C526.468 640.621 563.129 491.256 461.551 481.813C360.171 472.463 273.052 449.495 186.746 370.615C182.019 366.436 178.345 360.523 174.08 356.003C27.4132 203.791 259.408 -28.196 70.4502 -75.5006C62.9235 -77.3778 54.8707 -78.3885 46.4215 -79.586C-171.236 -106.703 -270.665 -315.508 -73.9426 -581.128" stroke="#FF00BD" stroke-opacity="0.5" stroke-width="0.1719" stroke-miterlimit="10"/>
<path d="M525.764 641.854C525.764 641.854 562.586 491.175 459.331 483.448C356.306 475.552 268.398 453.883 182.62 374.139C177.926 369.696 174.252 363.783 169.986 359.264C25.3329 206.053 256.197 -28.6904 67.804 -75.4503C60.2775 -77.3275 52.2248 -78.3382 43.5451 -79.3658C-174.238 -105.429 -274.193 -313.362 -74.4424 -581.449" stroke="#FF00BD" stroke-opacity="0.5" stroke-width="0.1719" stroke-miterlimit="10"/>
<path d="M525.023 643.375C525.023 643.375 561.975 491.64 457.071 485.366C352.398 478.922 263.534 458.197 178.414 378.204C173.72 373.761 170.046 367.848 165.781 363.329C22.9052 209.282 252.678 -28.4899 65.0746 -74.8769C57.548 -76.7541 49.4952 -77.7647 40.8155 -78.7923C-176.87 -103.973 -277.551 -311.137 -74.7668 -581.701" stroke="#FF00BD" stroke-opacity="0.5" stroke-width="0.1719" stroke-miterlimit="10"/>
<path d="M524.467 644.968C524.467 644.968 561.551 492.172 455.195 487.445C348.871 482.454 259.215 463.027 174.817 382.259C170.123 377.815 166.481 371.639 162.216 367.119C21.1158 212.233 249.999 -28.4798 62.9518 -74.3249C55.425 -76.2022 47.3719 -77.2129 38.6594 -77.9771C-179.131 -102.368 -280.538 -308.768 -74.5195 -581.722" stroke="#FF00BD" stroke-opacity="0.5" stroke-width="0.1719" stroke-miterlimit="10"/>
<path d="M523.762 646.2C523.762 646.2 560.975 492.354 452.974 489.079C345.005 485.541 254.593 467.151 170.657 386.044C165.963 381.601 162.321 375.425 158.088 370.642C18.7708 214.926 246.523 -28.5434 60.2716 -74.0139C52.7449 -75.8912 44.6919 -76.9018 35.7814 -77.7595C-182.136 -101.097 -284.068 -306.626 -74.8232 -581.954" stroke="#FF00BD" stroke-opacity="0.5" stroke-width="0.1719" stroke-miterlimit="10"/>
<path d="M523.02 647.718C523.02 647.718 560.561 492.91 450.746 490.731C341.327 488.739 249.729 471.462 166.484 389.845C161.822 385.138 158.18 378.961 153.947 374.178C16.4084 217.628 243.266 -28.7766 57.5749 -73.704C50.048 -75.5813 41.7644 -76.4221 33.0844 -77.4497C-184.767 -99.6402 -287.425 -304.399 -75.1467 -582.204" stroke="#FF00BD" stroke-opacity="0.5" stroke-width="0.1719" stroke-miterlimit="10"/>
<path d="M522.467 649.311C522.467 649.311 560.139 493.449 448.676 492.723C337.61 492.184 245.255 475.944 162.702 393.816C158.04 389.109 154.398 382.933 150.165 378.15C14.4064 220.766 240.17 -28.663 55.2384 -72.9533C47.7116 -74.8306 39.4278 -75.6714 30.7153 -76.4357C-187.597 -98.2864 -290.782 -302.179 -75.2744 -582.364" stroke="#FF00BD" stroke-opacity="0.5" stroke-width="0.1719" stroke-miterlimit="10"/>
<path d="M521.76 650.543C521.76 650.543 559.562 493.628 446.453 494.355C333.74 495.269 240.596 480.329 158.537 397.598C153.875 392.892 150.234 386.715 146.033 381.669C11.8565 223.36 236.921 -28.9057 52.5518 -72.6521C45.025 -74.5294 36.7414 -75.3701 27.8308 -76.2278C-190.182 -97.1014 -294.123 -299.956 -75.5858 -582.612" stroke="#FF00BD" stroke-opacity="0.5" stroke-width="0.1719" stroke-miterlimit="10"/>
<path d="M521.032 652.064C521.032 652.064 558.964 494.091 444.206 496.271C329.843 498.638 235.94 484.734 154.373 401.397C149.711 396.691 146.102 390.251 141.901 385.204C9.46906 226.321 233.476 -29.241 49.8631 -72.3515C42.3362 -74.2289 34.0523 -75.0697 25.1415 -75.9274C-192.974 -96.0114 -297.444 -298.006 -75.8705 -583.143" stroke="#FF00BD" stroke-opacity="0.5" stroke-width="0.1719" stroke-miterlimit="10"/>
<path d="M520.468 653.657C520.468 653.657 558.53 494.633 442.125 498.266C326.118 502.086 231.228 489.388 150.552 405.637C145.923 400.667 142.083 394.397 137.882 389.35C7.23232 229.637 230.307 -28.5878 47.2912 -71.4172C39.5337 -73.1246 31.4805 -74.1353 22.3392 -74.8231C-195.64 -94.2865 -300.833 -295.505 -76.0336 -583.016" stroke="#FF00BD" stroke-opacity="0.5" stroke-width="0.1719" stroke-miterlimit="10"/>
<path d="M519.75 654.889C519.75 654.889 557.94 494.817 439.893 499.903C322.241 505.175 226.597 493.515 146.385 409.427C141.756 404.457 137.948 397.924 133.748 392.877C4.68362 232.244 227.054 -28.8085 44.6049 -71.0927C36.8476 -72.8 28.5966 -73.9041 19.6537 -74.4984C-198.482 -92.6444 -304.396 -293.082 -76.3742 -582.961" stroke="#FF00BD" stroke-opacity="0.5" stroke-width="0.1719" stroke-miterlimit="10"/>
<path d="M519.032 656.409C519.032 656.409 557.387 495.01 437.885 501.643C318.613 508.105 222.143 498.007 142.452 413.047C137.625 407.983 134.015 401.543 129.847 396.233C2.52404 235.02 223.843 -29.3383 42.145 -70.9879C34.3873 -72.6954 26.1034 -73.5361 17.1925 -74.3939C-201.052 -91.7507 -307.497 -291.335 -76.4331 -583.706" stroke="#FF00BD" stroke-opacity="0.5" stroke-width="0.1719" stroke-miterlimit="10"/>
<path d="M518.468 658.002C518.468 658.002 556.952 495.552 435.804 503.637C314.887 511.553 217.661 502.491 138.631 417.286C133.804 412.223 130.195 405.783 126.059 400.209C0.319725 238.073 220.937 -29.1181 39.8036 -70.2233C32.0461 -71.9306 23.7623 -72.7714 14.6209 -73.4592C-203.717 -90.0256 -310.886 -288.833 -76.5962 -583.577" stroke="#FF00BD" stroke-opacity="0.5" stroke-width="0.1719" stroke-miterlimit="10"/>
<path d="M517.761 659.233C517.761 659.233 556.375 495.732 433.581 505.27C311.018 514.638 213.036 506.614 134.501 420.806C129.706 415.48 126.097 409.04 121.929 403.73C-2.02921 240.762 217.459 -29.1867 37.1197 -69.9176C29.3622 -71.625 21.0785 -72.4658 11.9371 -73.1535C-206.497 -88.9296 -314.191 -286.868 -76.9045 -583.818" stroke="#FF00BD" stroke-opacity="0.5" stroke-width="0.1719" stroke-miterlimit="10"/>
<path d="M517.02 660.754C517.02 660.754 555.765 496.197 431.322 507.188C307.111 518.009 208.14 511.191 130.296 424.872C125.501 419.545 121.892 413.105 117.756 407.532C-4.6542 243.899 214.171 -29.1554 34.3913 -69.3433C26.6337 -71.0507 18.3498 -71.8915 9.20834 -72.5793C-209.16 -87.2086 -317.58 -284.377 -77.0291 -583.975" stroke="#FF00BD" stroke-opacity="0.5" stroke-width="0.1719" stroke-miterlimit="10"/>
<path d="M516.501 662.058C516.501 662.058 555.375 496.45 429.288 508.894C303.431 521.168 203.705 515.386 126.521 428.823C121.726 423.496 118.149 416.793 114.014 411.219C-6.8449 246.927 211.113 -29.3166 32.096 -68.8665C24.3385 -70.5739 15.8566 -71.5081 6.68276 -71.9325C-211.78 -85.7714 -320.922 -282.163 -77.1462 -584.134" stroke="#FF00BD" stroke-opacity="0.5" stroke-width="0.1719" stroke-miterlimit="10"/>
<path d="M515.748 663.575C515.748 663.575 554.95 497.01 427.019 510.813C299.517 524.54 199.035 519.795 122.346 432.63C117.551 427.303 113.974 420.6 109.839 415.027C-9.23863 249.904 207.82 -29.2666 29.3671 -68.2723C21.6097 -69.9796 13.1279 -70.9138 3.95423 -71.3381C-214.603 -84.3868 -324.271 -279.908 -77.4992 -584.084" stroke="#FF00BD" stroke-opacity="0.5" stroke-width="0.1719" stroke-miterlimit="10"/>
<path d="M515.022 665.096C515.022 665.096 554.353 497.475 424.807 512.468C295.657 527.648 194.385 524.203 118.189 436.434C113.427 430.843 109.817 424.404 105.714 418.567C-11.8143 252.78 204.349 -29.3242 26.6877 -67.9564C18.9303 -69.6638 10.4159 -70.3346 1.07649 -71.1158C-217.58 -83.3744 -327.807 -277.768 -77.9704 -584.682" stroke="#FF00BD" stroke-opacity="0.5" stroke-width="0.1719" stroke-miterlimit="10"/>
<path d="M514.5 666.399C514.5 666.399 553.961 497.723 422.965 514.262C292.167 530.895 190.137 528.487 114.6 440.47C109.837 434.88 106.261 428.176 102.158 422.34C-13.7902 255.625 201.677 -29.321 24.5757 -67.4099C16.8181 -69.1173 8.30375 -69.7881 -1.06826 -70.306C-219.824 -81.7745 -330.777 -275.397 -77.7088 -584.694" stroke="#FF00BD" stroke-opacity="0.5" stroke-width="0.1719" stroke-miterlimit="10"/>
<path d="M513.761 667.92C513.761 667.92 553.353 498.192 420.71 516.184C288.266 534.269 185.481 532.898 110.438 444.278C105.676 438.688 101.901 431.892 97.8301 425.792C-16.5671 258.416 198.034 -29.7211 21.6944 -67.1725C13.9369 -68.8798 5.42262 -69.5506 -3.9493 -70.0685C-222.833 -80.4834 -334.311 -273.237 -78.2145 -585.003" stroke="#FF00BD" stroke-opacity="0.5" stroke-width="0.1719" stroke-miterlimit="10"/>
<path d="M513.01 669.44C513.01 669.44 552.731 498.663 418.444 518.107C284.355 537.645 180.814 537.31 106.234 448.353C101.472 442.763 97.6971 435.966 93.6266 429.866C-19.4173 261.738 194.712 -29.3996 18.9377 -66.3065C11.1804 -68.0138 2.46803 -68.7781 -6.90373 -69.2959C-225.651 -79.0905 -337.883 -270.803 -78.5624 -584.941" stroke="#FF00BD" stroke-opacity="0.5" stroke-width="0.1719" stroke-miterlimit="10"/>
<path d="M512.502 670.743C512.502 670.743 552.386 498.646 416.418 519.807C280.681 540.798 176.35 541.763 102.493 452.032C97.7635 446.178 93.9885 439.382 89.918 433.282C-21.5451 264.225 191.855 -29.4912 16.6739 -66.1181C8.7183 -67.9189 0.204027 -68.5898 -9.20031 -68.8442C-228.047 -77.8488 -341.005 -268.791 -78.4527 -585.313" stroke="#FF00BD" stroke-opacity="0.5" stroke-width="0.1719" stroke-miterlimit="10"/>
<path d="M511.739 672.429C511.739 672.429 551.756 499.26 414.13 521.877C276.734 544.323 171.637 546.325 98.2356 456.243C93.5052 450.389 89.73 443.592 85.6916 437.228C-24.2314 267.489 188.323 -29.4546 13.8865 -65.4483C5.93031 -67.2492 -2.58468 -67.9201 -11.9898 -68.1746C-230.953 -76.3897 -344.446 -266.487 -78.8734 -585.253" stroke="#FF00BD" stroke-opacity="0.5" stroke-width="0.1719" stroke-miterlimit="10"/>
<path d="M510.989 674.308C510.989 674.308 551.144 500.033 411.872 523.847C272.798 547.754 166.921 550.793 93.9639 460.346C89.2325 454.49 85.4889 447.427 81.4171 441.324C-27.1791 270.779 184.954 -29.2622 11.0412 -64.722C3.05068 -66.26 -5.46625 -66.9311 -15.0717 -67.2791C-233.951 -74.8755 -347.997 -264.162 -79.3 -585.761" stroke="#FF00BD" stroke-opacity="0.5" stroke-width="0.1719" stroke-miterlimit="10"/>
<path d="M510.26 675.912C510.26 675.912 550.553 500.537 409.605 525.811C268.856 551.179 162.199 555.257 89.9203 464.275C85.1879 458.418 81.4436 451.353 77.4035 444.986C-29.6318 273.47 181.614 -29.3204 8.45908 -64.415C0.466967 -65.9534 -8.24992 -66.7181 -17.659 -66.9727C-236.942 -73.3462 -351.736 -261.908 -79.7556 -585.972" stroke="#FF00BD" stroke-opacity="0.5" stroke-width="0.1719" stroke-miterlimit="10"/>
<path d="M509.682 677.894C509.682 677.894 550.114 501.413 407.685 528.243C265.256 555.073 157.786 560.454 85.9844 468.842C81.2834 462.719 77.5057 455.916 73.4972 449.283C-32.2099 276.96 178.615 -28.9294 5.9833 -63.4895C-2.01061 -65.0283 -10.7294 -65.7932 -20.3389 -66.1413C-239.736 -71.9888 -355.313 -259.568 -80.0412 -586.109" stroke="#FF00BD" stroke-opacity="0.5" stroke-width="0.1719" stroke-miterlimit="10"/>
<path d="M508.918 679.775C508.918 679.775 549.521 501.926 405.38 530.482C261.337 558.247 153.022 565.195 81.6991 472.954C76.9972 466.829 73.0528 459.667 69.2418 453.126C-34.9372 280.092 175.067 -29.0824 3.15972 -63.0137C-4.83591 -64.5529 -13.5566 -65.318 -23.2007 -65.4025C-242.743 -70.4599 -358.872 -257.223 -80.3087 -586.238" stroke="#FF00BD" stroke-opacity="0.5" stroke-width="0.1719" stroke-miterlimit="10"/>
<path d="M508.186 681.382C508.186 681.382 548.927 502.427 403.106 532.446C257.382 561.675 148.285 569.663 77.6063 477.149C72.9033 471.023 68.958 463.859 65.1461 457.315C-37.6708 283.211 171.847 -28.5373 0.528411 -62.4609C-7.46899 -64.0005 -16.1916 -64.7658 -25.8379 -64.8503C-245.36 -68.7598 -362.241 -254.802 -80.5817 -586.389" stroke="#FF00BD" stroke-opacity="0.5" stroke-width="0.1719" stroke-miterlimit="10"/>
<path d="M507.611 683.348C507.611 683.348 548.49 503.293 400.992 534.776C253.59 565.468 143.912 574.59 73.4836 481.619C68.8122 475.228 64.8336 468.326 60.8551 461.423C-40.6288 286.518 168.262 -28.4148 -2.32818 -61.7082C-10.3271 -63.2482 -19.0514 -64.0137 -28.898 -64.1918C-248.561 -67.3102 -365.991 -252.53 -81.2426 -586.677" stroke="#FF00BD" stroke-opacity="0.5" stroke-width="0.1719" stroke-miterlimit="10"/>
<path d="M506.848 685.217C506.848 685.217 547.866 504.059 398.72 536.743C249.639 568.899 139.148 579.327 69.2319 485.463C64.5595 479.07 60.6127 471.902 56.6333 464.998C-43.518 289.289 164.947 -28.7402 -5.11562 -61.497C-13.1162 -63.0374 -22.0734 -63.6328 -31.7235 -63.7173C-251.528 -66.0443 -369.542 -250.18 -81.7009 -586.893" stroke="#FF00BD" stroke-opacity="0.5" stroke-width="0.1719" stroke-miterlimit="10"/>
<path d="M506.116 686.819C506.116 686.819 547.273 504.556 396.445 538.705C245.683 572.326 134.41 583.796 65.1397 489.66C60.4664 483.265 56.5186 476.095 52.5384 469.189C-46.2481 292.411 161.727 -28.1913 -7.77618 -60.6756C-15.7785 -62.2164 -24.7375 -62.8119 -34.3896 -62.8964C-254.339 -64.4315 -373.104 -247.842 -81.7684 -586.938" stroke="#FF00BD" stroke-opacity="0.5" stroke-width="0.1719" stroke-miterlimit="10"/>
<path d="M505.553 688.769C505.553 688.769 546.848 505.401 394.338 541.017C241.894 576.104 129.839 588.616 61.0487 493.851C56.3743 487.454 52.4258 480.282 48.4773 473.11C-48.9763 295.527 158.375 -28.2714 -10.4024 -60.1252C-18.4064 -61.6664 -27.3673 -62.262 -37.22 -62.4402C-257.314 -63.183 -376.631 -245.774 -82.1974 -587.44" stroke="#FF00BD" stroke-opacity="0.5" stroke-width="0.1719" stroke-miterlimit="10"/>
<path d="M504.762 690.657C504.762 690.657 546.195 506.186 392.204 543.361C238.079 579.915 125.243 593.47 56.9012 498.34C52.2584 491.677 48.1105 484.41 44.3598 477.33C-51.7265 298.68 155.164 -27.9517 -13.0834 -59.2679C-21.089 -60.8094 -30.0517 -61.4052 -39.9389 -61.3193C-260.174 -61.2693 -380.075 -242.772 -82.5459 -587.004" stroke="#FF00BD" stroke-opacity="0.5" stroke-width="0.1719" stroke-miterlimit="10"/>
<path d="M504.045 692.256C504.045 692.256 545.617 506.68 389.942 545.323C234.101 583.608 120.715 598.037 52.8207 502.541C47.9783 495.783 44.0282 488.607 40.3092 481.261C-54.4428 301.806 151.791 -27.759 -15.6976 -58.7081C-23.7049 -60.25 -32.6694 -60.8459 -42.7574 -60.8537C-263.136 -60.0107 -383.789 -240.785 -82.961 -587.495" stroke="#FF00BD" stroke-opacity="0.5" stroke-width="0.1719" stroke-miterlimit="10"/>
<path d="M503.467 694.199C503.467 694.199 545.376 507.612 387.819 547.629C230.295 587.383 116.127 602.855 48.7137 506.729C43.8703 499.97 39.9518 492.528 36.1996 485.444C-57.3833 304.826 148.589 -27.4829 -18.37 -57.894C-26.5776 -59.5301 -35.544 -60.1261 -45.4354 -60.0401C-265.957 -58.4036 -387.162 -238.355 -83.2343 -587.635" stroke="#FF00BD" stroke-opacity="0.5" stroke-width="0.1719" stroke-miterlimit="10"/>
<path d="M502.691 696.068C502.691 696.068 544.739 508.379 385.533 549.6C226.328 590.821 111.346 607.602 44.4157 510.849C39.5715 504.088 35.6523 496.644 31.9319 489.295C-60.3136 307.875 145.163 -27.0019 -21.199 -57.4028C-29.4407 -58.775 -38.3762 -59.6354 -48.302 -59.2851C-268.963 -56.8548 -390.719 -235.978 -83.7272 -587.558" stroke="#FF00BD" stroke-opacity="0.5" stroke-width="0.1719" stroke-miterlimit="10"/>
<path d="M501.986 697.648C501.986 697.648 544.173 508.852 383.281 551.543C222.39 594.234 106.823 612.153 40.3731 514.769C35.5603 507.741 31.6077 500.56 27.919 492.945C-63.1573 310.359 141.861 -27.3622 -23.7739 -57.1313C-32.0174 -58.5037 -40.9874 -59.1 -51.0815 -59.1077C-271.822 -56.4119 -394.429 -234.014 -83.9018 -588.247" stroke="#FF00BD" stroke-opacity="0.5" stroke-width="0.1719" stroke-miterlimit="10"/>
<path d="M501.396 699.598C501.396 699.598 543.721 509.699 381.146 553.859C218.571 598.02 102.223 616.985 36.2225 519.236C31.4088 512.207 27.488 504.759 23.766 497.406C-65.9725 314.018 138.616 -26.8046 -26.4873 -56.0346C-34.7324 -57.4074 -43.7042 -58.0038 -53.8003 -58.0115C-274.714 -54.2567 -397.84 -231.295 -84.2125 -588.097" stroke="#FF00BD" stroke-opacity="0.5" stroke-width="0.1719" stroke-miterlimit="10"/>
<path d="M500.609 701.477C500.609 701.477 543.071 510.481 378.817 556.11C214.562 601.739 97.6341 621.843 31.8869 523.639C27.0724 516.608 22.9521 509.066 19.262 501.447C-69.3018 316.904 134.819 -26.7452 -29.5497 -55.341C-37.7961 -56.7141 -46.9682 -57.4044 -56.8997 -57.0537C-277.948 -52.5043 -401.622 -228.708 -84.9347 -587.802" stroke="#FF00BD" stroke-opacity="0.5" stroke-width="0.1719" stroke-miterlimit="10"/>
<path d="M499.902 703.051C499.902 703.051 542.504 510.944 376.759 558.139C211.014 605.334 93.1006 626.392 28.0328 527.648C-95.1938 340.702 161.507 -62.2358 -59.49 -56.797C-280.487 -51.3582 -405.148 -226.663 -85.1159 -588.511" stroke="#FF00BD" stroke-opacity="0.5" stroke-width="0.1719" stroke-miterlimit="10"/>
</svg>
