<svg width="368" height="398" viewBox="0 0 368 398" fill="none" xmlns="http://www.w3.org/2000/svg">
<path opacity="0.1" d="M195.274 258.515C208.586 258.515 219.377 254.502 219.377 249.551C219.377 244.6 208.586 240.587 195.274 240.587C181.961 240.587 171.17 244.6 171.17 249.551C171.17 254.502 181.961 258.515 195.274 258.515Z" fill="#141414"/>
<path d="M195.274 350.015C268.446 350.015 327.763 326.249 327.763 296.932C327.763 267.615 268.446 243.85 195.274 243.85C122.103 243.85 62.7851 267.615 62.7851 296.932C62.7851 326.249 122.103 350.015 195.274 350.015Z" fill="url(#paint0_linear_1_537)"/>
<path opacity="0.2" d="M195.274 250.061C265.843 250.061 323.517 272.167 327.532 300.038C327.68 299.01 327.763 297.975 327.763 296.932C327.763 267.615 268.446 243.85 195.274 243.85C122.103 243.85 62.7851 267.615 62.7851 296.932C62.7851 297.975 62.8684 299.01 63.0165 300.038C67.0308 272.167 124.705 250.061 195.274 250.061Z" fill="black"/>
<path d="M280.613 266.202C260.219 256.317 229.692 250.034 195.569 250.034C161.446 250.034 130.919 256.316 110.526 266.202H84.3974V295.862H84.4101C84.9555 320.752 134.51 340.861 195.569 340.861C256.629 340.861 306.183 320.752 306.729 295.862H306.741V266.202H280.613Z" fill="url(#paint1_linear_1_537)"/>
<path d="M195.569 339.516C134.51 339.516 84.9555 319.407 84.4101 294.516H84.3974V295.862H84.4101C84.9555 320.752 134.51 340.861 195.569 340.861C256.629 340.861 306.183 320.752 306.729 295.862H306.741V294.516H306.729C306.183 319.407 256.629 339.516 195.569 339.516Z" fill="black"/>
<path d="M195.569 311.495C256.968 311.495 306.741 291.217 306.741 266.202C306.741 241.187 256.968 220.908 195.569 220.908C134.17 220.908 84.3964 241.187 84.3964 266.202C84.3964 291.217 134.17 311.495 195.569 311.495Z" fill="url(#paint2_linear_1_537)"/>
<path d="M195.274 301.809C249.383 301.809 293.247 285.496 293.247 265.373C293.247 245.25 249.383 228.938 195.274 228.938C141.165 228.938 97.3017 245.25 97.3017 265.373C97.3017 285.496 141.165 301.809 195.274 301.809Z" fill="#FCFAFF"/>
<path d="M195.569 309.838C134.85 309.838 85.5072 290.006 84.4222 265.373C84.4101 265.649 84.3964 265.925 84.3964 266.202C84.3964 291.217 134.17 311.495 195.569 311.495C256.967 311.495 306.741 291.216 306.741 266.202C306.741 265.925 306.728 265.649 306.716 265.373C305.63 290.006 256.288 309.838 195.569 309.838Z" fill="white"/>
<path d="M243.854 250.022C232.275 244.409 214.944 240.842 195.569 240.842C176.195 240.842 158.863 244.409 147.284 250.022H132.449V266.862H132.457C132.766 280.994 160.902 292.411 195.569 292.411C230.237 292.411 258.372 280.994 258.682 266.862H258.689V250.022H243.854Z" fill="url(#paint3_linear_1_537)"/>
<path d="M195.569 291.647C160.901 291.647 132.766 280.23 132.457 266.098H132.449V266.862H132.457C132.766 280.994 160.902 292.411 195.569 292.411C230.237 292.411 258.372 280.994 258.682 266.862H258.689V266.098H258.682C258.372 280.23 230.237 291.647 195.569 291.647Z" fill="black"/>
<path d="M195.569 275.738C230.429 275.738 258.689 264.224 258.689 250.022C258.689 235.819 230.429 224.306 195.569 224.306C160.709 224.306 132.449 235.819 132.449 250.022C132.449 264.224 160.709 275.738 195.569 275.738Z" fill="url(#paint4_linear_1_537)"/>
<path d="M195.402 270.238C226.123 270.238 251.028 260.976 251.028 249.551C251.028 238.126 226.123 228.864 195.402 228.864C164.681 228.864 139.776 238.126 139.776 249.551C139.776 260.976 164.681 270.238 195.402 270.238Z" fill="#FCFAFF"/>
<path d="M195.569 274.797C161.095 274.797 133.08 263.537 132.464 249.552C132.457 249.708 132.449 249.865 132.449 250.022C132.449 264.225 160.709 275.738 195.569 275.738C230.43 275.738 258.689 264.225 258.689 250.022C258.689 249.865 258.681 249.708 258.674 249.552C258.058 263.537 230.043 274.797 195.569 274.797Z" fill="white"/>
<path opacity="0.2" d="M97.3018 42.4308V265.373C97.3018 285.497 141.165 301.809 195.274 301.809C249.383 301.809 293.247 285.497 293.247 265.373V42.4308H97.3018Z" fill="url(#paint5_linear_1_537)"/>
<path d="M138.961 149.066L197.195 117.937L258.689 149.997L197.195 185.404L138.961 149.066Z" fill="url(#paint6_linear_1_537)"/>
<path opacity="0.7" d="M197.195 25.61L138.961 149.066L197.195 185.404V25.61Z" fill="url(#paint7_linear_1_537)"/>
<path opacity="0.7" d="M197.194 25.61V185.404L258.689 149.997L197.194 25.61Z" fill="url(#paint8_linear_1_537)"/>
<path d="M138.961 149.066L197.195 234.32V185.403L138.961 149.066Z" fill="url(#paint9_linear_1_537)"/>
<path d="M197.194 234.32L258.689 149.997L197.194 185.403V234.32Z" fill="url(#paint10_linear_1_537)"/>
<path opacity="0.5" d="M258.47 149.554L197.195 184.834L139.168 148.626L138.961 149.066L197.195 185.404V234.32L197.764 233.539V185.404L258.689 149.997L258.47 149.554Z" fill="white"/>
<path opacity="0.7" d="M334.546 160.29L315.31 194.216L354.832 192.117L334.546 160.29Z" fill="url(#paint11_linear_1_537)"/>
<path opacity="0.7" d="M334.546 160.29H324.753L306.741 192.292L315.31 194.216L334.546 160.29Z" fill="url(#paint12_linear_1_537)"/>
<path opacity="0.7" d="M345.039 234.32L326.973 238.858V193.597L345.039 192.637V234.32Z" fill="url(#paint13_linear_1_537)"/>
<path opacity="0.7" d="M326.973 238.858L316.884 236.683V194.132L326.973 193.596V238.858Z" fill="url(#paint14_linear_1_537)"/>
<path opacity="0.4" d="M316.884 194.132V195.105L326.973 194.742L345.039 193.668V192.637L326.973 193.597L316.884 194.132Z" fill="black"/>
<path opacity="0.7" d="M71.0419 74.8365L56.5887 100.327L86.2839 98.7505L71.0419 74.8365Z" fill="url(#paint15_linear_1_537)"/>
<path opacity="0.7" d="M71.0418 74.8366H63.684L50.1504 98.8818L56.5887 100.327L71.0418 74.8366Z" fill="url(#paint16_linear_1_537)"/>
<path opacity="0.7" d="M78.9256 130.46L65.3514 133.87V99.8618L78.9256 99.1409V130.46Z" fill="url(#paint17_linear_1_537)"/>
<path opacity="0.7" d="M65.3516 133.87L57.7715 132.236V100.264L65.3516 99.8618V133.87Z" fill="url(#paint18_linear_1_537)"/>
<path opacity="0.4" d="M57.7715 100.264V100.995L65.3516 100.723L78.9259 99.9161V99.1409L65.3516 99.8618L57.7715 100.264Z" fill="black"/>
<path d="M114.957 54.107C117.866 48.359 115.8 38.4413 109.336 29.6271C102.789 20.6984 93.8053 15.7325 87.4324 16.9503L86.9234 16.2631L83.709 18.6202L83.718 18.6323C77.8725 23.3053 79.3132 35.4288 87.0451 45.9725C94.777 56.5168 105.907 61.5354 112.12 57.3657L112.129 57.3778L115.531 54.8832L114.957 54.107Z" fill="url(#paint19_linear_1_537)"/>
<path d="M115.344 55.0207C109.189 59.5346 97.8365 54.5175 89.9881 43.8146C82.1403 33.1123 80.7681 20.777 86.9234 16.2631C93.0787 11.7493 104.431 16.7663 112.279 27.4687C120.127 38.1721 121.499 50.5074 115.344 55.0207Z" fill="url(#paint20_linear_1_537)"/>
<path d="M112.773 50.784C107.882 54.3705 98.8622 50.3841 92.6263 41.8802C86.3903 33.3763 85.3 23.575 90.1912 19.9886C95.0818 16.4022 104.102 20.3886 110.338 28.8925C116.573 37.3969 117.664 47.1976 112.773 50.784Z" fill="url(#paint21_linear_1_537)"/>
<path d="M93.337 41.359C87.3988 33.2608 86.2211 23.9934 90.7122 20.6999C95.2034 17.4065 103.688 21.316 109.627 29.4141C115.565 37.5128 116.742 46.7802 112.251 50.0737C107.761 53.3666 99.2757 49.4577 93.337 41.359ZM109.532 29.4837C103.632 21.4377 95.2209 17.5398 90.7818 20.7948C86.3428 24.0497 87.5316 33.2434 93.4313 41.2894C99.3316 49.3354 107.743 53.2332 112.182 49.9783C116.621 46.7238 115.432 37.5296 109.532 29.4837Z" fill="white"/>
<path d="M107.418 38.4787C108.478 39.9252 109.314 41.6246 109.646 43.1928L109.709 43.4942C110.34 46.4805 108.926 47.8711 106.553 46.5943L106.448 46.5379L106.786 48.1351L104.023 46.648L103.687 45.0529L102.553 44.4427L102.892 46.0399L100.128 44.5529L99.7933 42.9573L99.1457 42.6089L97.7788 41.8733L97.0395 38.3965L98.4101 39.1337L97.5248 34.955L96.7881 31.4756L95.993 27.7158L94.6224 26.9786L93.8857 23.4992L95.2563 24.2364L95.9002 24.5831L95.4866 22.6265L98.2472 24.112L98.6609 26.0686L99.7944 26.6788L99.3807 24.7222L102.141 26.2077L102.558 28.1806C104.762 29.5127 106.968 32.7086 107.554 35.4762L107.613 35.7613C107.869 36.9622 107.777 37.8912 107.418 38.4787ZM106.945 42.0077L106.882 41.7063C106.657 40.6392 105.783 39.3993 104.932 38.9414L104.576 38.7506L100.288 36.4431L101.173 40.6218L101.758 40.9364L105.817 43.1201C106.665 43.5759 107.174 43.08 106.945 42.0077ZM98.7526 29.2018L99.5509 32.9632L103.837 35.2691C104.599 35.6796 105.055 35.2354 104.852 34.2758L104.789 33.9891C104.586 33.0295 103.803 31.9193 103.041 31.5088L99.3402 29.518L98.7526 29.2018Z" fill="white"/>
<path d="M74.3456 207.548L86.6604 200.965L99.6645 207.745L86.6604 215.233L74.3456 207.548Z" fill="url(#paint22_linear_1_537)"/>
<path opacity="0.7" d="M86.6605 181.441L74.3457 207.548L86.6605 215.233V181.441Z" fill="url(#paint23_linear_1_537)"/>
<path opacity="0.7" d="M86.6602 181.441V215.233L99.6642 207.745L86.6602 181.441Z" fill="url(#paint24_linear_1_537)"/>
<path d="M74.3456 207.548L86.6604 225.577V215.233L74.3456 207.548Z" fill="url(#paint25_linear_1_537)"/>
<path d="M86.6602 225.577L99.6642 207.745L86.6602 215.233V225.577Z" fill="url(#paint26_linear_1_537)"/>
<path opacity="0.5" d="M99.6181 207.651L86.6604 215.112L74.3893 207.455L74.3456 207.548L86.6604 215.233V225.577L86.7805 225.412V215.233L99.6645 207.745L99.6181 207.651Z" fill="white"/>
<path opacity="0.3" d="M86.7526 236.139C104.699 236.139 119.247 221.59 119.247 203.644C119.247 185.698 104.699 171.149 86.7526 171.149C68.8063 171.149 54.2578 185.698 54.2578 203.644C54.2578 221.59 68.8063 236.139 86.7526 236.139Z" fill="url(#paint27_linear_1_537)"/>
<path d="M123.644 209.217C126.754 188.59 112.367 169.429 91.6904 166.663C71.6432 163.982 52.9339 177.992 49.8729 197.99C49.0008 203.693 49.4666 209.277 51.0348 214.444C52.154 218.138 50.8124 222.134 47.6739 224.379C40.3477 228.907 32.9873 234.009 25.6021 239.567C24.8428 240.137 24.0819 240.716 23.3231 241.299C22.501 241.925 21.6806 242.558 20.8585 243.2C20.1039 243.783 19.3514 244.373 18.5953 244.969C17.583 245.764 16.5718 246.571 15.5574 247.384C12.4157 249.636 11.6896 254.006 13.9397 257.145C15.0974 258.76 16.82 259.739 18.6422 259.997C20.3653 260.241 22.179 259.853 23.703 258.76C24.8312 258.022 25.9525 257.281 27.067 256.541C27.8675 256.008 28.6632 255.474 29.4563 254.942C30.3305 254.353 31.2004 253.763 32.0657 253.172C32.8598 252.632 33.6481 252.088 34.4333 251.546C42.1367 246.227 49.5009 240.811 56.4766 235.282C59.4581 233.148 63.4508 233.02 66.5319 235.01C70.8792 237.814 75.8825 239.759 81.3349 240.556C101.568 243.523 120.592 229.434 123.644 209.217ZM83.224 235.945C83.1086 235.936 82.9916 235.921 82.8746 235.905C82.6422 235.88 82.4083 235.848 82.1769 235.815C81.8376 235.767 81.4972 235.712 81.1615 235.653C81.0182 235.629 80.8775 235.603 80.7368 235.577C80.4022 235.513 80.0697 235.448 79.7361 235.375C79.205 235.256 78.678 235.124 78.1584 234.983C78.1558 234.985 78.1542 234.983 78.1542 234.983C77.8939 234.911 77.6357 234.837 77.3786 234.759C77.1341 234.687 76.8906 234.61 76.6471 234.529C76.6271 234.525 76.6071 234.519 76.5881 234.51C76.3405 234.428 76.0928 234.347 75.8483 234.259C75.5975 234.167 75.3461 234.076 75.0958 233.98C74.5994 233.79 74.1093 233.586 73.6251 233.374C73.3832 233.268 73.1414 233.157 72.9053 233.043C72.6729 232.934 72.4426 232.822 72.2155 232.709C72.2091 232.706 72.2008 232.7 72.1944 232.697C71.9584 232.578 71.7276 232.46 71.4946 232.335C71.277 232.218 71.0589 232.102 70.8465 231.982C70.6763 231.885 70.5061 231.789 70.3412 231.689C70.2115 231.614 70.0819 231.539 69.9575 231.461C69.7584 231.342 69.566 231.222 69.37 231.097C69.1777 230.977 68.9885 230.851 68.7998 230.724C68.5832 230.583 68.3666 230.437 68.1559 230.287C67.9403 230.136 67.7322 229.985 67.5214 229.83C67.3112 229.676 67.103 229.519 66.9007 229.359C66.7078 229.212 66.5155 229.06 66.3252 228.906C66.1477 228.763 65.9707 228.615 65.7962 228.466C65.7098 228.395 65.6276 228.324 65.5465 228.249C65.1787 227.936 64.8213 227.615 64.4751 227.282C64.3281 227.147 64.1848 227.007 64.0431 226.869C64.0046 226.834 63.9682 226.797 63.9297 226.758C63.768 226.598 63.6109 226.44 63.4544 226.276C62.7246 225.525 62.0322 224.738 61.3783 223.916C61.2212 223.721 61.069 223.526 60.9172 223.327C55.83 216.649 53.3081 208.016 54.5828 199.066C54.6507 198.583 54.7308 198.106 54.8204 197.63C54.8509 197.453 54.8889 197.275 54.9242 197.099C54.9442 197.003 54.9616 196.905 54.9864 196.809C55.0106 196.682 55.039 196.555 55.0675 196.429C55.0981 196.305 55.1244 196.18 55.1545 196.056C55.1898 195.912 55.2262 195.763 55.2636 195.622C55.3178 195.407 55.3737 195.195 55.4322 194.985C55.4838 194.789 55.5428 194.59 55.6013 194.397C55.6904 194.095 55.7837 193.794 55.8806 193.498C56.0461 192.984 56.2263 192.484 56.417 191.988C56.5103 191.74 56.6078 191.491 56.7122 191.247C56.788 191.06 56.8655 190.876 56.9471 190.693C57.0035 190.565 57.0594 190.438 57.1158 190.31C57.3113 189.878 57.5131 189.455 57.7239 189.032C57.8177 188.848 57.9131 188.666 58.0111 188.483C58.1281 188.26 58.2471 188.04 58.3705 187.821C58.4558 187.664 58.5459 187.506 58.6381 187.351C58.7256 187.196 58.8173 187.041 58.9137 186.887C59.006 186.732 59.0998 186.58 59.1936 186.428C59.252 186.335 59.31 186.243 59.3706 186.152C60.0061 185.16 60.6943 184.204 61.4288 183.293C61.4973 183.208 61.5664 183.124 61.6349 183.039C61.8014 182.84 61.9684 182.64 62.1365 182.447C62.262 182.299 62.3916 182.152 62.5207 182.01C62.5265 182.001 62.5318 181.997 62.5344 181.991C62.6798 181.831 62.8221 181.674 62.9691 181.518C63.1409 181.331 63.3143 181.15 63.4919 180.97C63.593 180.865 63.6963 180.762 63.7996 180.659C63.8497 180.609 63.9003 180.559 63.9498 180.512C64.0478 180.413 64.1479 180.317 64.248 180.221C64.375 180.096 64.5083 179.974 64.6369 179.852C64.7439 179.754 64.8535 179.654 64.9636 179.554C65.068 179.459 65.1723 179.367 65.2761 179.276C65.4347 179.135 65.5955 178.996 65.7583 178.86C65.8357 178.793 65.9163 178.724 65.9959 178.659C66.1482 178.531 66.3026 178.405 66.4591 178.282C66.6567 178.124 66.859 177.965 67.0609 177.812L67.1937 177.711C67.3597 177.584 67.5299 177.458 67.7001 177.337C67.9135 177.183 68.1285 177.031 68.3456 176.882C68.5326 176.752 68.7218 176.624 68.9126 176.498C68.9953 176.443 69.0833 176.389 69.166 176.333C69.3494 176.214 69.5344 176.097 69.722 175.983C69.9264 175.86 70.1309 175.736 70.3374 175.615C70.5514 175.488 70.7674 175.364 70.9856 175.242C71.1589 175.147 71.3318 175.051 71.5094 174.961C71.6285 174.894 71.7491 174.83 71.8745 174.767C72.0221 174.691 72.1723 174.613 72.3224 174.539C72.4573 174.473 72.5896 174.408 72.7267 174.344C72.7567 174.325 72.7904 174.311 72.8199 174.297C72.9548 174.231 73.0944 174.165 73.233 174.104C73.2478 174.096 73.2625 174.089 73.2773 174.082C73.4575 174.001 73.6383 173.92 73.8185 173.839C73.8475 173.83 73.8744 173.817 73.8986 173.807C74.1268 173.709 74.3554 173.612 74.5831 173.519C74.8281 173.417 75.0747 173.322 75.3229 173.23C75.5427 173.147 75.7619 173.065 75.9853 172.987C76.0548 172.962 76.1249 172.938 76.1918 172.914C76.3984 172.842 76.6118 172.772 76.82 172.706C77.0455 172.631 77.2674 172.563 77.4945 172.495C77.5277 172.485 77.5567 172.476 77.5872 172.469C77.778 172.412 77.9687 172.355 78.1637 172.304C78.2665 172.274 78.3708 172.247 78.4751 172.22C78.639 172.176 78.805 172.134 78.971 172.092C79.0753 172.065 79.177 172.04 79.2835 172.015C79.4273 171.982 79.5717 171.949 79.7161 171.916C80.467 171.747 81.2253 171.609 81.9894 171.495C82.0152 171.492 82.0362 171.488 82.0615 171.484C82.2065 171.463 82.3535 171.444 82.4957 171.424C82.6912 171.4 82.8867 171.376 83.0822 171.352C83.2893 171.327 83.4986 171.305 83.7072 171.288C83.8347 171.275 83.9644 171.265 84.094 171.255C84.2979 171.237 84.4992 171.22 84.7026 171.207C84.9745 171.193 85.2491 171.178 85.5189 171.166C85.5552 171.167 85.59 171.164 85.6221 171.164C85.8613 171.155 86.1 171.151 86.3388 171.146C86.3688 171.144 86.3983 171.145 86.4305 171.145C86.6739 171.141 86.9211 171.142 87.1656 171.146C87.721 171.154 88.2743 171.177 88.8349 171.214C89.0937 171.23 89.3497 171.249 89.6101 171.273C89.8361 171.295 90.0622 171.316 90.2877 171.342C90.4458 171.359 90.6013 171.377 90.7583 171.399C90.948 171.42 91.1393 171.444 91.33 171.472C109.07 173.994 121.446 190.479 118.923 208.218C118.904 208.352 118.882 208.483 118.862 208.616C118.834 208.799 118.805 208.981 118.774 209.163C118.741 209.354 118.707 209.545 118.671 209.735C118.64 209.899 118.606 210.061 118.573 210.224C118.488 210.636 118.398 211.045 118.299 211.449C118.298 211.453 118.298 211.453 118.298 211.453C118.036 212.508 117.725 213.54 117.367 214.547C117.3 214.735 117.231 214.925 117.161 215.108C117.092 215.297 117.018 215.482 116.943 215.669C116.87 215.854 116.797 216.038 116.717 216.22C116.642 216.407 116.562 216.588 116.483 216.77C116.377 217.013 116.266 217.254 116.152 217.491C116.043 217.723 115.932 217.953 115.818 218.18C115.815 218.187 115.809 218.195 115.806 218.202C115.687 218.438 115.569 218.669 115.444 218.902C115.327 219.12 115.211 219.338 115.09 219.55C114.994 219.72 114.898 219.89 114.797 220.055C114.722 220.185 114.646 220.312 114.569 220.439C114.448 220.64 114.322 220.84 114.197 221.041C114.08 221.227 113.959 221.412 113.836 221.594C113.692 221.813 113.544 222.027 113.396 222.24C113.248 222.45 113.099 222.66 112.948 222.864C112.945 222.867 112.944 222.871 112.939 222.875C112.787 223.083 112.631 223.291 112.471 223.494C112.323 223.687 112.174 223.878 112.018 224.065C111.873 224.245 111.727 224.424 111.575 224.6C111.506 224.684 111.433 224.769 111.358 224.85C111.045 225.217 110.721 225.577 110.388 225.928C110.262 226.059 110.139 226.189 110.012 226.319C109.964 226.367 109.917 226.416 109.866 226.466C109.707 226.628 109.548 226.785 109.385 226.941C109.258 227.066 109.129 227.189 108.999 227.308C108.922 227.382 108.844 227.455 108.768 227.524C108.206 228.041 107.625 228.54 107.025 229.018C106.83 229.174 106.635 229.326 106.436 229.478C106.198 229.659 105.959 229.838 105.713 230.012C105.543 230.134 105.376 230.253 105.204 230.372C105.168 230.399 105.128 230.426 105.089 230.448C104.957 230.54 104.828 230.63 104.695 230.715C104.589 230.788 104.481 230.858 104.376 230.926C104.172 231.056 103.967 231.189 103.755 231.318C103.346 231.57 102.93 231.814 102.507 232.047C102.348 232.136 102.192 232.222 102.03 232.305C101.859 232.399 101.684 232.492 101.508 232.578C101.492 232.59 101.472 232.601 101.453 232.607C101.274 232.699 101.094 232.787 100.913 232.878C100.44 233.109 99.9594 233.325 99.473 233.535L99.014 233.727C98.5898 233.901 98.1598 234.067 97.7267 234.219C97.596 234.27 97.4616 234.316 97.3272 234.362C96.8967 234.512 96.4636 234.653 96.0247 234.781C95.8218 234.843 95.6168 234.903 95.4097 234.959C95.4002 234.963 95.3949 234.966 95.386 234.965C95.2142 235.015 95.036 235.062 94.8606 235.107C94.7799 235.128 94.702 235.148 94.6235 235.167C94.5023 235.198 94.3811 235.23 94.2588 235.255C94.126 235.287 93.9937 235.319 93.8588 235.349C93.7287 235.38 93.597 235.408 93.4674 235.434C93.1728 235.497 92.8756 235.558 92.5758 235.609C92.4013 235.645 92.2258 235.674 92.0498 235.702C91.8717 235.734 91.6868 235.761 91.505 235.787C91.2969 235.821 91.0845 235.849 90.8726 235.873C90.8515 235.877 90.8305 235.881 90.8073 235.883C90.6298 235.909 90.4485 235.931 90.2672 235.947C90.1671 235.959 90.067 235.97 89.9679 235.978C89.8167 235.996 89.6659 236.01 89.511 236.019C89.0425 236.061 88.5736 236.091 88.1041 236.11C87.9402 236.118 87.7794 236.124 87.6145 236.124C87.5476 236.127 87.4812 236.129 87.4148 236.127C87.2441 236.136 87.0649 236.139 86.8894 236.136C86.862 236.137 86.8368 236.136 86.8094 236.136C86.3398 236.139 85.8693 236.13 85.3977 236.11C85.159 236.099 84.9223 236.085 84.6862 236.071C84.4228 236.054 84.162 236.035 83.8974 236.01C83.6735 235.994 83.4496 235.971 83.224 235.945Z" fill="url(#paint28_linear_1_537)"/>
<path opacity="0.5" d="M120.83 208.489C123.503 189.702 110.392 172.241 91.6002 169.567C72.8093 166.893 55.3509 180.003 52.6772 198.794C50.0034 217.585 63.1124 235.048 81.9033 237.722C100.697 240.394 118.155 227.284 120.83 208.489ZM105.203 230.374C105.167 230.401 105.127 230.428 105.088 230.45C104.956 230.542 104.827 230.632 104.694 230.717C104.588 230.79 104.48 230.86 104.375 230.928C104.171 231.058 103.966 231.191 103.754 231.32C103.344 231.572 102.929 231.816 102.505 232.049C102.347 232.138 102.191 232.224 102.029 232.307C101.858 232.401 101.683 232.494 101.506 232.58C101.491 232.592 101.471 232.603 101.452 232.609C101.272 232.701 101.093 232.789 100.912 232.88C100.439 233.111 99.9582 233.327 99.4718 233.537L99.0128 233.729C98.5887 233.903 98.1587 234.069 97.7255 234.221C97.5948 234.272 97.4605 234.318 97.3261 234.364C96.8956 234.514 96.4624 234.655 96.0235 234.783C95.8206 234.845 95.6156 234.905 95.4085 234.962C95.399 234.965 95.3938 234.968 95.3848 234.967C95.213 235.017 95.0349 235.064 94.8595 235.109C94.7788 235.13 94.7009 235.15 94.6224 235.169C94.5012 235.2 94.38 235.232 94.2577 235.257C94.1249 235.289 93.9926 235.321 93.8577 235.351C93.7276 235.382 93.5958 235.41 93.4662 235.436C93.1716 235.499 92.8744 235.56 92.5746 235.611C92.4002 235.647 92.2247 235.676 92.0487 235.705C91.8706 235.736 91.6856 235.763 91.5038 235.789C91.2957 235.823 91.0833 235.851 90.8715 235.875C90.8504 235.879 90.8293 235.883 90.8062 235.885C90.6286 235.911 90.4473 235.933 90.266 235.949C90.1659 235.961 90.0658 235.972 89.9667 235.98C89.8155 235.998 89.6648 236.012 89.5099 236.021C89.0414 236.063 88.5724 236.093 88.1029 236.112C87.939 236.12 87.7783 236.126 87.6134 236.126C87.5465 236.129 87.4801 236.131 87.4137 236.129C87.2429 236.138 87.0638 236.141 86.8883 236.138C86.8609 236.139 86.8356 236.138 86.8082 236.138C86.3387 236.141 85.8681 236.132 85.3965 236.112C85.1578 236.101 84.9212 236.087 84.6851 236.073C84.4217 236.056 84.1608 236.037 83.8963 236.012C83.6723 235.993 83.4484 235.97 83.2228 235.944C83.1074 235.935 82.9905 235.92 82.8735 235.904C82.6411 235.879 82.4071 235.847 82.1758 235.814C81.8364 235.766 81.496 235.711 81.1603 235.652C81.017 235.628 80.8764 235.602 80.7357 235.576C80.401 235.512 80.0685 235.447 79.735 235.374C79.2038 235.255 78.6768 235.123 78.1573 234.982C78.1546 234.984 78.1531 234.982 78.1531 234.982C77.8928 234.91 77.6345 234.836 77.3774 234.758C77.1329 234.685 76.8895 234.609 76.646 234.528C76.626 234.524 76.6059 234.518 76.587 234.509C76.3393 234.427 76.0917 234.346 75.8472 234.258C75.5963 234.166 75.3449 234.075 75.0946 233.979C74.5982 233.789 74.1082 233.585 73.6239 233.373C73.382 233.267 73.1402 233.156 72.9041 233.042C72.6717 232.933 72.4415 232.821 72.2144 232.708C72.208 232.705 72.1996 232.699 72.1933 232.696C71.9572 232.577 71.7264 232.459 71.4935 232.334C71.2758 232.217 71.0577 232.101 70.8453 231.981C70.6751 231.884 70.5049 231.788 70.34 231.688C70.2104 231.613 70.0807 231.538 69.9564 231.459C69.7572 231.341 69.5648 231.221 69.3688 231.096C69.1765 230.976 68.9873 230.85 68.7986 230.723C68.5821 230.582 68.3655 230.436 68.1548 230.286C67.9392 230.135 67.7311 229.983 67.5203 229.829C67.3101 229.675 67.1019 229.518 66.8995 229.358C66.7067 229.21 66.5144 229.059 66.3241 228.905C66.1466 228.761 65.9695 228.614 65.7951 228.465C65.7086 228.394 65.6264 228.323 65.5453 228.248C65.1775 227.935 64.8202 227.614 64.474 227.281C64.327 227.146 64.1836 227.006 64.0419 226.868C64.0034 226.833 63.9671 226.795 63.9286 226.756C63.7668 226.597 63.6098 226.439 63.4533 226.275C62.7235 225.524 62.031 224.737 61.3771 223.915C61.2201 223.72 61.0678 223.525 60.916 223.326C55.8289 216.648 53.3069 208.015 54.5816 199.065C54.6496 198.582 54.7297 198.105 54.8193 197.629C54.8498 197.452 54.8878 197.274 54.9231 197.098C54.9431 197.002 54.9604 196.904 54.9852 196.808C55.0095 196.681 55.0379 196.554 55.0664 196.428C55.097 196.304 55.1233 196.179 55.1534 196.055C55.1887 195.911 55.225 195.762 55.2624 195.621C55.3167 195.406 55.3726 195.194 55.431 194.984C55.4827 194.787 55.5417 194.589 55.6002 194.395C55.6892 194.093 55.7825 193.793 55.8795 193.496C56.0449 192.983 56.2252 192.483 56.4159 191.987C56.5092 191.739 56.6066 191.49 56.711 191.246C56.7869 191.059 56.8644 190.875 56.946 190.691C57.0024 190.564 57.0582 190.436 57.1146 190.309C57.3101 189.877 57.512 189.454 57.7228 189.031C57.8165 188.847 57.9119 188.665 58.0099 188.481C58.1269 188.259 58.246 188.039 58.3693 187.82C58.4546 187.663 58.5448 187.505 58.637 187.35C58.7245 187.195 58.8161 187.04 58.9126 186.886C59.0048 186.731 59.0986 186.579 59.1924 186.427C59.2509 186.334 59.3089 186.241 59.3695 186.151C60.005 185.159 60.6932 184.203 61.4277 183.292C61.4962 183.207 61.5653 183.123 61.6338 183.038C61.8003 182.838 61.9673 182.639 62.1354 182.446C62.2608 182.298 62.3904 182.151 62.5195 182.008C62.5253 182 62.5306 181.996 62.5332 181.989C62.6787 181.83 62.821 181.673 62.968 181.517C63.1398 181.33 63.3131 181.149 63.4907 180.969C63.5919 180.864 63.6951 180.761 63.7984 180.658C63.8485 180.608 63.8991 180.558 63.9486 180.511C64.0466 180.412 64.1468 180.316 64.2469 180.219C64.3739 180.095 64.5072 179.973 64.6358 179.851C64.7428 179.753 64.8524 179.653 64.9625 179.553C65.0668 179.457 65.1711 179.366 65.2749 179.275C65.4335 179.134 65.5943 178.995 65.7571 178.859C65.8346 178.792 65.9152 178.723 65.9948 178.658C66.1471 178.53 66.3014 178.404 66.4579 178.281C66.6555 178.123 66.8579 177.964 67.0598 177.811L67.1925 177.71C67.3585 177.583 67.5287 177.457 67.6989 177.336C67.9124 177.182 68.1273 177.03 68.3444 176.881C68.5315 176.751 68.7207 176.622 68.9114 176.497C68.9941 176.442 69.0822 176.387 69.1649 176.332C69.3483 176.213 69.5332 176.096 69.7208 175.982C69.9253 175.858 70.1298 175.735 70.3363 175.614C70.5503 175.487 70.7663 175.363 70.9845 175.241C71.1578 175.146 71.3307 175.05 71.5083 174.959C71.6274 174.893 71.748 174.829 71.8734 174.766C72.021 174.69 72.1712 174.612 72.3213 174.538C72.4562 174.471 72.5885 174.407 72.7255 174.343C72.7555 174.324 72.7892 174.31 72.8188 174.296C72.9537 174.23 73.0933 174.164 73.2319 174.103C73.2467 174.095 73.2614 174.088 73.2762 174.081C73.4564 174 73.6371 173.919 73.8173 173.838C73.8463 173.829 73.8732 173.816 73.8974 173.805C74.1256 173.708 74.3543 173.611 74.582 173.518C74.827 173.416 75.0736 173.321 75.3218 173.228C75.5415 173.146 75.7607 173.063 75.9841 172.986C76.0537 172.961 76.1238 172.936 76.1907 172.913C76.3973 172.841 76.6107 172.771 76.8189 172.705C77.0444 172.63 77.2662 172.562 77.4933 172.494C77.5265 172.484 77.5555 172.475 77.5861 172.468C77.7768 172.411 77.9676 172.354 78.1625 172.303C78.2653 172.273 78.3697 172.246 78.474 172.219C78.6379 172.175 78.8038 172.133 78.9698 172.091C79.0742 172.064 79.1759 172.039 79.2823 172.014C79.4262 171.981 79.5706 171.948 79.715 171.915C80.4659 171.746 81.2241 171.608 81.9882 171.494C82.014 171.491 82.0351 171.487 82.0604 171.483C82.2053 171.462 82.3523 171.443 82.4946 171.423C82.6901 171.399 82.8856 171.375 83.0811 171.351C83.2882 171.326 83.4974 171.304 83.7061 171.287C83.8336 171.274 83.9632 171.264 84.0928 171.254C84.2968 171.235 84.4981 171.219 84.7015 171.205C84.9734 171.192 85.2479 171.176 85.5177 171.165C85.5541 171.165 85.5889 171.163 85.621 171.163C85.8602 171.154 86.0989 171.15 86.3376 171.145C86.3677 171.143 86.3972 171.144 86.4293 171.144C86.6728 171.14 86.9199 171.141 87.1644 171.145C87.7198 171.153 88.2731 171.175 88.8338 171.213C89.0925 171.229 89.3486 171.248 89.6089 171.272C89.835 171.293 90.0611 171.315 90.2866 171.341C90.4447 171.358 90.6001 171.376 90.7571 171.398C90.9468 171.419 91.1382 171.443 91.3289 171.471C109.069 173.993 121.445 190.478 118.922 208.217C118.903 208.351 118.881 208.482 118.86 208.615C118.832 208.797 118.804 208.98 118.773 209.162C118.74 209.353 118.705 209.544 118.67 209.734C118.639 209.898 118.605 210.06 118.572 210.223C118.487 210.634 118.397 211.044 118.298 211.448C118.297 211.452 118.297 211.452 118.297 211.452C118.035 212.507 117.724 213.539 117.366 214.546C117.299 214.734 117.23 214.924 117.159 215.107C117.09 215.296 117.017 215.481 116.942 215.668C116.869 215.853 116.796 216.037 116.716 216.219C116.641 216.406 116.561 216.587 116.482 216.769C116.376 217.012 116.265 217.253 116.151 217.489C116.042 217.722 115.931 217.952 115.817 218.179C115.814 218.186 115.808 218.194 115.805 218.201C115.686 218.436 115.568 218.668 115.443 218.901C115.326 219.119 115.21 219.336 115.089 219.549C114.993 219.719 114.897 219.889 114.796 220.054C114.721 220.184 114.645 220.311 114.568 220.438C114.447 220.639 114.321 220.839 114.196 221.04C114.079 221.226 113.958 221.411 113.835 221.593C113.691 221.812 113.543 222.025 113.395 222.239C113.247 222.449 113.098 222.659 112.946 222.863C112.944 222.865 112.943 222.87 112.938 222.874C112.786 223.082 112.63 223.29 112.47 223.493C112.322 223.686 112.173 223.877 112.017 224.064C111.871 224.243 111.726 224.423 111.574 224.599C111.505 224.683 111.432 224.768 111.357 224.849C111.044 225.216 110.72 225.576 110.387 225.926C110.261 226.058 110.138 226.188 110.011 226.317C109.963 226.366 109.915 226.414 109.865 226.465C109.706 226.627 109.547 226.784 109.384 226.94C109.257 227.065 109.128 227.187 108.997 227.307C108.921 227.381 108.843 227.454 108.767 227.523C108.204 228.04 107.624 228.539 107.024 229.016C106.829 229.173 106.634 229.325 106.434 229.477C106.197 229.658 105.958 229.836 105.712 230.011C105.542 230.136 105.375 230.255 105.203 230.374Z" fill="#222221"/>
<path opacity="0.3" d="M107.023 229.019C107.623 228.542 108.204 228.043 108.766 227.526C108.845 227.454 108.921 227.384 108.997 227.31C109.128 227.19 109.256 227.068 109.383 226.943C109.547 226.786 109.705 226.629 109.864 226.468C109.914 226.417 109.962 226.369 110.01 226.32C110.138 226.191 110.261 226.061 110.386 225.929C110.72 225.578 111.043 225.219 111.356 224.852C111.432 224.77 111.502 224.688 111.573 224.602C111.725 224.425 111.871 224.246 112.016 224.066C112.172 223.879 112.322 223.689 112.469 223.496C112.629 223.293 112.783 223.087 112.938 222.877C112.943 222.872 112.943 222.868 112.946 222.866C113.097 222.662 113.247 222.451 113.394 222.242C113.543 222.029 113.691 221.815 113.834 221.596C113.958 221.414 114.079 221.228 114.195 221.043C114.321 220.843 114.447 220.642 114.567 220.44C114.646 220.316 114.721 220.186 114.796 220.057C114.896 219.892 114.992 219.722 115.089 219.551C115.209 219.339 115.325 219.121 115.442 218.903C115.565 218.673 115.688 218.438 115.805 218.204C115.808 218.197 115.814 218.189 115.817 218.182C115.933 217.953 116.044 217.722 116.15 217.492C116.265 217.256 116.375 217.014 116.481 216.772C116.561 216.59 116.64 216.409 116.718 216.224C116.728 216.201 116.741 216.175 116.749 216.148C116.816 215.992 116.881 215.83 116.943 215.673C116.974 215.601 117 215.53 117.027 215.46C117.059 215.38 117.089 215.304 117.118 215.225C117.202 215.001 117.284 214.776 117.365 214.549C117.724 213.542 118.035 212.51 118.297 211.455C118.297 211.455 118.297 211.455 118.299 211.453C118.365 211.189 118.426 210.925 118.485 210.658C118.516 210.515 118.542 210.369 118.572 210.225C118.605 210.062 118.639 209.899 118.67 209.736C118.706 209.546 118.74 209.355 118.773 209.164C118.804 208.982 118.833 208.8 118.86 208.617C118.881 208.485 118.905 208.354 118.924 208.222L118.922 208.219C121.444 190.48 109.068 173.995 91.3285 171.473C91.1377 171.445 90.9464 171.421 90.7567 171.4C90.5991 171.379 90.4437 171.36 90.2862 171.343C90.0606 171.317 89.8346 171.296 89.6085 171.274C89.3482 171.25 89.0921 171.232 88.8333 171.215C88.2727 171.178 87.7194 171.156 87.164 171.147C86.9195 171.144 86.6744 171.145 86.4289 171.146C86.3967 171.146 86.3672 171.144 86.3372 171.148C86.0964 171.149 85.8577 171.154 85.6184 171.163C85.5863 171.163 85.5515 171.165 85.5173 171.168C85.248 171.179 84.9729 171.195 84.701 171.208C84.4976 171.222 84.2942 171.236 84.0903 171.254C83.9606 171.264 83.8331 171.277 83.7056 171.289C83.4969 171.306 83.2882 171.328 83.0806 171.353C82.8851 171.377 82.6897 171.401 82.4942 171.425C82.3519 171.444 82.2048 171.463 82.0599 171.485C82.0341 171.489 82.013 171.493 81.9878 171.496C81.2237 171.611 80.4654 171.748 79.7145 171.917C79.5701 171.95 79.4262 171.983 79.2819 172.016C79.1754 172.041 79.0737 172.066 78.9694 172.093C78.8034 172.135 78.6374 172.177 78.4736 172.221C78.3692 172.248 78.2649 172.275 78.1621 172.305C77.9692 172.359 77.7764 172.413 77.5856 172.47C77.5551 172.477 77.5261 172.487 77.4929 172.496C77.2663 172.564 77.044 172.632 76.8184 172.707C76.6103 172.773 76.399 172.845 76.1903 172.915C76.1228 172.939 76.0532 172.963 75.9837 172.988C75.7602 173.066 75.5405 173.148 75.3213 173.231C75.0731 173.323 74.8287 173.42 74.5815 173.52C74.3539 173.613 74.1251 173.71 73.897 173.808C73.8727 173.818 73.8459 173.831 73.8169 173.84C73.6367 173.921 73.4559 174.002 73.2757 174.083C73.261 174.091 73.2462 174.097 73.2315 174.105C73.0924 174.166 72.9532 174.232 72.8183 174.298C72.7888 174.312 72.7551 174.326 72.725 174.345C72.588 174.409 72.4558 174.474 72.3209 174.54C72.1712 174.614 72.0211 174.692 71.873 174.768C71.7476 174.831 71.6269 174.895 71.5078 174.962C71.3308 175.052 71.1574 175.148 70.984 175.244C70.7659 175.365 70.5504 175.49 70.3359 175.616C70.1293 175.737 69.9248 175.861 69.7204 175.984C69.5333 176.098 69.3479 176.215 69.1645 176.334C69.0812 176.39 68.9937 176.444 68.911 176.499C68.7197 176.625 68.5311 176.752 68.344 176.883C68.1269 177.032 67.9119 177.184 67.6985 177.338C67.5288 177.459 67.3581 177.585 67.1921 177.712L67.0593 177.813C66.8575 177.967 66.6551 178.125 66.4575 178.283C66.301 178.406 66.1466 178.532 65.9944 178.66C65.9148 178.725 65.8341 178.794 65.7567 178.862C65.5938 178.997 65.4331 179.136 65.2745 179.277C65.1707 179.368 65.0669 179.46 64.9621 179.556C64.8525 179.655 64.7429 179.755 64.6354 179.853C64.5068 179.975 64.3735 180.097 64.2465 180.222C64.1463 180.318 64.0462 180.414 63.9482 180.514C63.8986 180.559 63.848 180.61 63.798 180.661C63.6947 180.763 63.5914 180.866 63.4903 180.971C63.3127 181.151 63.1393 181.332 62.9675 181.519C62.8205 181.675 62.6761 181.83 62.5328 181.992C62.5296 181.998 62.5243 182.002 62.5191 182.011C62.39 182.153 62.2625 182.299 62.135 182.448C61.9669 182.641 61.8004 182.841 61.6333 183.04C61.5648 183.125 61.4958 183.209 61.4273 183.294C60.6927 184.205 60.0045 185.161 59.369 186.153C59.3084 186.244 59.2504 186.336 59.1919 186.429C59.0981 186.581 59.0043 186.734 58.9121 186.888C58.8157 187.042 58.724 187.197 58.6366 187.352C58.5443 187.507 58.4547 187.664 58.3688 187.822C58.2455 188.042 58.1264 188.261 58.0095 188.484C57.912 188.663 57.8156 188.849 57.7223 189.033C57.5115 189.456 57.3102 189.88 57.1142 190.311C57.0578 190.439 57.002 190.566 56.9456 190.694C56.8634 190.877 56.7859 191.061 56.7105 191.248C56.6062 191.492 56.5088 191.741 56.4155 191.989C56.2247 192.485 56.045 192.985 55.879 193.499C55.7815 193.795 55.6882 194.096 55.5997 194.398C55.5391 194.593 55.4828 194.79 55.4306 194.986C55.3726 195.196 55.3162 195.408 55.262 195.623C55.2245 195.764 55.1882 195.913 55.1529 196.057C55.1224 196.181 55.0965 196.306 55.066 196.43C55.0375 196.557 55.009 196.683 54.9848 196.81C54.9605 196.906 54.9427 197.004 54.9226 197.1C54.8873 197.276 54.8494 197.454 54.8188 197.631C54.7292 198.107 54.6486 198.584 54.5811 199.067C53.3064 208.018 55.8284 216.65 60.9156 223.328C61.0673 223.527 61.2196 223.722 61.3767 223.917C62.0306 224.738 62.7231 225.526 63.4529 226.277C63.6094 226.441 63.7685 226.602 63.9282 226.759C63.9661 226.798 64.0025 226.835 64.0415 226.87C64.1853 227.01 64.3292 227.147 64.4736 227.283C64.8203 227.616 65.1776 227.937 65.5449 228.25C65.626 228.325 65.7082 228.396 65.7946 228.467C65.969 228.617 66.1461 228.764 66.3237 228.907C66.5134 229.061 66.7057 229.213 66.8991 229.36C67.1062 229.521 67.3096 229.677 67.5199 229.831C67.7301 229.986 67.9388 230.137 68.1543 230.288C68.3677 230.436 68.5816 230.584 68.7982 230.725C68.9874 230.852 69.1787 230.976 69.3684 231.098C69.5644 231.223 69.7567 231.343 69.9559 231.462C70.0803 231.54 70.2099 231.615 70.3396 231.69C70.5045 231.79 70.6747 231.886 70.8449 231.983C71.0599 232.101 71.2754 232.219 71.493 232.336C71.7238 232.459 71.9567 232.579 72.1928 232.698C72.1991 232.701 72.2076 232.707 72.2139 232.71C72.4416 232.824 72.6713 232.935 72.9037 233.044C73.1424 233.157 73.3842 233.267 73.6235 233.375C74.1077 233.587 74.5978 233.791 75.0942 233.981C75.3445 234.077 75.5959 234.169 75.8467 234.26C76.0912 234.348 76.3389 234.429 76.5865 234.511C76.606 234.521 76.6256 234.525 76.6456 234.531C76.889 234.612 77.1324 234.688 77.3769 234.76C77.6346 234.838 77.8923 234.912 78.1526 234.984C78.1526 234.984 78.1547 234.986 78.1568 234.984C78.6759 235.125 79.2034 235.256 79.7345 235.376C80.0681 235.449 80.4006 235.514 80.7352 235.578C80.8759 235.604 81.0166 235.63 81.1599 235.654C81.4956 235.713 81.836 235.768 82.1753 235.816C82.4067 235.85 82.6407 235.882 82.8731 235.906C82.99 235.922 83.107 235.937 83.2224 235.946C83.4479 235.972 83.6713 235.995 83.8958 236.014C84.1582 236.036 84.4212 236.058 84.6847 236.076C84.9208 236.089 85.1574 236.103 85.3961 236.115C85.8672 236.135 86.3377 236.144 86.8077 236.14C86.8351 236.139 86.8605 236.14 86.8879 236.14C87.0644 236.138 87.2409 236.137 87.4132 236.131C87.4791 236.133 87.546 236.13 87.613 236.128C87.7758 236.125 87.937 236.119 88.1025 236.115C88.572 236.096 89.041 236.065 89.5094 236.023C89.6623 236.011 89.8129 235.998 89.9663 235.982C90.0659 235.974 90.166 235.963 90.2656 235.951C90.4447 235.932 90.626 235.911 90.8057 235.887C90.8289 235.885 90.85 235.882 90.8711 235.877C91.0829 235.853 91.2931 235.822 91.5034 235.791C91.6852 235.765 91.8702 235.738 92.0483 235.707C92.2285 235.678 92.4024 235.647 92.5741 235.613C92.874 235.562 93.1707 235.501 93.4657 235.438C93.5954 235.412 93.7271 235.384 93.8573 235.354C93.9917 235.324 94.1266 235.294 94.2573 235.259C94.3779 235.231 94.5007 235.202 94.6219 235.171C94.6999 235.152 94.7784 235.132 94.859 235.111C95.0345 235.066 95.2084 235.019 95.3844 234.969C95.3933 234.971 95.3986 234.967 95.4081 234.964C95.6152 234.907 95.8196 234.848 96.023 234.786C96.462 234.657 96.8952 234.517 97.3257 234.366C97.4601 234.32 97.5928 234.272 97.7251 234.223C98.1577 234.071 98.5882 233.905 99.0124 233.731L99.4714 233.539C99.9577 233.33 100.438 233.113 100.912 232.882C101.093 232.792 101.272 232.704 101.452 232.611C101.471 232.605 101.491 232.594 101.506 232.582C101.682 232.496 101.857 232.403 102.028 232.309C102.19 232.226 102.346 232.14 102.505 232.051C102.928 231.818 103.343 231.574 103.753 231.322C103.965 231.193 104.171 231.061 104.374 230.93C104.482 230.86 104.588 230.792 104.693 230.719C104.826 230.634 104.955 230.544 105.087 230.452C105.127 230.43 105.167 230.403 105.203 230.376C105.372 230.259 105.541 230.138 105.712 230.017C105.958 229.842 106.197 229.663 106.434 229.482C106.633 229.328 106.828 229.176 107.023 229.019ZM82.2654 235.179C64.8767 232.704 52.7426 216.548 55.2156 199.156C57.6907 181.767 73.8516 169.634 91.2404 172.109C108.628 174.581 120.761 190.742 118.288 208.129C115.813 225.518 99.6542 237.654 82.2654 235.179Z" fill="white"/>
<path opacity="0.5" d="M78.5407 183.046C75.4422 184.216 72.3559 183.643 71.6471 181.768C70.9389 179.892 72.876 177.422 75.975 176.252C79.0734 175.082 82.1598 175.654 82.8685 177.531C83.5773 179.406 81.6397 181.876 78.5407 183.046Z" fill="white"/>
<path opacity="0.5" d="M71.4845 188.604C69.7809 189.248 68.0841 188.933 67.6947 187.901C67.3053 186.87 68.3703 185.512 70.0739 184.869C71.7775 184.225 73.4743 184.54 73.8637 185.572C74.2537 186.603 73.1882 187.961 71.4845 188.604Z" fill="white"/>
<path d="M34.4332 251.546C33.6481 252.087 32.8597 252.631 32.0656 253.172C28.6004 249.655 25.6559 245.657 23.3231 241.298C24.0819 240.716 24.8428 240.137 25.6021 239.566C27.9159 243.992 30.8937 248.033 34.4332 251.546Z" fill="url(#paint29_linear_1_537)"/>
<path d="M29.4556 254.942C28.6626 255.473 27.8669 256.007 27.0665 256.54C23.7193 253.099 20.8659 249.205 18.5947 244.969C19.3509 244.373 20.1039 243.783 20.858 243.2C23.1176 247.527 26.0189 251.484 29.4556 254.942Z" fill="url(#paint30_linear_1_537)"/>
<path d="M316.884 102.244C345.114 102.244 368 79.3582 368 51.1275C368 22.8968 345.114 0.0113525 316.884 0.0113525C288.653 0.0113525 265.768 22.8968 265.768 51.1275C265.768 79.3582 288.653 102.244 316.884 102.244Z" fill="url(#paint31_linear_1_537)"/>
<path d="M359.643 52.2068C360.254 28.6035 341.616 8.97356 318.013 8.36206C294.41 7.75056 274.78 26.3891 274.169 49.9924C273.557 73.5956 292.195 93.2255 315.798 93.837C339.401 94.4485 359.031 75.81 359.643 52.2068Z" fill="white"/>
<path d="M280.587 59.7896C275.456 37.7342 288.482 15.6218 309.868 9.17932C308.965 9.3295 308.06 9.50551 307.156 9.71629C284.197 15.0574 269.864 38.0819 275.205 61.0416C280.546 84.0008 303.57 98.3338 326.53 92.9926C327.433 92.7824 328.323 92.5416 329.199 92.2776C307.166 95.9357 285.718 81.844 280.587 59.7896Z" fill="#E8E8E8"/>
<path d="M309.907 12.2192C310.06 12.8437 309.677 13.4729 309.053 13.6257C308.429 13.778 307.8 13.3959 307.647 12.772C307.494 12.1481 307.876 11.5184 308.5 11.3656C309.124 11.2128 309.754 11.5948 309.907 12.2192Z" fill="#CFCFCF"/>
<path d="M303.256 14.0219C303.515 14.6099 303.248 15.2966 302.66 15.5553C302.072 15.814 301.385 15.5469 301.126 14.9588C300.868 14.3707 301.135 13.6841 301.723 13.4254C302.311 13.1666 302.997 13.4338 303.256 14.0219Z" fill="#CFCFCF"/>
<path d="M297.02 16.9523C297.376 17.4866 297.233 18.2091 296.698 18.5658C296.164 18.9226 295.442 18.7787 295.085 18.2444C294.728 17.71 294.872 16.9876 295.406 16.6309C295.941 16.2736 296.663 16.4174 297.02 16.9523Z" fill="#CFCFCF"/>
<path d="M291.387 20.9206C291.832 21.3848 291.815 22.121 291.351 22.5652C290.887 23.0094 290.15 22.9931 289.707 22.5289C289.262 22.0646 289.279 21.3285 289.743 20.8842C290.207 20.44 290.943 20.4564 291.387 20.9206Z" fill="#CFCFCF"/>
<path d="M286.529 25.8071C287.047 26.187 287.159 26.9153 286.779 27.4333C286.399 27.9512 285.671 28.0635 285.153 27.683C284.635 27.3031 284.523 26.5749 284.903 26.0569C285.283 25.5389 286.011 25.4272 286.529 25.8071Z" fill="#CFCFCF"/>
<path d="M282.594 31.4628C283.17 31.7468 283.406 32.4445 283.122 33.021C282.838 33.597 282.141 33.8336 281.564 33.5495C280.988 33.2655 280.751 32.5678 281.036 31.9913C281.32 31.4149 282.018 31.1783 282.594 31.4628Z" fill="#CFCFCF"/>
<path d="M279.7 37.7162C280.316 37.8959 280.671 38.5419 280.491 39.159C280.31 39.776 279.665 40.1301 279.048 39.9499C278.431 39.7697 278.077 39.1242 278.257 38.5071C278.437 37.8906 279.083 37.5365 279.7 37.7162Z" fill="#CFCFCF"/>
<path d="M277.936 44.3768C278.574 44.4469 279.036 45.0213 278.965 45.6599C278.895 46.2986 278.321 46.7597 277.682 46.6896C277.044 46.6195 276.583 46.0451 276.653 45.4065C276.723 44.7678 277.297 44.3067 277.936 44.3768Z" fill="#CFCFCF"/>
<path d="M277.355 51.2429C277.996 51.2007 278.55 51.6866 278.592 52.3279C278.633 52.9692 278.148 53.5225 277.507 53.5646C276.866 53.6068 276.312 53.1209 276.27 52.4796C276.228 51.8383 276.714 51.2845 277.355 51.2429Z" fill="#CFCFCF"/>
<path d="M277.976 58.1054C278.6 57.9531 279.23 58.3351 279.383 58.959C279.535 59.5829 279.153 60.2126 278.529 60.3654C277.905 60.5183 277.275 60.1357 277.122 59.5118C276.97 58.8873 277.352 58.2576 277.976 58.1054Z" fill="#CFCFCF"/>
<path d="M279.778 64.7555C280.366 64.4968 281.053 64.7639 281.312 65.352C281.57 65.9401 281.303 66.6267 280.715 66.8854C280.127 67.1442 279.44 66.877 279.182 66.2889C278.923 65.7009 279.19 65.0142 279.778 64.7555Z" fill="#CFCFCF"/>
<path d="M282.709 70.992C283.243 70.6352 283.966 70.7791 284.322 71.3134C284.679 71.8478 284.535 72.5702 284.001 72.9269C283.467 73.2837 282.744 73.1398 282.387 72.6055C282.031 72.0712 282.174 71.3487 282.709 70.992Z" fill="#CFCFCF"/>
<path d="M286.677 76.6245C287.142 76.1803 287.878 76.1966 288.322 76.6609C288.767 77.1251 288.75 77.8618 288.286 78.3055C287.822 78.7497 287.086 78.7334 286.641 78.2691C286.197 77.8054 286.213 77.0687 286.677 76.6245Z" fill="#CFCFCF"/>
<path d="M291.563 81.4829C291.943 80.9649 292.671 80.8532 293.189 81.2331C293.707 81.613 293.82 82.3413 293.439 82.8592C293.059 83.3772 292.331 83.4889 291.813 83.109C291.295 82.7286 291.183 82.0008 291.563 81.4829Z" fill="#CFCFCF"/>
<path d="M297.22 85.4182C297.504 84.8417 298.201 84.6051 298.778 84.8897C299.354 85.1737 299.591 85.8714 299.307 86.4479C299.022 87.0243 298.325 87.2609 297.748 86.9764C297.172 86.6924 296.936 85.9947 297.22 85.4182Z" fill="#CFCFCF"/>
<path d="M303.473 88.3121C303.652 87.6951 304.298 87.341 304.915 87.5212C305.533 87.7009 305.887 88.3469 305.706 88.964C305.527 89.581 304.881 89.9351 304.264 89.7549C303.647 89.5747 303.293 88.9292 303.473 88.3121Z" fill="#CFCFCF"/>
<path d="M310.133 90.0764C310.203 89.4378 310.777 88.9767 311.416 89.0468C312.055 89.1169 312.516 89.6912 312.446 90.3299C312.376 90.9686 311.801 91.4296 311.163 91.3596C310.524 91.2895 310.063 90.7151 310.133 90.0764Z" fill="#CFCFCF"/>
<path d="M316.999 90.6566C316.958 90.0153 317.443 89.4614 318.084 89.4198C318.726 89.3782 319.279 89.8635 319.321 90.5048C319.363 91.1461 318.877 91.6994 318.236 91.7416C317.595 91.7837 317.041 91.2979 316.999 90.6566Z" fill="#CFCFCF"/>
<path d="M323.862 90.0364C323.709 89.4125 324.091 88.7828 324.715 88.63C325.339 88.4772 325.969 88.8598 326.122 89.4837C326.275 90.1081 325.892 90.7373 325.268 90.8901C324.644 91.0429 324.014 90.6603 323.862 90.0364Z" fill="#CFCFCF"/>
<path d="M330.512 88.2337C330.253 87.6457 330.52 86.9591 331.108 86.7003C331.696 86.4416 332.383 86.7088 332.642 87.2968C332.9 87.8849 332.633 88.5715 332.045 88.8303C331.457 89.089 330.771 88.8218 330.512 88.2337Z" fill="#CFCFCF"/>
<path d="M336.748 85.3033C336.392 84.769 336.536 84.0466 337.07 83.6898C337.604 83.3331 338.327 83.4769 338.683 84.0112C339.04 84.5456 338.896 85.268 338.362 85.6248C337.828 85.9815 337.105 85.8376 336.748 85.3033Z" fill="#CFCFCF"/>
<path d="M342.381 81.3348C341.937 80.8706 341.953 80.1339 342.418 79.6902C342.882 79.246 343.618 79.2624 344.063 79.7266C344.507 80.1908 344.491 80.927 344.026 81.3712C343.562 81.8149 342.825 81.7991 342.381 81.3348Z" fill="#CFCFCF"/>
<path d="M347.24 76.448C346.722 76.068 346.61 75.3398 346.99 74.8218C347.37 74.3038 348.098 74.1921 348.616 74.572C349.134 74.952 349.246 75.6802 348.866 76.1982C348.486 76.7162 347.758 76.8284 347.24 76.448Z" fill="#CFCFCF"/>
<path d="M351.175 70.7922C350.599 70.5076 350.362 69.8105 350.647 69.234C350.931 68.658 351.628 68.4214 352.205 68.7054C352.781 68.9895 353.017 69.6872 352.733 70.2636C352.449 70.8401 351.751 71.0767 351.175 70.7922Z" fill="#CFCFCF"/>
<path d="M354.068 64.5394C353.452 64.3592 353.097 63.7137 353.277 63.0966C353.457 62.4801 354.103 62.126 354.72 62.3057C355.337 62.4854 355.691 63.1314 355.511 63.7485C355.331 64.365 354.685 64.7191 354.068 64.5394Z" fill="#CFCFCF"/>
<path d="M355.834 57.8784C355.195 57.8083 354.734 57.2339 354.804 56.5953C354.874 55.9566 355.448 55.4955 356.087 55.5656C356.726 55.6357 357.187 56.2101 357.117 56.8487C357.047 57.4874 356.472 57.9485 355.834 57.8784Z" fill="#CFCFCF"/>
<path d="M356.413 51.0127C355.772 51.0543 355.218 50.569 355.176 49.9277C355.135 49.2864 355.62 48.7326 356.261 48.6909C356.903 48.6493 357.456 49.1346 357.498 49.7759C357.54 50.4167 357.054 50.9705 356.413 51.0127Z" fill="#CFCFCF"/>
<path d="M355.793 44.1503C355.169 44.3031 354.539 43.9205 354.386 43.2966C354.233 42.6727 354.616 42.043 355.24 41.8902C355.864 41.7379 356.493 42.12 356.646 42.7439C356.799 43.3678 356.416 43.9975 355.793 44.1503Z" fill="#CFCFCF"/>
<path d="M353.99 37.4995C353.402 37.7583 352.716 37.4911 352.457 36.903C352.198 36.3149 352.465 35.6283 353.053 35.3696C353.641 35.1109 354.328 35.378 354.587 35.9661C354.846 36.5542 354.578 37.2408 353.99 37.4995Z" fill="#CFCFCF"/>
<path d="M351.059 31.2631C350.525 31.6199 349.803 31.476 349.446 30.9417C349.089 30.4073 349.233 29.6849 349.767 29.3281C350.302 28.9714 351.024 29.1153 351.381 29.6496C351.738 30.1839 351.594 30.9064 351.059 31.2631Z" fill="#CFCFCF"/>
<path d="M347.091 25.6307C346.627 26.0749 345.891 26.0585 345.447 25.5943C345.003 25.1301 345.019 24.3939 345.483 23.9497C345.947 23.5055 346.684 23.5218 347.128 23.9861C347.572 24.4498 347.556 25.1864 347.091 25.6307Z" fill="#CFCFCF"/>
<path d="M342.205 20.7726C341.825 21.2906 341.097 21.4029 340.579 21.0224C340.061 20.6425 339.949 19.9142 340.329 19.3962C340.709 18.8783 341.437 18.7665 341.955 19.1465C342.473 19.5264 342.585 20.2546 342.205 20.7726Z" fill="#CFCFCF"/>
<path d="M336.55 16.8369C336.266 17.4129 335.568 17.6495 334.991 17.3655C334.416 17.0814 334.179 16.3838 334.463 15.8073C334.747 15.2313 335.445 14.9947 336.021 15.2788C336.597 15.5633 336.834 16.2605 336.55 16.8369Z" fill="#CFCFCF"/>
<path d="M330.296 13.9428C330.116 14.5594 329.47 14.9135 328.853 14.7338C328.236 14.5541 327.882 13.9081 328.062 13.291C328.241 12.6739 328.888 12.3198 329.505 12.5C330.122 12.6803 330.476 13.3263 330.296 13.9428Z" fill="#CFCFCF"/>
<path d="M323.635 12.1792C323.565 12.8179 322.99 13.2789 322.352 13.2088C321.713 13.1388 321.252 12.5644 321.322 11.9257C321.393 11.2871 321.967 10.826 322.606 10.8961C323.245 10.9656 323.705 11.5405 323.635 12.1792Z" fill="#CFCFCF"/>
<path d="M316.77 11.5985C316.811 12.2398 316.326 12.7931 315.685 12.8352C315.043 12.8768 314.49 12.3915 314.448 11.7502C314.406 11.1089 314.892 10.5556 315.533 10.5135C316.174 10.4718 316.727 10.9572 316.77 11.5985Z" fill="#CFCFCF"/>
<path opacity="0.5" d="M358.778 41.3812C353.437 18.422 330.412 4.08845 307.453 9.43013L317.14 51.0681L358.778 41.3812Z" fill="url(#paint32_linear_1_537)"/>
<path opacity="0.5" d="M326.717 63.2911L320.212 52.7358L309.633 10.7748L316.817 53.5257L315.115 65.8731C314.838 67.8829 316.662 69.5465 318.638 69.087L324.909 67.6279C326.835 67.18 327.754 64.9747 326.717 63.2911Z" fill="#222221"/>
<path d="M325.509 63.1078L319.005 52.5525L308.426 10.5915L315.61 53.3424L313.908 65.6898C313.631 67.6996 315.455 69.3632 317.431 68.9037L323.701 67.4446C325.628 66.9972 326.547 64.7919 325.509 63.1078Z" fill="url(#paint33_linear_1_537)"/>
<path d="M318.325 57.3248C314.908 58.12 311.481 55.9869 310.687 52.5696C309.892 49.1524 312.025 45.7256 315.442 44.931C318.859 44.1358 322.286 46.2689 323.081 49.6862C323.876 53.1029 321.743 56.5297 318.325 57.3248Z" fill="url(#paint34_linear_1_537)"/>
<path d="M322.266 49.8754C322.958 52.8479 321.109 55.8184 318.136 56.5097C315.164 57.2011 312.193 55.352 311.501 52.3795C310.81 49.407 312.659 46.4366 315.632 45.7452C318.605 45.0539 321.575 46.9029 322.266 49.8754Z" fill="url(#paint35_linear_1_537)"/>
<path opacity="0.5" d="M319.638 50.2386C319.999 51.7899 319.034 53.3402 317.483 53.7012C315.931 54.0621 314.381 53.0973 314.02 51.546C313.659 49.9946 314.624 48.4443 316.175 48.0834C317.727 47.7224 319.277 48.6873 319.638 50.2386Z" fill="#222221"/>
<path opacity="0.3" d="M306.628 7.04512C282.321 12.7003 267.147 37.0765 272.802 61.3836C278.457 85.6907 302.833 100.865 327.14 95.2105C351.447 89.5553 366.622 65.1792 360.967 40.8721C355.312 16.565 330.935 1.38991 306.628 7.04512ZM326.571 92.766C303.612 98.1072 280.587 83.7742 275.246 60.815C269.904 37.8553 284.238 14.8308 307.197 9.48964C330.157 4.14796 353.181 18.4815 358.522 41.4407C363.863 64.3998 349.53 87.4243 326.571 92.766Z" fill="#222221"/>
<path opacity="0.2" d="M305.521 2.28309C332.859 -4.07718 360.175 12.7973 366.774 40.0168C366.739 39.8593 366.707 39.7017 366.671 39.5447C360.273 12.0485 332.798 -5.05574 305.301 1.34089C277.805 7.73805 260.701 35.2137 267.098 62.7099C267.135 62.8675 267.175 63.0229 267.213 63.1794C261.12 35.8418 278.182 8.64336 305.521 2.28309Z" fill="white"/>
<path d="M86.5619 361.342C86.8528 374.928 67.9358 386.354 44.3132 386.86C20.6822 387.366 1.29419 376.759 1.00331 363.174C0.94008 360.227 1.78368 357.378 3.37664 354.723C9.14252 345.136 24.7518 338.043 43.2598 337.648C62.0355 337.246 78.1397 343.86 84.0973 353.422C85.6413 355.894 86.5018 358.555 86.5619 361.342Z" stroke="url(#paint36_linear_1_537)" stroke-width="0.8923" stroke-miterlimit="10"/>
<path d="M76.1725 356.139C71.9264 348.197 58.9161 342.605 43.6403 342.932C28.1665 343.263 15.2741 349.563 11.5549 357.835L10.3604 357.866L10.4794 363.437L10.5 363.436C11.1592 373.877 26.1931 381.954 44.4666 381.563C62.7407 381.172 77.4151 372.459 77.6269 362L77.6475 361.999L77.521 356.103L76.1725 356.139Z" fill="url(#paint37_linear_1_537)"/>
<path d="M77.5273 356.432C77.7555 367.097 62.906 376.066 44.3616 376.463C25.8109 376.86 10.5911 368.534 10.3629 357.869C10.3134 355.556 10.9757 353.32 12.2262 351.236C16.7527 343.71 29.0058 338.142 43.5349 337.831C58.2742 337.515 70.9157 342.708 75.5929 350.214C76.8048 352.155 77.4804 354.244 77.5273 356.432Z" fill="url(#paint38_linear_1_537)"/>
<path d="M70.6171 355.973C70.7984 364.449 58.9984 371.576 44.2607 371.891C29.523 372.207 17.4284 365.591 17.2472 357.115C17.0659 348.638 28.8659 341.511 43.6036 341.196C58.3413 340.88 70.4358 347.496 70.6171 355.973Z" fill="url(#paint39_linear_1_537)"/>
<path d="M44.235 370.659C30.2007 370.96 18.6469 364.872 18.4803 357.088C18.3138 349.305 29.5963 342.729 43.6306 342.429C57.6653 342.128 69.2192 348.216 69.3857 355.999C69.5522 363.782 58.2697 370.359 44.235 370.659ZM43.6342 342.593C29.6901 342.891 18.4798 349.392 18.6447 357.085C18.8092 364.778 30.2877 370.793 44.2318 370.495C58.1765 370.197 69.3867 363.695 69.2218 356.002C69.0569 348.31 57.5789 342.294 43.6342 342.593Z" fill="white"/>
<path d="M52.2343 352.23C54.7405 352.177 57.3568 352.584 59.4188 353.462L59.814 353.631C63.7387 355.305 64.196 358.04 60.8309 359.731L60.6818 359.806L62.7817 360.7L58.8618 362.671L56.7666 361.774L55.1583 362.583L57.2582 363.476L53.3383 365.447L51.2426 364.551L50.3246 365.012L48.3854 365.987L43.8126 364.044L45.756 363.066L40.2621 360.727L35.6881 358.779L30.7458 356.673L28.8025 357.65L24.2286 355.702L26.172 354.724L27.0857 354.265L24.5147 353.169L28.4299 351.201L31.0014 352.297L32.6091 351.488L30.0376 350.392L33.9529 348.424L36.546 349.53C39.8389 348.076 45.268 348.114 48.9056 349.665L49.2792 349.825C50.86 350.497 51.8496 351.348 52.2343 352.23ZM55.8945 355.603L55.4992 355.433C54.097 354.835 51.9766 354.841 50.7689 355.447L50.2657 355.7L44.183 358.758L49.677 361.097L50.5069 360.68L56.2634 357.786C57.4648 357.181 57.3062 356.201 55.8945 355.603ZM34.6621 354.706L39.6092 356.81L45.6869 353.754C46.7682 353.21 46.626 352.333 45.365 351.795L44.9866 351.637C43.7257 351.099 41.826 351.105 40.7447 351.648L35.4963 354.287L34.6621 354.706Z" fill="white"/>
<path opacity="0.4" d="M75.5924 350.215C71.0791 357.747 58.8196 363.328 44.2837 363.639C29.5313 363.954 16.8897 358.749 12.2257 351.235C16.7522 343.71 29.0054 338.142 43.5344 337.831C58.2737 337.516 70.9157 342.708 75.5924 350.215Z" fill="black"/>
<path d="M75.705 334.273C71.4588 326.331 58.4484 320.739 43.1727 321.067C27.6988 321.397 14.8065 327.697 11.0873 335.969L9.8927 336.001L10.0118 341.571L10.0323 341.571C10.6916 352.011 25.7254 360.089 43.9989 359.698C62.273 359.307 76.9475 350.593 77.1593 340.134L77.1799 340.134L77.0534 334.238L75.705 334.273Z" fill="url(#paint40_linear_1_537)"/>
<path d="M77.061 334.563C77.2891 345.231 62.4382 354.201 43.8901 354.598C25.342 354.995 10.1205 346.669 9.89236 336.001C9.6642 325.333 24.5152 316.364 43.0633 315.966C61.6119 315.569 76.8328 323.896 77.061 334.563Z" fill="url(#paint41_linear_1_537)"/>
<path d="M70.1494 334.107C70.3307 342.583 58.5308 349.71 43.7931 350.026C29.0553 350.341 16.9613 343.725 16.7795 335.249C16.5983 326.773 28.3983 319.646 43.136 319.33C57.8737 319.015 69.9682 325.63 70.1494 334.107Z" fill="url(#paint42_linear_1_537)"/>
<path d="M43.7663 348.794C29.7321 349.094 18.1782 343.006 18.0117 335.223C17.8452 327.44 29.1276 320.864 43.1619 320.563C57.1972 320.263 68.7506 326.351 68.9171 334.134C69.0836 341.916 57.8011 348.493 43.7663 348.794ZM43.1656 320.727C29.2215 321.025 18.0111 327.527 18.1761 335.219C18.3405 342.912 29.819 348.927 43.7626 348.629C57.7072 348.33 68.9176 341.829 68.7527 334.137C68.5883 326.444 57.1103 320.429 43.1656 320.727Z" fill="white"/>
<path d="M51.7656 330.365C54.2723 330.311 56.8881 330.719 58.95 331.596L59.3452 331.766C63.2699 333.439 63.7274 336.174 60.3623 337.866L60.2131 337.941L62.313 338.834L58.393 340.805L56.2979 339.909L54.6896 340.717L56.7895 341.611L52.8696 343.582L50.7744 342.685L49.8565 343.147L47.9173 344.122L43.3444 342.178L45.2883 341.201L39.7943 338.862L35.2205 336.914L30.2782 334.808L28.3348 335.785L23.7609 333.837L25.7043 332.86L26.618 332.4L24.0465 331.304L27.9617 329.336L30.5332 330.432L32.1415 329.623L29.57 328.527L33.4852 326.558L36.0778 327.664C39.3707 326.211 44.7999 326.249 48.4374 327.799L48.811 327.96C50.3913 328.631 51.3809 329.483 51.7656 330.365ZM55.4258 333.737L55.0306 333.567C53.6284 332.969 51.5079 332.975 50.3007 333.581L49.7974 333.834L43.7149 336.892L49.2089 339.231L50.0383 338.814L55.7946 335.92C56.9961 335.316 56.8375 334.335 55.4258 333.737ZM34.1934 332.84L39.1399 334.944L45.2178 331.889C46.2991 331.345 46.1567 330.467 44.8957 329.929L44.5174 329.771C43.2559 329.234 41.3568 329.239 40.2755 329.783L35.027 332.421L34.1934 332.84Z" fill="white"/>
<path opacity="0.4" d="M75.226 328.347C70.7127 335.88 58.4533 341.461 43.9179 341.771C29.1654 342.087 16.5234 336.881 11.8594 329.368C16.3859 321.843 28.639 316.275 43.168 315.964C57.9073 315.649 70.5488 320.842 75.226 328.347Z" fill="black"/>
<path d="M75.237 312.407C70.9908 304.466 57.9805 298.874 42.7048 299.201C27.2315 299.532 14.3386 305.831 10.6194 314.103L9.4248 314.135L9.54387 319.705L9.56445 319.705C10.2237 330.145 25.2575 338.223 43.531 337.832C61.8051 337.441 76.4796 328.727 76.6914 318.268L76.712 318.268L76.5855 312.372L75.237 312.407Z" fill="url(#paint43_linear_1_537)"/>
<path d="M76.593 312.698C76.8212 323.365 61.9702 332.335 43.4221 332.732C24.8741 333.129 9.65264 324.803 9.42447 314.135C9.1963 303.468 24.0473 294.498 42.5954 294.101C61.1434 293.704 76.3648 302.03 76.593 312.698Z" fill="url(#paint44_linear_1_537)"/>
<path d="M69.6806 312.241C69.8618 320.718 58.0619 327.844 43.3242 328.16C28.5865 328.476 16.4925 321.86 16.3107 313.383C16.1294 304.907 27.9293 297.78 42.667 297.465C57.4047 297.15 69.4993 303.765 69.6806 312.241Z" fill="url(#paint45_linear_1_537)"/>
<path d="M43.2983 326.928C29.2641 327.228 17.7102 321.14 17.5437 313.357C17.3772 305.574 28.6597 298.997 42.6939 298.697C56.7287 298.397 68.2825 304.485 68.4491 312.268C68.6156 320.051 57.3331 326.627 43.2983 326.928ZM42.6976 298.861C28.7535 299.16 17.5432 305.661 17.7081 313.354C17.8725 321.047 29.3511 327.062 43.2946 326.763C57.2393 326.465 68.4496 319.964 68.2846 312.271C68.1202 304.578 56.6422 298.563 42.6976 298.861Z" fill="white"/>
<path d="M51.2977 308.499C53.8044 308.446 56.4202 308.853 58.4821 309.73L58.8773 309.9C62.802 311.574 63.2594 314.309 59.8943 316L59.7452 316.075L61.8451 316.969L57.9251 318.94L55.8299 318.043L54.2217 318.852L56.3216 319.745L52.4016 321.716L50.3065 320.82L49.3885 321.282L47.4494 322.257L42.8765 320.314L44.8204 319.337L39.3264 316.997L34.7525 315.049L29.8103 312.943L27.8669 313.92L23.293 311.972L25.2364 310.995L26.1501 310.535L23.5791 309.439L27.4943 307.471L30.0659 308.568L31.6741 307.759L29.1026 306.663L33.0178 304.695L35.6104 305.801C38.9033 304.347 44.3324 304.385 47.97 305.936L48.3436 306.096C49.9234 306.765 50.913 307.617 51.2977 308.499ZM54.9573 311.871L54.5621 311.701C53.1599 311.103 51.039 311.109 49.8317 311.716L49.3284 311.969L43.2459 315.027L48.7399 317.366L49.5693 316.948L55.3256 314.054C56.5281 313.45 56.3695 312.469 54.9573 311.871ZM33.7255 310.975L38.672 313.079L44.7498 310.023C45.8311 309.479 45.6888 308.602 44.4279 308.064L44.0495 307.905C42.788 307.368 40.8888 307.373 39.8075 307.917L34.5597 310.555L33.7255 310.975Z" fill="white"/>
<path d="M351.302 371.997C351.302 385.586 332.145 396.605 308.517 396.605C284.88 396.605 265.724 385.586 265.724 371.997C265.724 369.05 266.628 366.22 268.277 363.599C274.247 354.138 290.004 347.381 308.517 347.381C327.296 347.381 343.255 354.339 349.007 364.027C350.498 366.53 351.302 369.209 351.302 371.997Z" stroke="url(#paint46_linear_1_537)" stroke-width="0.8923" stroke-miterlimit="10"/>
<path d="M339.482 366.72V375.253H339.479C339.422 377.842 337.522 380.25 334.29 382.271C328.579 385.843 318.712 388.201 307.495 388.201C289.927 388.201 275.669 382.416 275.511 375.253H275.507V366.72H283.027C288.893 363.874 297.675 362.066 307.495 362.066C315.304 362.066 322.453 363.207 328.006 365.107C329.437 365.595 330.764 366.137 331.966 366.72H339.482Z" fill="url(#paint47_linear_1_537)"/>
<path d="M339.482 374.866V375.253H339.479C339.422 377.843 337.522 380.251 334.29 382.271C328.579 385.844 318.712 388.201 307.495 388.201C289.927 388.201 275.669 382.416 275.511 375.254H275.507V374.867H275.511C275.669 382.029 289.927 387.814 307.495 387.814C318.591 387.814 328.366 385.508 334.104 381.999C337.451 379.958 339.422 377.507 339.478 374.867H339.482V374.866Z" fill="black"/>
<path d="M307.495 379.752C325.162 379.752 339.483 373.917 339.483 366.719C339.483 359.522 325.162 353.687 307.495 353.687C289.829 353.687 275.507 359.522 275.507 366.719C275.507 373.917 289.829 379.752 307.495 379.752Z" fill="url(#paint48_linear_1_537)"/>
<path d="M307.41 376.965C322.979 376.965 335.601 372.271 335.601 366.481C335.601 360.691 322.979 355.998 307.41 355.998C291.841 355.998 279.22 360.691 279.22 366.481C279.22 372.271 291.841 376.965 307.41 376.965Z" fill="#FCFAFF"/>
<path d="M307.495 379.275C290.024 379.275 275.827 373.569 275.515 366.481C275.511 366.561 275.507 366.64 275.507 366.719C275.507 373.917 289.829 379.752 307.495 379.752C325.162 379.752 339.483 373.917 339.483 366.719C339.483 366.64 339.479 366.56 339.476 366.481C339.163 373.569 324.966 379.275 307.495 379.275Z" fill="white"/>
<path opacity="0.7" d="M339.482 308.157V367.515H339.421C339.404 367.619 339.388 367.724 339.364 367.828C339.364 367.835 339.364 367.841 339.361 367.848C339.341 367.946 339.317 368.044 339.29 368.144C339.29 368.147 339.287 368.154 339.287 368.161C339.26 368.262 339.229 368.363 339.196 368.464C339.163 368.568 339.126 368.673 339.085 368.777C339.045 368.878 339.001 368.983 338.954 369.087C338.907 369.188 338.86 369.292 338.806 369.393C338.705 369.589 338.593 369.784 338.476 369.976C338.469 369.983 338.462 369.993 338.459 370C338.267 370.299 338.052 370.596 337.809 370.889C337.806 370.892 337.803 370.895 337.803 370.899C337.641 371.087 337.473 371.279 337.294 371.465C337.284 371.475 337.274 371.485 337.263 371.498C337.088 371.677 336.907 371.852 336.714 372.03C336.617 372.115 336.519 372.202 336.421 372.29C336.307 372.387 336.192 372.485 336.071 372.579C335.849 372.761 335.613 372.939 335.371 373.114C335.246 373.202 335.125 373.289 334.997 373.377C334.869 373.464 334.741 373.549 334.61 373.636C334.479 373.72 334.344 373.805 334.209 373.888C334.071 373.973 333.933 374.057 333.792 374.138C333.651 374.222 333.509 374.303 333.364 374.383C333.219 374.468 333.071 374.548 332.919 374.626C332.812 374.686 332.701 374.744 332.586 374.801C332.465 374.864 332.34 374.929 332.212 374.989C331.956 375.117 331.697 375.242 331.431 375.363C331.296 375.427 331.158 375.487 331.016 375.548C330.908 375.595 330.801 375.646 330.69 375.69C330.629 375.716 330.572 375.743 330.511 375.767C330.023 375.973 329.521 376.171 329.002 376.363C328.838 376.427 328.669 376.487 328.501 376.545C327.319 376.966 326.063 377.349 324.736 377.696C324.342 377.797 323.945 377.898 323.541 377.992C323.278 378.056 323.012 378.117 322.743 378.178C322.366 378.258 321.985 378.34 321.598 378.417C320.921 378.555 320.224 378.683 319.52 378.798C319.288 378.838 319.052 378.875 318.82 378.909C318.544 378.952 318.267 378.993 317.985 379.034C317.796 379.06 317.6 379.087 317.409 379.114C317.021 379.165 316.634 379.212 316.24 379.255C315.991 379.285 315.741 379.313 315.489 379.34C314.469 379.447 313.428 379.535 312.367 379.599C312.155 379.613 311.946 379.626 311.734 379.636C311.629 379.642 311.521 379.644 311.417 379.65C311.22 379.66 311.02 379.666 310.822 379.675C310.503 379.689 310.188 379.707 309.865 379.717C309.754 379.72 309.643 379.72 309.532 379.724C309.38 379.727 309.232 379.731 309.081 379.734C309.054 379.734 309.023 379.737 308.996 379.734C308.771 379.741 308.545 379.744 308.32 379.748H308.289C308.027 379.751 307.761 379.751 307.495 379.751C306.942 379.751 306.393 379.744 305.848 379.734C305.717 379.731 305.589 379.727 305.457 379.724C304.716 379.707 303.982 379.677 303.255 379.636C303.043 379.626 302.834 379.613 302.622 379.6C301.562 379.536 300.521 379.448 299.501 379.34C299.248 379.313 298.999 379.287 298.75 379.256C298.356 379.212 297.968 379.165 297.582 379.115C297.39 379.088 297.194 379.061 297.006 379.034C296.723 378.994 296.446 378.954 296.17 378.909C295.938 378.876 295.702 378.839 295.47 378.798C294.766 378.684 294.069 378.556 293.392 378.418C293.005 378.34 292.625 378.26 292.247 378.178C291.978 378.118 291.712 378.057 291.449 377.993C291.045 377.899 290.647 377.797 290.253 377.697C288.926 377.35 287.671 376.966 286.488 376.545C286.32 376.488 286.152 376.427 285.987 376.364C285.468 376.172 284.966 375.973 284.478 375.768C284.306 375.697 284.138 375.623 283.973 375.549C283.835 375.488 283.697 375.428 283.562 375.363C283.296 375.242 283.034 375.117 282.777 374.99C282.649 374.929 282.525 374.865 282.404 374.801C282.289 374.744 282.178 374.687 282.07 374.626C281.919 374.549 281.77 374.468 281.626 374.384C281.481 374.303 281.339 374.222 281.198 374.138C281.056 374.058 280.918 373.973 280.78 373.889C280.645 373.805 280.511 373.721 280.38 373.637C280.249 373.549 280.121 373.465 279.993 373.377C279.864 373.29 279.743 373.202 279.619 373.115C279.377 372.94 279.141 372.761 278.919 372.58C278.797 372.485 278.683 372.388 278.568 372.29C278.471 372.203 278.373 372.115 278.275 372.031C278.083 371.852 277.902 371.677 277.726 371.499C277.716 371.485 277.706 371.475 277.696 371.465C277.517 371.28 277.349 371.088 277.187 370.899C277.187 370.896 277.184 370.892 277.18 370.889C276.938 370.596 276.722 370.3 276.53 370C276.527 369.993 276.52 369.983 276.514 369.976C276.396 369.785 276.285 369.589 276.184 369.394C276.13 369.292 276.083 369.188 276.036 369.087C275.989 368.983 275.944 368.879 275.904 368.778C275.864 368.673 275.827 368.569 275.793 368.465C275.76 368.363 275.73 368.263 275.702 368.162C275.702 368.155 275.699 368.148 275.699 368.145C275.672 368.044 275.648 367.946 275.628 367.849C275.625 367.842 275.625 367.835 275.625 367.829C275.601 367.724 275.584 367.62 275.567 367.516H275.507V309.046L276.089 309.039L276.339 309.036L280.144 308.982L335.134 308.217L339.07 308.164L339.238 308.161L339.482 308.157Z" fill="url(#paint49_linear_1_537)"/>
<path opacity="0.7" d="M307.495 344.014C325.162 344.014 339.483 338.179 339.483 330.981C339.483 323.784 325.162 317.949 307.495 317.949C289.829 317.949 275.507 323.784 275.507 330.981C275.507 338.179 289.829 344.014 307.495 344.014Z" fill="url(#paint50_linear_1_537)"/>
<path opacity="0.5" d="M307.495 343.569C290.011 343.569 275.806 337.854 275.514 330.759C275.511 330.833 275.507 330.907 275.507 330.981C275.507 338.179 289.829 344.014 307.495 344.014C325.162 344.014 339.483 338.179 339.483 330.981C339.483 330.907 339.48 330.833 339.476 330.759C339.184 337.854 324.979 343.569 307.495 343.569Z" fill="white"/>
<path opacity="0.8" d="M307.411 344.014C289.744 344.014 275.423 338.179 275.423 330.981V367.513H275.483C276.49 374.341 290.398 379.751 307.411 379.751C324.423 379.751 338.33 374.341 339.338 367.513H339.398V330.981C339.398 338.179 325.077 344.014 307.411 344.014Z" fill="url(#paint51_linear_1_537)"/>
<path opacity="0.5" d="M339.482 367.013V367.515H339.421C339.404 367.619 339.388 367.723 339.364 367.828C339.364 367.834 339.364 367.841 339.361 367.848C339.341 367.945 339.317 368.043 339.29 368.144C339.29 368.147 339.287 368.154 339.287 368.161C339.26 368.262 339.229 368.363 339.196 368.464C339.163 368.568 339.126 368.672 339.085 368.777C339.045 368.878 339.001 368.982 338.954 369.087C338.907 369.188 338.86 369.292 338.806 369.393C338.705 369.588 338.593 369.783 338.476 369.975C338.469 369.982 338.462 369.992 338.459 369.999C338.267 370.299 338.052 370.595 337.809 370.888C337.806 370.891 337.803 370.895 337.803 370.898C337.641 371.087 337.473 371.279 337.294 371.464C337.284 371.474 337.274 371.484 337.263 371.498C337.088 371.676 336.907 371.851 336.714 372.03C336.617 372.114 336.519 372.202 336.421 372.289C336.307 372.387 336.192 372.485 336.071 372.579C335.849 372.76 335.613 372.939 335.371 373.114C335.246 373.201 335.125 373.289 334.997 373.376C334.869 373.464 334.741 373.548 334.61 373.636C334.479 373.72 334.344 373.804 334.209 373.888C334.071 373.972 333.933 374.057 333.792 374.137C333.651 374.222 333.509 374.302 333.364 374.383C333.219 374.467 333.071 374.548 332.919 374.625C332.812 374.686 332.701 374.743 332.586 374.8C332.465 374.864 332.34 374.928 332.212 374.989C331.956 375.117 331.697 375.241 331.431 375.362C331.296 375.426 331.158 375.487 331.016 375.548C330.908 375.595 330.801 375.645 330.69 375.689C330.629 375.716 330.572 375.743 330.511 375.767C330.023 375.972 329.521 376.171 329.002 376.363C328.838 376.426 328.669 376.487 328.501 376.544C327.319 376.965 326.063 377.349 324.736 377.696C324.342 377.797 323.945 377.898 323.541 377.992C323.278 378.056 323.012 378.117 322.743 378.177C322.366 378.258 321.985 378.339 321.598 378.417C320.921 378.555 320.224 378.683 319.52 378.797C319.288 378.838 319.052 378.875 318.82 378.908C318.544 378.952 318.267 378.993 317.985 379.033C317.796 379.06 317.6 379.087 317.409 379.114C317.021 379.164 316.634 379.211 316.24 379.255C315.991 379.285 315.741 379.312 315.489 379.339C314.469 379.447 313.428 379.535 312.367 379.599C312.155 379.612 311.946 379.625 311.734 379.635C311.629 379.641 311.521 379.644 311.417 379.649C311.22 379.659 311.02 379.666 310.822 379.675C310.503 379.689 310.188 379.706 309.865 379.717C309.754 379.72 309.643 379.72 309.532 379.723C309.38 379.727 309.232 379.73 309.081 379.733C309.054 379.733 309.023 379.737 308.996 379.733C308.771 379.74 308.545 379.744 308.32 379.747H308.289C308.027 379.75 307.761 379.75 307.495 379.75C306.942 379.75 306.393 379.744 305.848 379.733C305.717 379.73 305.589 379.727 305.457 379.723C304.716 379.707 303.982 379.677 303.255 379.636C303.043 379.626 302.834 379.612 302.622 379.599C301.562 379.535 300.521 379.447 299.501 379.34C299.248 379.313 298.999 379.286 298.75 379.256C298.356 379.212 297.968 379.164 297.582 379.114C297.39 379.087 297.194 379.061 297.006 379.034C296.723 378.993 296.446 378.953 296.17 378.909C295.938 378.875 295.702 378.838 295.47 378.798C294.766 378.683 294.069 378.555 293.392 378.417C293.005 378.34 292.625 378.259 292.247 378.178C291.978 378.117 291.712 378.057 291.449 377.992C291.045 377.898 290.647 377.797 290.253 377.696C288.926 377.35 287.671 376.965 286.488 376.545C286.32 376.488 286.152 376.427 285.987 376.363C285.468 376.171 284.966 375.973 284.478 375.767C284.306 375.697 284.138 375.622 283.973 375.548C283.835 375.488 283.697 375.427 283.562 375.363C283.296 375.242 283.034 375.117 282.777 374.989C282.649 374.929 282.525 374.865 282.404 374.801C282.289 374.743 282.178 374.686 282.07 374.626C281.919 374.548 281.77 374.468 281.626 374.383C281.481 374.303 281.339 374.222 281.198 374.138C281.056 374.057 280.918 373.973 280.78 373.889C280.645 373.804 280.511 373.72 280.38 373.636C280.249 373.549 280.121 373.464 279.993 373.377C279.864 373.289 279.743 373.202 279.619 373.114C279.377 372.94 279.141 372.761 278.919 372.579C278.797 372.485 278.683 372.387 278.568 372.29C278.471 372.202 278.373 372.115 278.275 372.031C278.083 371.852 277.902 371.677 277.726 371.498C277.716 371.485 277.706 371.475 277.696 371.465C277.517 371.279 277.349 371.087 277.187 370.899C277.187 370.896 277.184 370.892 277.18 370.889C276.938 370.596 276.722 370.3 276.53 370C276.527 369.993 276.52 369.983 276.514 369.976C276.396 369.784 276.285 369.589 276.184 369.393C276.13 369.292 276.083 369.188 276.036 369.087C275.989 368.983 275.944 368.878 275.904 368.777C275.864 368.673 275.827 368.569 275.793 368.464C275.76 368.363 275.73 368.262 275.702 368.161C275.702 368.154 275.699 368.148 275.699 368.144C275.672 368.043 275.648 367.946 275.628 367.848C275.625 367.841 275.625 367.834 275.625 367.828C275.601 367.724 275.584 367.619 275.567 367.515H275.507V367.013H275.567C276.574 373.843 290.481 379.251 307.494 379.251C316.532 379.251 324.695 377.725 330.511 375.271H330.514C335.571 373.132 338.855 370.294 339.397 367.145C339.407 367.101 339.414 367.058 339.421 367.014H339.482V367.013Z" fill="white"/>
<path d="M331.965 306.555C326.098 303.71 317.314 301.903 307.495 301.903C297.677 301.903 288.894 303.71 283.025 306.555H275.507V315.089H275.511C275.668 322.251 289.926 328.037 307.495 328.037C325.064 328.037 339.323 322.251 339.48 315.089H339.483V306.555H331.965Z" fill="url(#paint52_linear_1_537)"/>
<path d="M307.495 327.649C289.926 327.649 275.668 321.863 275.511 314.702H275.507V315.089H275.511C275.668 322.251 289.926 328.037 307.495 328.037C325.064 328.037 339.323 322.251 339.48 315.089H339.483V314.702H339.48C339.323 321.863 325.064 327.649 307.495 327.649Z" fill="black"/>
<path d="M307.495 319.587C325.162 319.587 339.483 313.752 339.483 306.555C339.483 299.357 325.162 293.522 307.495 293.522C289.829 293.522 275.507 299.357 275.507 306.555C275.507 313.752 289.829 319.587 307.495 319.587Z" fill="url(#paint53_linear_1_537)"/>
<path d="M307.41 316.8C322.979 316.8 335.601 312.106 335.601 306.316C335.601 300.526 322.979 295.833 307.41 295.833C291.841 295.833 279.22 300.526 279.22 306.316C279.22 312.106 291.841 316.8 307.41 316.8Z" fill="#FCFAFF"/>
<path d="M307.495 319.11C290.024 319.11 275.827 313.404 275.515 306.316C275.511 306.395 275.507 306.474 275.507 306.554C275.507 313.752 289.829 319.587 307.495 319.587C325.162 319.587 339.483 313.752 339.483 306.554C339.483 306.474 339.479 306.395 339.476 306.316C339.163 313.404 324.966 319.11 307.495 319.11Z" fill="white"/>
<path opacity="0.4" d="M339.482 349.822V375.253H339.479C339.422 377.843 337.522 380.251 334.29 382.271C334.229 382.18 334.165 382.09 334.105 381.998C333.263 380.739 332.472 379.392 331.751 377.964C331.37 377.209 331.017 376.452 330.69 375.695C330.69 375.695 330.69 375.694 330.69 375.691C330.687 375.681 330.683 375.671 330.676 375.661C330.623 375.536 330.572 375.412 330.521 375.287C330.518 375.28 330.515 375.277 330.515 375.27H330.511C330.188 374.489 329.895 373.708 329.636 372.93C328.72 370.23 328.181 367.576 328.006 365.108C327.858 363.074 327.959 361.161 328.306 359.447C328.475 358.605 328.703 357.807 328.993 357.069C329.808 354.965 331.101 353.321 332.856 352.338L332.849 352.324L336.162 350.651C337.169 350.142 338.257 349.873 339.398 349.826C339.425 349.822 339.452 349.822 339.482 349.822Z" fill="black"/>
<path d="M359.455 384.788C363.003 379.949 362.614 370.522 358.017 361.439C353.361 352.239 345.862 346.308 339.821 346.457L339.458 345.749L336.146 347.425L336.153 347.437C330.071 350.841 329.549 362.199 335.048 373.065C340.547 383.93 350.01 390.236 356.354 387.35L356.361 387.362L359.866 385.588L359.455 384.788Z" fill="url(#paint54_linear_1_537)"/>
<path d="M359.672 385.686C353.329 388.896 343.662 382.558 338.08 371.53C332.498 360.501 333.115 348.959 339.458 345.748C345.801 342.538 355.468 348.876 361.05 359.904C366.631 370.932 366.015 382.475 359.672 385.686Z" fill="url(#paint55_linear_1_537)"/>
<path d="M357.955 381.402C352.915 383.953 345.234 378.917 340.798 370.154C336.363 361.392 336.853 352.22 341.893 349.669C346.932 347.118 354.614 352.154 359.049 360.917C363.484 369.679 362.994 378.851 357.955 381.402Z" fill="url(#paint56_linear_1_537)"/>
<path d="M341.532 369.783C337.308 361.438 337.637 352.744 342.265 350.401C346.892 348.059 354.094 352.942 358.317 361.287C362.541 369.632 362.212 378.327 357.584 380.669C352.957 383.012 345.755 378.128 341.532 369.783ZM358.219 361.337C354.023 353.046 346.888 348.184 342.314 350.499C337.74 352.814 337.433 361.443 341.629 369.734C345.825 378.025 352.961 382.887 357.535 380.571C362.109 378.256 362.416 369.628 358.219 361.337Z" fill="white"/>
<path d="M354.907 369.28C355.661 370.77 356.17 372.459 356.237 373.951L356.249 374.238C356.374 377.077 354.863 378.14 352.877 376.606L352.789 376.538L352.857 378.057L350.544 376.27L350.478 374.753L349.529 374.02L349.597 375.539L347.284 373.752L347.218 372.235L346.677 371.817L345.532 370.933L345.382 367.626L346.529 368.512L346.352 364.538L346.204 361.229L346.045 357.653L344.898 356.768L344.751 353.458L345.898 354.345L346.437 354.762L346.355 352.901L348.665 354.686L348.748 356.546L349.697 357.279L349.614 355.419L351.925 357.203L352.008 359.079C353.83 360.639 355.371 363.911 355.487 366.543L355.498 366.814C355.553 367.955 355.327 368.795 354.907 369.28ZM353.935 372.45L353.924 372.163C353.879 371.149 353.265 369.877 352.552 369.326L352.255 369.097L348.665 366.323L348.843 370.298L349.333 370.676L352.729 373.3C353.44 373.849 353.983 373.471 353.935 372.45ZM348.358 359.437L348.519 363.015L352.106 365.786C352.744 366.279 353.23 365.941 353.19 365.028L353.177 364.755C353.136 363.842 352.586 362.703 351.948 362.21L348.851 359.817L348.358 359.437Z" fill="white"/>
<defs>
<linearGradient id="paint0_linear_1_537" x1="62.7851" y1="256.61" x2="327.763" y2="256.61" gradientUnits="userSpaceOnUse">
<stop stop-color="#B900FA"/>
<stop offset="1" stop-color="#7926FF"/>
</linearGradient>
<linearGradient id="paint1_linear_1_537" x1="84.3969" y1="295.448" x2="306.742" y2="295.448" gradientUnits="userSpaceOnUse">
<stop stop-color="#F1F2FB"/>
<stop offset="1" stop-color="#E2E6F7"/>
</linearGradient>
<linearGradient id="paint2_linear_1_537" x1="84.3965" y1="266.202" x2="306.741" y2="266.202" gradientUnits="userSpaceOnUse">
<stop stop-color="#F2F0FB"/>
<stop offset="1" stop-color="#F4F3FB"/>
</linearGradient>
<linearGradient id="paint3_linear_1_537" x1="132.449" y1="266.627" x2="258.689" y2="266.627" gradientUnits="userSpaceOnUse">
<stop stop-color="#F1F2FB"/>
<stop offset="1" stop-color="#E2E6F7"/>
</linearGradient>
<linearGradient id="paint4_linear_1_537" x1="132.449" y1="250.022" x2="258.689" y2="250.022" gradientUnits="userSpaceOnUse">
<stop stop-color="#F2F0FB"/>
<stop offset="1" stop-color="#F4F3FB"/>
</linearGradient>
<linearGradient id="paint5_linear_1_537" x1="97.3018" y1="73.6061" x2="293.247" y2="73.6061" gradientUnits="userSpaceOnUse">
<stop stop-color="#B900FA"/>
<stop offset="1" stop-color="#7926FF"/>
</linearGradient>
<linearGradient id="paint6_linear_1_537" x1="138.961" y1="126.046" x2="258.689" y2="126.046" gradientUnits="userSpaceOnUse">
<stop stop-color="#B900FA"/>
<stop offset="1" stop-color="#7926FF"/>
</linearGradient>
<linearGradient id="paint7_linear_1_537" x1="138.961" y1="44.816" x2="197.195" y2="44.816" gradientUnits="userSpaceOnUse">
<stop stop-color="#B900FA"/>
<stop offset="1" stop-color="#7926FF"/>
</linearGradient>
<linearGradient id="paint8_linear_1_537" x1="197.194" y1="44.816" x2="258.689" y2="44.816" gradientUnits="userSpaceOnUse">
<stop stop-color="#B900FA"/>
<stop offset="1" stop-color="#7926FF"/>
</linearGradient>
<linearGradient id="paint9_linear_1_537" x1="138.961" y1="159.312" x2="197.195" y2="159.312" gradientUnits="userSpaceOnUse">
<stop stop-color="#B900FA"/>
<stop offset="1" stop-color="#7926FF"/>
</linearGradient>
<linearGradient id="paint10_linear_1_537" x1="197.194" y1="160.132" x2="258.689" y2="160.132" gradientUnits="userSpaceOnUse">
<stop stop-color="#B900FA"/>
<stop offset="1" stop-color="#7926FF"/>
</linearGradient>
<linearGradient id="paint11_linear_1_537" x1="315.31" y1="164.368" x2="354.832" y2="164.368" gradientUnits="userSpaceOnUse">
<stop stop-color="#B900FA"/>
<stop offset="1" stop-color="#7926FF"/>
</linearGradient>
<linearGradient id="paint12_linear_1_537" x1="306.741" y1="164.368" x2="334.546" y2="164.368" gradientUnits="userSpaceOnUse">
<stop stop-color="#B900FA"/>
<stop offset="1" stop-color="#7926FF"/>
</linearGradient>
<linearGradient id="paint13_linear_1_537" x1="326.973" y1="198.192" x2="345.039" y2="198.192" gradientUnits="userSpaceOnUse">
<stop stop-color="#B900FA"/>
<stop offset="1" stop-color="#7926FF"/>
</linearGradient>
<linearGradient id="paint14_linear_1_537" x1="316.884" y1="199.037" x2="326.973" y2="199.037" gradientUnits="userSpaceOnUse">
<stop stop-color="#B900FA"/>
<stop offset="1" stop-color="#7926FF"/>
</linearGradient>
<linearGradient id="paint15_linear_1_537" x1="56.5887" y1="77.9003" x2="86.2839" y2="77.9003" gradientUnits="userSpaceOnUse">
<stop stop-color="#B900FA"/>
<stop offset="1" stop-color="#7926FF"/>
</linearGradient>
<linearGradient id="paint16_linear_1_537" x1="50.1504" y1="77.9004" x2="71.0418" y2="77.9004" gradientUnits="userSpaceOnUse">
<stop stop-color="#B900FA"/>
<stop offset="1" stop-color="#7926FF"/>
</linearGradient>
<linearGradient id="paint17_linear_1_537" x1="65.3514" y1="103.315" x2="78.9256" y2="103.315" gradientUnits="userSpaceOnUse">
<stop stop-color="#B900FA"/>
<stop offset="1" stop-color="#7926FF"/>
</linearGradient>
<linearGradient id="paint18_linear_1_537" x1="57.7715" y1="103.949" x2="65.3516" y2="103.949" gradientUnits="userSpaceOnUse">
<stop stop-color="#B900FA"/>
<stop offset="1" stop-color="#7926FF"/>
</linearGradient>
<linearGradient id="paint19_linear_1_537" x1="80.1337" y1="21.3794" x2="116.247" y2="21.3794" gradientUnits="userSpaceOnUse">
<stop stop-color="#B900FA"/>
<stop offset="1" stop-color="#7926FF"/>
</linearGradient>
<linearGradient id="paint20_linear_1_537" x1="83.0733" y1="19.6617" x2="119.194" y2="19.6617" gradientUnits="userSpaceOnUse">
<stop stop-color="#B900FA"/>
<stop offset="1" stop-color="#7926FF"/>
</linearGradient>
<linearGradient id="paint21_linear_1_537" x1="87.1318" y1="22.6891" x2="115.832" y2="22.6891" gradientUnits="userSpaceOnUse">
<stop stop-color="#B900FA"/>
<stop offset="1" stop-color="#7926FF"/>
</linearGradient>
<linearGradient id="paint22_linear_1_537" x1="74.3456" y1="202.68" x2="99.6645" y2="202.68" gradientUnits="userSpaceOnUse">
<stop stop-color="#B900FA"/>
<stop offset="1" stop-color="#7926FF"/>
</linearGradient>
<linearGradient id="paint23_linear_1_537" x1="74.3457" y1="185.503" x2="86.6605" y2="185.503" gradientUnits="userSpaceOnUse">
<stop stop-color="#B900FA"/>
<stop offset="1" stop-color="#7926FF"/>
</linearGradient>
<linearGradient id="paint24_linear_1_537" x1="86.6602" y1="185.503" x2="99.6642" y2="185.503" gradientUnits="userSpaceOnUse">
<stop stop-color="#B900FA"/>
<stop offset="1" stop-color="#7926FF"/>
</linearGradient>
<linearGradient id="paint25_linear_1_537" x1="74.3456" y1="209.715" x2="86.6604" y2="209.715" gradientUnits="userSpaceOnUse">
<stop stop-color="#B900FA"/>
<stop offset="1" stop-color="#7926FF"/>
</linearGradient>
<linearGradient id="paint26_linear_1_537" x1="86.6602" y1="209.888" x2="99.6642" y2="209.888" gradientUnits="userSpaceOnUse">
<stop stop-color="#B900FA"/>
<stop offset="1" stop-color="#7926FF"/>
</linearGradient>
<linearGradient id="paint27_linear_1_537" x1="54.2578" y1="178.96" x2="119.247" y2="178.96" gradientUnits="userSpaceOnUse">
<stop stop-color="#B900FA"/>
<stop offset="1" stop-color="#7926FF"/>
</linearGradient>
<linearGradient id="paint28_linear_1_537" x1="12.6318" y1="177.6" x2="124.066" y2="177.6" gradientUnits="userSpaceOnUse">
<stop stop-color="#B900FA"/>
<stop offset="1" stop-color="#7926FF"/>
</linearGradient>
<linearGradient id="paint29_linear_1_537" x1="23.3231" y1="241.201" x2="34.4332" y2="241.201" gradientUnits="userSpaceOnUse">
<stop stop-color="#B900FA"/>
<stop offset="1" stop-color="#7926FF"/>
</linearGradient>
<linearGradient id="paint30_linear_1_537" x1="18.5947" y1="244.804" x2="29.4556" y2="244.804" gradientUnits="userSpaceOnUse">
<stop stop-color="#B900FA"/>
<stop offset="1" stop-color="#7926FF"/>
</linearGradient>
<linearGradient id="paint31_linear_1_537" x1="265.768" y1="12.2989" x2="368" y2="12.2989" gradientUnits="userSpaceOnUse">
<stop stop-color="#B900FA"/>
<stop offset="1" stop-color="#7926FF"/>
</linearGradient>
<linearGradient id="paint32_linear_1_537" x1="307.453" y1="13.4519" x2="358.778" y2="13.4519" gradientUnits="userSpaceOnUse">
<stop stop-color="#B900FA"/>
<stop offset="1" stop-color="#7926FF"/>
</linearGradient>
<linearGradient id="paint33_linear_1_537" x1="308.426" y1="17.6095" x2="325.942" y2="17.6095" gradientUnits="userSpaceOnUse">
<stop stop-color="#B900FA"/>
<stop offset="1" stop-color="#7926FF"/>
</linearGradient>
<linearGradient id="paint34_linear_1_537" x1="310.52" y1="46.2943" x2="323.247" y2="46.2943" gradientUnits="userSpaceOnUse">
<stop stop-color="#B900FA"/>
<stop offset="1" stop-color="#7926FF"/>
</linearGradient>
<linearGradient id="paint35_linear_1_537" x1="311.356" y1="46.929" x2="322.411" y2="46.929" gradientUnits="userSpaceOnUse">
<stop stop-color="#B900FA"/>
<stop offset="1" stop-color="#7926FF"/>
</linearGradient>
<linearGradient id="paint36_linear_1_537" x1="1" y1="343.549" x2="86.5652" y2="343.549" gradientUnits="userSpaceOnUse">
<stop stop-color="#B900FA"/>
<stop offset="1" stop-color="#7926FF"/>
</linearGradient>
<linearGradient id="paint37_linear_1_537" x1="10.3604" y1="347.565" x2="77.6475" y2="347.565" gradientUnits="userSpaceOnUse">
<stop stop-color="#B900FA"/>
<stop offset="1" stop-color="#7926FF"/>
</linearGradient>
<linearGradient id="paint38_linear_1_537" x1="10.3604" y1="342.464" x2="77.5299" y2="342.464" gradientUnits="userSpaceOnUse">
<stop stop-color="#B900FA"/>
<stop offset="1" stop-color="#7926FF"/>
</linearGradient>
<linearGradient id="paint39_linear_1_537" x1="17.2451" y1="344.877" x2="70.6191" y2="344.877" gradientUnits="userSpaceOnUse">
<stop stop-color="#B900FA"/>
<stop offset="1" stop-color="#7926FF"/>
</linearGradient>
<linearGradient id="paint40_linear_1_537" x1="9.8927" y1="325.699" x2="77.1799" y2="325.699" gradientUnits="userSpaceOnUse">
<stop stop-color="#B900FA"/>
<stop offset="1" stop-color="#7926FF"/>
</linearGradient>
<linearGradient id="paint41_linear_1_537" x1="9.88977" y1="320.599" x2="77.0636" y2="320.599" gradientUnits="userSpaceOnUse">
<stop stop-color="#B900FA"/>
<stop offset="1" stop-color="#7926FF"/>
</linearGradient>
<linearGradient id="paint42_linear_1_537" x1="16.7775" y1="323.011" x2="70.1515" y2="323.011" gradientUnits="userSpaceOnUse">
<stop stop-color="#B900FA"/>
<stop offset="1" stop-color="#7926FF"/>
</linearGradient>
<linearGradient id="paint43_linear_1_537" x1="9.4248" y1="303.834" x2="76.712" y2="303.834" gradientUnits="userSpaceOnUse">
<stop stop-color="#B900FA"/>
<stop offset="1" stop-color="#7926FF"/>
</linearGradient>
<linearGradient id="paint44_linear_1_537" x1="9.42188" y1="298.734" x2="76.5956" y2="298.734" gradientUnits="userSpaceOnUse">
<stop stop-color="#B900FA"/>
<stop offset="1" stop-color="#7926FF"/>
</linearGradient>
<linearGradient id="paint45_linear_1_537" x1="16.3086" y1="301.146" x2="69.6826" y2="301.146" gradientUnits="userSpaceOnUse">
<stop stop-color="#B900FA"/>
<stop offset="1" stop-color="#7926FF"/>
</linearGradient>
<linearGradient id="paint46_linear_1_537" x1="265.724" y1="353.298" x2="351.302" y2="353.298" gradientUnits="userSpaceOnUse">
<stop stop-color="#B900FA"/>
<stop offset="1" stop-color="#7926FF"/>
</linearGradient>
<linearGradient id="paint47_linear_1_537" x1="275.507" y1="375.134" x2="339.482" y2="375.134" gradientUnits="userSpaceOnUse">
<stop stop-color="#F1F2FB"/>
<stop offset="1" stop-color="#E2E6F7"/>
</linearGradient>
<linearGradient id="paint48_linear_1_537" x1="275.507" y1="366.72" x2="339.483" y2="366.72" gradientUnits="userSpaceOnUse">
<stop stop-color="#F2F0FB"/>
<stop offset="1" stop-color="#F4F3FB"/>
</linearGradient>
<linearGradient id="paint49_linear_1_537" x1="275.507" y1="316.762" x2="339.482" y2="316.762" gradientUnits="userSpaceOnUse">
<stop stop-color="#B900FA"/>
<stop offset="1" stop-color="#7926FF"/>
</linearGradient>
<linearGradient id="paint50_linear_1_537" x1="275.507" y1="321.082" x2="339.483" y2="321.082" gradientUnits="userSpaceOnUse">
<stop stop-color="#B900FA"/>
<stop offset="1" stop-color="#7926FF"/>
</linearGradient>
<linearGradient id="paint51_linear_1_537" x1="275.423" y1="336.843" x2="339.398" y2="336.843" gradientUnits="userSpaceOnUse">
<stop stop-color="#B900FA"/>
<stop offset="1" stop-color="#7926FF"/>
</linearGradient>
<linearGradient id="paint52_linear_1_537" x1="275.507" y1="314.97" x2="339.483" y2="314.97" gradientUnits="userSpaceOnUse">
<stop stop-color="#F1F2FB"/>
<stop offset="1" stop-color="#E7B2FD"/>
</linearGradient>
<linearGradient id="paint53_linear_1_537" x1="275.507" y1="306.555" x2="339.483" y2="306.555" gradientUnits="userSpaceOnUse">
<stop stop-color="#F2F0FB"/>
<stop offset="1" stop-color="#F4F3FB"/>
</linearGradient>
<linearGradient id="paint54_linear_1_537" x1="331.236" y1="350.833" x2="361.829" y2="350.833" gradientUnits="userSpaceOnUse">
<stop stop-color="#B900FA"/>
<stop offset="1" stop-color="#7926FF"/>
</linearGradient>
<linearGradient id="paint55_linear_1_537" x1="334.266" y1="349.915" x2="364.864" y2="349.915" gradientUnits="userSpaceOnUse">
<stop stop-color="#B900FA"/>
<stop offset="1" stop-color="#7926FF"/>
</linearGradient>
<linearGradient id="paint56_linear_1_537" x1="337.768" y1="352.98" x2="362.08" y2="352.98" gradientUnits="userSpaceOnUse">
<stop stop-color="#B900FA"/>
<stop offset="1" stop-color="#7926FF"/>
</linearGradient>
</defs>
</svg>
